<?xml version="1.0" encoding="utf-8"?>
<!-- Generator: Adobe Illustrator 17.0.0, SVG Export Plug-In . SVG Version: 6.00 Build 0)  -->
<!DOCTYPE svg PUBLIC "-//W3C//DTD SVG 1.1//EN" "http://www.w3.org/Graphics/SVG/1.1/DTD/svg11.dtd">
<svg version="1.1" id="Layer_1" xmlns="http://www.w3.org/2000/svg" xmlns:xlink="http://www.w3.org/1999/xlink" x="0px" y="0px"
	 width="1068px" height="610px" viewBox="0 0 1068 610" enable-background="new 0 0 1068 610" xml:space="preserve">
<path d="M469,253c0-65-102-90-182-90c-119,0-171,12-171,133c0,68,23,163,146,163c55,0,120-8,170-82C451,346,469,294,469,253z
	 M785,165c-99,0-179,23-179,88c0,24,9,74,28,112c35,66,90,94,171,94c125,0,150-64,150-190C955,190,912,165,785,165z M287,145
	c104,0,190,37,249,37c65,0,137-36,268-36c49,0,158,16,206,22c7,1,9,2,9,10c1,16,1,32,1,49c0,6-3,8-6,8c-15,0-23,17-26,33
	c-5,30-11,60-18,89c-22,88-75,118-169,118c-123,0-170-50-213-165c-12-30-13-62-52-62c-29,0-41,30-52,62c-33,85-75,164-217,164
	c-52,0-127-21-153-83c-12-31-27-107-30-130c-3-15-10-24-24-29c-6-1-7-6-7-11c0-14,0-36,1-45c1-10,3-13,14-14C88,162,210,145,287,145
	z"/>
</svg>
