<?xml version="1.0" standalone="no"?>
<!DOCTYPE svg PUBLIC "-//W3C//DTD SVG 1.1//EN" "http://www.w3.org/Graphics/SVG/1.1/DTD/svg11.dtd" >
<svg xmlns="http://www.w3.org/2000/svg">
<metadata>Generated by IcoMoon</metadata>
<defs>
<font id="icomoon" horiz-adv-x="1024">
<font-face units-per-em="1024" ascent="960" descent="-64" />
<missing-glyph horiz-adv-x="1024" />
<glyph unicode="&#x20;" horiz-adv-x="512" d="" />
<glyph unicode="&#xe900;" glyph-name="e-cards" d="M73.143 960h292.571c40.396 0 73.143-32.747 73.143-73.143v-292.571c0-40.396-32.747-73.143-73.143-73.143h-292.571c-40.396 0-73.143 32.747-73.143 73.143v292.571c0 40.396 32.747 73.143 73.143 73.143zM658.286 960h292.571c40.396 0 73.143-32.747 73.143-73.143v-292.571c0-40.396-32.747-73.143-73.143-73.143h-292.571c-40.396 0-73.143 32.747-73.143 73.143v292.571c0 40.396 32.747 73.143 73.143 73.143zM73.143 374.857h292.571c40.396 0 73.143-32.747 73.143-73.143v-292.571c0-40.396-32.747-73.143-73.143-73.143h-292.571c-40.396 0-73.143 32.747-73.143 73.143v292.571c0 40.396 32.747 73.143 73.143 73.143zM658.286 374.857h292.571c40.396 0 73.143-32.747 73.143-73.143v-292.571c0-40.396-32.747-73.143-73.143-73.143h-292.571c-40.396 0-73.143 32.747-73.143 73.143v292.571c0 40.396 32.747 73.143 73.143 73.143z" />
<glyph unicode="&#xe901;" glyph-name="e-list" d="M73.143 960h877.714c40.396 0 73.143-32.747 73.143-73.143v-292.571c0-40.396-32.747-73.143-73.143-73.143h-877.714c-40.396 0-73.143 32.747-73.143 73.143v292.571c0 40.396 32.747 73.143 73.143 73.143zM73.143 374.857h877.714c40.396 0 73.143-32.747 73.143-73.143v-292.571c0-40.396-32.747-73.143-73.143-73.143h-877.714c-40.396 0-73.143 32.747-73.143 73.143v292.571c0 40.396 32.747 73.143 73.143 73.143z" />
<glyph unicode="&#xe902;" glyph-name="Activities" d="M975.686 470.388c-23.485 1.76-41.873 21.248-41.873 45.030 0 1.55 0.078 3.082 0.231 4.591l-2.017 137.166-74.845-1.164h32.116c0.326 0 0.652 0 0.977 0h40.634v-93.091h-26.112l-301.103-390.423c-2.49-13.445-10.56-24.631-21.666-31.256-6.886-4.036-14.914-6.352-23.482-6.352-17.137 0-32.111 9.261-40.19 23.052l-233.824 288.103-197.679-279.831c-8.466-13.652-23.369-22.608-40.364-22.608-8.532 0-16.536 2.257-23.449 6.207-13.711 7.538-23.004 22.126-23.004 38.884 0 8.346 2.305 16.153 6.312 22.82l227.682 322.266c2.305 13.715 10.438 25.169 21.714 31.908 6.893 4.048 14.933 6.372 23.516 6.372 17.145 0 32.125-9.27 40.201-23.071l235.406-290.105 282.95 366.871v29.975l-43.38-0.698c-24.411 2.106-43.428 22.441-43.428 47.218 0 0.746 0.017 1.487 0.051 2.225 0.742 23.835 20.328 42.958 44.38 42.958 1.055 0 2.102-0.037 3.139-0.109l175.663 2.754c5.983-0.597 11.457-2.25 16.412-4.775 17.714-6.19 30.371-23.015 30.371-42.797 0-1.277-0.053-2.541-0.156-3.791l2.664-183.272c-1.199-25.135-21.869-45.061-47.193-45.061-0.23 0-0.461 0.002-0.69 0.005z" />
<glyph unicode="&#xe903;" glyph-name="Asset-1" d="M512 960c-282.77 0-512-229.23-512-512s229.23-512 512-512c282.77 0 512 229.23 512 512s-229.23 512-512 512zM715.008 430.848c-14.865-52.089-37.57-97.535-67.128-137.619-31.851-42.875-76.887-76.083-129.138-93.518l-6.742-0.543h-4.864c-54.129 17.978-99.165 51.187-131.334 94.518-29.111 39.268-51.795 84.267-66.053 132.868-16.845 54.908-26.758 114.707-28.137 176.61-0.013 0.763-0.013 0.789-0.013 0.816 0 8.084 6.142 14.733 14.014 15.535 77.941 9.3 148.184 35.622 209.067 75.143 0.651 0.726 3.853 1.855 7.319 1.855s6.668-1.129 9.259-3.040c58.942-38.337 129.186-64.659 204.735-73.726 10.264-1.035 16.406-7.684 16.406-15.768 0-0.027 0-0.053 0-0.080-1.518-62.23-11.422-121.57-28.623-177.722z" />
<glyph unicode="&#xe904;" glyph-name="Alerts_Icon" d="M967.111 163.556h-227.556c0-125.675-101.88-227.556-227.556-227.556s-227.556 101.88-227.556 227.556h-227.556c-31.419 0-56.889 25.47-56.889 56.889s25.47 56.889 56.889 56.889h56.889v312.889c0 204.223 165.555 369.778 369.778 369.778h56.889c204.223 0 369.778-165.555 369.778-369.778v-312.889h56.889c31.419 0 56.889-25.47 56.889-56.889s-25.47-56.889-56.889-56.889zM512 49.778c62.838 0 113.778 50.94 113.778 113.778h-227.556c0-62.838 50.94-113.778 113.778-113.778zM796.444 561.778c0 157.094-127.35 284.444-284.444 284.444s-284.444-127.35-284.444-284.444v-284.444h568.889v284.444z" />
<glyph unicode="&#xe905;" glyph-name="App_R" d="M1024 789.333v-739.556c0-62.838-50.94-113.778-113.778-113.778h-796.444c-62.838 0-113.778 50.94-113.778 113.778v739.556c0 94.265 229.262 170.667 512 170.667s512-76.402 512-170.667v0zM113.778 682.268v-518.713c0-62.838 50.94-113.778 113.778-113.778h568.889c62.838 0 113.778 50.94 113.778 113.778l-12.971 513.593c-107.633-37.241-231.676-58.746-360.742-58.746-8.617 0-17.212 0.096-25.784 0.287-6.983-0.244-16.705-0.37-26.456-0.37-132.826 0-260.188 23.392-378.192 66.281zM682.667 220.444h-341.333c-31.419 0-56.889 25.47-56.889 56.889s25.47 56.889 56.889 56.889h341.333c31.419 0 56.889-25.47 56.889-56.889s-25.47-56.889-56.889-56.889zM682.667 391.111h-341.333c-31.419 0-56.889 25.47-56.889 56.889s25.47 56.889 56.889 56.889h341.333c31.419 0 56.889-25.47 56.889-56.889s-25.47-56.889-56.889-56.889z" />
<glyph unicode="&#xe906;" glyph-name="Arrow_Dropdown" d="M155.063 717.019l355.328-324.608 355.328 324.608c17.172 15.229 39.902 24.531 64.805 24.531s47.633-9.301 64.906-24.619l-0.102 0.089c16.522-14.501 26.895-35.662 26.895-59.246s-10.373-44.745-26.806-59.169l-485.026-443.176-484.937 442.953c-16.522 14.501-26.895 35.662-26.895 59.246s10.373 44.745 26.806 59.169l0.089 0.077c17.183 15.274 39.946 24.604 64.887 24.604 24.864 0 47.562-9.272 64.825-24.548z" />
<glyph unicode="&#xe907;" glyph-name="Arrow_Sort" d="M-1.331 681.574l72.397 72.397 434.483-434.381 434.381 434.381 72.397-72.397-506.778-506.88z" />
<glyph unicode="&#xe908;" glyph-name="Backup" d="M113.778 960c-62.838 0-113.778-50.94-113.778-113.778v-796.444c0-62.838 50.94-113.778 113.778-113.778h796.444c62.838 0 113.778 50.94 113.778 113.778v796.444c0 62.838-50.94 113.778-113.778 113.778h-796.444zM227.556 846.222h568.889c62.838 0 113.778-50.94 113.778-113.778v-568.889c0-62.838-50.94-113.778-113.778-113.778h-568.889c-62.838 0-113.778 50.94-113.778 113.778v568.889c0 62.838 50.94 113.778 113.778 113.778zM341.333 789.333v-56.889c0-62.838 50.94-113.778 113.778-113.778h113.778c62.838 0 113.778 50.94 113.778 113.778v56.889c-0.123 21.012-5.986 40.629-16.098 57.394l129.876-0.506v-227.556c0-62.838-50.94-113.778-113.778-113.778h-341.333c-62.838 0-113.778 50.94-113.778 113.778v227.556h129.536c-9.812-16.264-15.657-35.883-15.758-56.86zM227.556 334.222h568.889v-113.778h-568.889v113.778z" />
<glyph unicode="&#xe909;" glyph-name="Blank" d="M1025.028 345.266v205.597h-410.422v410.422h-205.597v-410.422h-410.422v-205.597h410.422v-410.422h205.597v410.422h410.422z" />
<glyph unicode="&#xe90a;" glyph-name="Check_Small" d="M948.876 661.364l-592.337-592.431-329.263 329.169c-16.168 16.723-26.132 39.534-26.132 64.671 0 51.413 41.678 93.091 93.091 93.091 25.137 0 47.948-9.964 64.697-26.157l197.513-197.421 460.707 460.707c16.852 16.863 40.139 27.294 65.862 27.294 51.423 0 93.11-41.687 93.11-93.11 0-25.7-10.412-48.968-27.248-65.816z" />
<glyph unicode="&#xe90b;" glyph-name="Close" d="M1023.767 827.875l-131.775 131.775-379.933-380.050-380.050 380.050-131.659-131.775 379.933-379.933-379.933-380.050 131.659-131.659 380.050 380.050 379.933-380.050 131.775 131.659-380.050 380.050z" />
<glyph unicode="&#xe90c;" glyph-name="Collapse_Arrow_down" d="M0 644.049l128.093 130.327 383.907-391.54 384 391.447 128-130.327-512-521.775z" />
<glyph unicode="&#xe90d;" glyph-name="Collapse_Arrow_up" d="M1024 251.951l-128-130.327-384 391.54-384.093-390.982-128 130.327 512.093 521.309z" />
<glyph unicode="&#xe90e;" glyph-name="Copy_R" d="M711.111-64h-568.889c-62.838 0-113.778 50.94-113.778 113.778v625.778c0 62.838 50.94 113.778 113.778 113.778h568.889c62.838 0 113.778-50.94 113.778-113.778v-625.778c0-62.838-50.94-113.778-113.778-113.778zM711.111 561.778c0 62.838-50.94 113.778-113.778 113.778h-341.333c-62.838 0-113.778-50.94-113.778-113.778v-398.222c0-62.838 50.94-113.778 113.778-113.778h341.333c62.838 0 113.778 50.94 113.778 113.778v398.222zM881.778 106.667v739.556h-682.667c0 62.838 50.94 113.778 113.778 113.778h568.889c62.838 0 113.778-50.94 113.778-113.778v-625.778c0-62.838-50.94-113.778-113.778-113.778z" />
<glyph unicode="&#xe90f;" glyph-name="Create" d="M910.222-64h-796.444c-62.838 0-113.778 50.94-113.778 113.778v796.444c0 62.838 50.94 113.778 113.778 113.778h796.444c62.838 0 113.778-50.94 113.778-113.778v-796.444c0-62.838-50.94-113.778-113.778-113.778zM910.222 732.444c0 62.838-50.94 113.778-113.778 113.778h-568.889c-62.838 0-113.778-50.94-113.778-113.778v-568.889c0-62.838 50.94-113.778 113.778-113.778h568.889c62.838 0 113.778 50.94 113.778 113.778v568.889zM625.778 391.111h-56.889v-56.889c0-31.419-25.47-56.889-56.889-56.889s-56.889 25.47-56.889 56.889v56.889h-56.889c-31.419 0-56.889 25.47-56.889 56.889s25.47 56.889 56.889 56.889h56.889v56.889c0 31.419 25.47 56.889 56.889 56.889s56.889-25.47 56.889-56.889v-56.889h56.889c31.419 0 56.889-25.47 56.889-56.889s-25.47-56.889-56.889-56.889z" />
<glyph unicode="&#xe910;" glyph-name="Date_arrow" d="M315.951-64l-130.327 128.093 390.982 384-390.982 384.093 130.327 128 521.868-512.186z" />
<glyph unicode="&#xe911;" glyph-name="db" d="M512 960c318.144 0 512-114.56 512-256s-193.856-256-512-256-512 114.624-512 256 193.856 256 512 256zM512 320c185.6 0 276.672 54.912 312.256 128h199.744c0-141.376-193.856-256-512-256s-512 114.624-512 256h199.68c35.584-73.024 126.72-128 312.32-128zM512 64c185.6 0 276.672 54.912 312.256 128h199.744c0-141.376-193.856-256-512-256s-512 114.624-512 256h199.68c35.584-73.024 126.72-128 312.32-128z" />
<glyph unicode="&#xe912;" glyph-name="Delete_tag" d="M1024 788.992l-170.862 171.008-341.138-341.577-340.992 341.577-171.008-171.008 341.138-341.138-341.138-340.992 171.008-170.862 340.992 341.138 341.138-341.138 170.862 170.862-341.138 340.992z" />
<glyph unicode="&#xe913;" glyph-name="Delete" d="M153.6-64v716.8h716.8v-716.8h-716.8zM768 550.4h-512v-512h512v512zM460.8 140.8h-102.4v307.2h102.4v-307.2zM665.6 140.8h-102.4v307.2h102.4v-307.2zM307.2 704h-153.6v102.4h153.6v153.6h409.6v-153.6h153.6v-102.4h-563.2zM614.4 857.6h-204.8v-51.2h204.8v51.2z" />
<glyph unicode="&#xe914;" glyph-name="despose" d="M512-64c-282.77 0-512 229.23-512 512s229.23 512 512 512c282.77 0 512-229.23 512-512s-229.23-512-512-512zM512 857.6c-226.216 0-409.6-183.384-409.6-409.6s183.384-409.6 409.6-409.6c226.216 0 409.6 183.384 409.6 409.6s-183.384 409.6-409.6 409.6zM626.893 275.302l-115.661 115.661-115.661-115.661-57.805 57.805 115.61 115.661-115.456 115.61 57.805 57.805 115.661-115.661 115.661 115.661 57.805-57.805-115.661-115.61 115.661-115.661z" />
<glyph unicode="&#xe915;" glyph-name="Docker" d="M1024.705 482.133l-95.937-119.922c-52.954-207.164-237.935-357.878-458.117-357.878-246.731 0-449.259 189.251-470.344 430.509l842.353 1.78v273.067zM213.015 350.151c-0.068 0-0.148 0.001-0.228 0.001-23.878 0-43.236-19.357-43.236-43.236s19.357-43.236 43.236-43.236c23.878 0 43.235 19.357 43.236 43.235 0 0.041 0 0.089 0 0.137 0 23.771-19.244 43.047-43.003 43.099zM637.861 618.667h136.533v-136.533h-136.533v136.533zM501.328 755.2h136.533v-136.533h-136.533v136.533zM501.328 482.133h-136.533v136.533h136.533v-136.533zM228.261 618.667v136.533h136.533v-136.533h-136.533zM91.728 482.133v136.533h136.533v-136.533h-136.533zM364.794 891.733h136.533v-136.533h-136.533v136.533z" />
<glyph unicode="&#xe916;" glyph-name="Edit" horiz-adv-x="1026" d="M618.804 802.758l247.837-247.837-536.971-536.971-247.837 247.837zM40.537 224.491l247.837-247.837-289.134-41.296zM742.693 926.706c21.139 21.133 50.34 34.204 82.593 34.204s61.454-13.071 82.593-34.204l82.593-82.593c21.133-21.139 34.204-50.34 34.204-82.593s-13.071-61.454-34.204-82.593l-82.593-82.593-247.779 247.837z" />
<glyph unicode="&#xe917;" glyph-name="eye_Block" d="M941.376 915.968c-8.66 8.647-20.618 13.995-33.824 13.995s-25.163-5.348-33.825-13.995l-201.343-201.279c-48.661 15.268-104.616 24.064-162.625 24.064-0.202 0-0.405 0-0.607 0-222.491-0.958-414.878-129.023-508.36-315.302 40.503-86.117 98.656-155.119 169.313-208.43l-156.857-159.341c-9.225-8.734-14.966-21.068-14.966-34.742 0-26.404 21.404-47.808 47.808-47.808 13.674 0 26.008 5.741 34.722 14.944l860.437 860.182c8.628 8.657 13.963 20.602 13.963 33.792s-5.335 25.135-13.964 33.793l0.001-0.001zM413.632 611.392c41.832-0.004 77.387-26.87 90.357-64.288l-121.013-121.888c-38.179 13.125-65.125 48.728-65.125 90.624 0 52.807 42.809 95.616 95.616 95.616 0.058 0 0.116 0 0.174 0zM109.056 420.224c38.648 60.608 88.441 110.646 146.901 148.419 5.803 3.645 9.771 6.077 13.675 8.445-9.732-25.914-15.364-55.863-15.364-87.127 0-55.033 17.452-105.989 47.124-147.637l-61.264-59.892c-52.463 37.272-96.141 83.112-129.904 135.904zM763.968 489.984c0 0.147 0 0.32 0 0.494 0 27.537-4.402 54.046-12.54 78.861l-319.941-322.171c23.177-7.666 49.856-12.088 77.568-12.088 140.781 0 254.908 114.124 254.912 254.904zM825.728 641.344l-69.056-69.056c1.28-0.768 2.56-1.536 3.776-2.368 60.315-38.978 110.096-89.004 147.635-147.623-37.483-62.572-87.276-112.631-145.737-150.427-73.067-47.174-160.044-74.532-253.411-74.532-40.231 0-79.276 5.079-116.527 14.632l-73.559-77.505c56.453-20.88 121.659-32.96 189.686-32.96 0.139 0 0.277 0 0.416 0 222.485 0.951 414.855 129.022 508.306 315.301-44.19 93.666-109.579 168.134-189.385 223.201z" />
<glyph unicode="&#xe918;" glyph-name="eye" d="M512 768c-223.462-0.98-416.65-129.611-510.498-316.694 93.148-194.305 286.758-323.306 510.498-323.306s417.35 129.001 510.51 316.682c-93.86 193.707-287.048 322.338-510.378 323.317zM764.48 598.272c60.593-39.144 110.593-89.41 148.27-148.317-37.643-62.844-87.65-113.117-146.364-151.073-73.327-47.395-160.63-74.883-254.354-74.883s-181.027 27.488-254.288 74.843c-58.752 38.032-108.752 88.297-146.431 147.203 37.639 62.846 87.648 113.12 146.365 151.073 5.81 3.65 9.778 6.082 13.746 8.45-9.769-26.030-15.424-56.113-15.424-87.517 0-141.385 114.615-256 256-256s256 114.615 256 256c0 31.404-5.655 61.487-16.001 89.287 4.545-4.138 8.513-6.57 12.417-9.066v0zM512 544c0-53.019-42.981-96-96-96s-96 42.981-96 96c0 53.019 42.981 96 96 96s96-42.981 96-96z" />
<glyph unicode="&#xe919;" glyph-name="Filter" d="M675.84 448h-10.24v-409.6c0-56.554-45.846-102.4-102.4-102.4h-102.4c-56.554 0-102.4 45.846-102.4 102.4v409.6h10.24l-317.44 307.2v102.4c0 56.554 45.846 102.4 102.4 102.4h716.8c56.554 0 102.4-45.846 102.4-102.4v-102.4zM819.2 857.6h-614.4c-28.277 0-51.2-22.923-51.2-51.2l307.2-307.2v-409.6c0-28.277 22.923-51.2 51.2-51.2s51.2 22.923 51.2 51.2v409.6l307.2 307.2c0 28.277-22.923 51.2-51.2 51.2z" />
<glyph unicode="&#xe91a;" glyph-name="Hackathon_Ring" d="M997.225 265.035c-0.452-0.813-1.235-1.416-1.717-2.199-4.031-29.732-13.461-56.569-27.307-80.536-93.284-161.58-379.522-171.85-638.805-22.135s-393.427 402.793-299.61 565.308c23.64 39.346 57.37 70.484 97.658 90.345 1.369 0.098 1.369-0.474 1.098-0.986 93.003 74.933 318.404 42.526 539.106-84.902 247.718-142.999 395.264-351.142 329.577-464.896zM575.759 586.842c-170.707 98.545-343.1 134.807-438.633 101.165 37.105-118.453 149.233-247.989 309.7-340.631 155.166-89.57 317.621-122.85 437.76-100.472-11.927 100.774-132.036 237.869-308.826 339.938z" />
<glyph unicode="&#xe91b;" glyph-name="Hackathon_sword" d="M973.056 0.864l-45.248-45.248c-11.583-11.587-27.586-18.754-45.264-18.754s-33.681 7.167-45.264 18.754l-178.688 178.688-54.656-116.896c-8.808-18.505-27.356-31.068-48.838-31.068-14.879 0-28.351 6.027-38.107 15.772l-31.264 31.264c-9.758 9.758-15.794 23.238-15.794 38.128s6.036 28.37 15.794 38.128l327.648 327.648c9.753 9.756 23.228 15.791 38.112 15.791s28.359-6.035 38.112-15.791l31.264-31.264c9.751-9.757 15.782-23.232 15.782-38.116 0-21.474-12.553-40.015-30.721-48.688l-109.509-51.34 176.64-176.672c11.53-11.573 18.658-27.538 18.658-45.168s-7.128-33.595-18.66-45.17zM848 800h-32v64h-64v32h64v64h32v-64h64v-32h-64v-64zM308.448 648.928c-4.357 4.165-10.275 6.728-16.792 6.728-13.432 0-24.32-10.888-24.32-24.32 0-6.509 2.557-12.421 6.721-16.786l323.927-323.894-64-64-431.584 431.776c-13.251 13.246-22.648 30.346-26.366 49.475l-28.034 148.957c-0.178 0.883-0.28 1.898-0.28 2.936 0 8.571 6.949 15.52 15.52 15.52 1.039 0 2.053-0.102 3.035-0.297l148.253-28.080c19.73-3.83 36.827-13.224 50.081-26.465l431.615-431.615-64-64zM80 128h32v-64h64v-32h-64v-64h-32v64h-64v32h64v64z" />
<glyph unicode="&#xe91c;" glyph-name="Hamburger" d="M930.909 354.909h-837.818c-51.413 0-93.091 41.678-93.091 93.091s41.678 93.091 93.091 93.091h837.818c51.413 0 93.091-41.678 93.091-93.091s-41.678-93.091-93.091-93.091zM930.909 680.727h-837.818c-51.413 0-93.091 41.678-93.091 93.091s41.678 93.091 93.091 93.091h837.818c51.413 0 93.091-41.678 93.091-93.091s-41.678-93.091-93.091-93.091zM93.091 215.273h837.818c51.413 0 93.091-41.678 93.091-93.091s-41.678-93.091-93.091-93.091h-837.818c-51.413 0-93.091 41.678-93.091 93.091s41.678 93.091 93.091 93.091z" />
<glyph unicode="&#xe91d;" glyph-name="Info" d="M512-64c-282.77 0-512 229.23-512 512s229.23 512 512 512c282.77 0 512-229.23 512-512s-229.23-512-512-512zM512 857.6c-226.216 0-409.6-183.384-409.6-409.6s183.384-409.6 409.6-409.6c226.216 0 409.6 183.384 409.6 409.6s-183.384 409.6-409.6 409.6zM460.8 294.4v256h102.4v-358.4h-102.4v102.4zM460.8 704h102.4v-102.4h-102.4v102.4z" />
<glyph unicode="&#xe91e;" glyph-name="Link_Icon" d="M896-64h-768c-70.692 0-128 57.308-128 128v768c0 70.692 57.308 128 128 128h384v-128h-256c-70.692 0-128-57.308-128-128v-512c0-70.692 57.308-128 128-128h512c70.4 0 128-6.4 128 64v320h128v-384c0-70.692-57.308-128-128-128zM896 741.504l-308.992-308.992-90.496 90.496 308.928 308.992h-165.44v128h384v-384h-128v165.504z" />
<glyph unicode="&#xe91f;" glyph-name="Log_out" horiz-adv-x="1042" d="M720.043 287.118l103.993 103.993h-274.66v113.778h274.66l-103.993 104.050 80.441 80.441 241.38-241.38-241.38-241.38zM739.556 846.222h-512c-62.838 0-113.778-50.94-113.778-113.778v-568.889c0-62.838 50.94-113.778 113.778-113.778h512c31.419 0 56.889-25.47 56.889-56.889s-25.47-56.889-56.889-56.889h-625.778c-62.838 0-113.778 50.94-113.778 113.778v796.444c0 62.838 50.94 113.778 113.778 113.778h625.778c31.419 0 56.889-25.47 56.889-56.889s-25.47-56.889-56.889-56.889z" />
<glyph unicode="&#xe920;" glyph-name="Logs" d="M824.195 260.683v358.25l-682.234-682.134-141.262 141.262 682.134 682.134h-358.15v199.805h699.317v-699.317h-199.805z" />
<glyph unicode="&#xe921;" glyph-name="Missing_Field" d="M409.6-64v204.8h204.8v-204.8h-204.8zM409.6 960h204.8v-716.8h-204.8v716.8z" />
<glyph unicode="&#xe922;" glyph-name="Missing_Info" d="M1004.983 162.45l-300.325 299.886c-8.665 8.641-20.623 13.984-33.829 13.984s-25.164-5.343-33.83-13.985l-22.527-22.527-183.296 182.857 300.91 300.763h-318.683l-141.531-140.8-14.043 14.043h-67.657v-67.584l13.97-14.043-205.239-204.8 159.378-159.305 205.239 205.166 182.857-182.857-22.528-22.601c-8.637-8.653-13.978-20.599-13.978-33.792s5.341-25.139 13.979-33.793l300.324-300.251c8.661-8.619 20.604-13.948 33.792-13.948s25.131 5.328 33.794 13.95l112.711 112.638c8.606 8.681 13.924 20.634 13.924 33.829s-5.318 25.148-13.928 33.832l0.003-0.003z" />
<glyph unicode="&#xe923;" glyph-name="Modes" d="M995.783 407.78l-160.882-160.882c-10.22-9.881-24.16-15.969-39.521-15.969-31.419 0-56.889 25.47-56.889 56.889 0 15.362 6.089 29.301 15.985 39.537l63.757 63.756h-620.089l67.413-68.267c10.652-10.808 17.23-25.656 17.23-42.041s-6.578-31.233-17.237-42.048c-10.558-10.734-25.248-17.39-41.493-17.39s-30.935 6.656-41.493 17.389l-166.123 168.171c-10.635 10.805-17.202 25.642-17.202 42.012s6.567 31.207 17.21 42.020l166.108 168.156c10.565 10.741 25.256 17.397 41.5 17.397s30.935-6.656 41.493-17.389c10.66-10.816 17.238-25.664 17.238-42.049s-6.578-31.233-17.237-42.048l-69.397-70.137h622.080l-63.772 63.772c-10.305 10.298-16.68 24.529-16.68 40.249 0 31.425 25.475 56.9 56.9 56.9 15.706 0 29.925-6.363 40.221-16.652l160.881-160.938c10.291-10.294 16.656-24.514 16.656-40.22s-6.365-29.926-16.656-40.221z" />
<glyph unicode="&#xe924;" glyph-name="Mongo_db" d="M533.163 149.371c187.43 0 339.134 278.263 339.134 467.665 0.003 0.565 0.005 1.233 0.005 1.902 0 187.688-151.603 339.968-339.034 341.062l-0.105-810.666zM490.799 149.371c-187.392 0-339.096 278.263-339.096 467.665-0.003 0.565-0.005 1.233-0.005 1.902 0 187.675 151.582 339.946 338.995 341.062l0.106-810.666zM490.799 106.667h42.667v-170.667h-42.78v170.667z" />
<glyph unicode="&#xe925;" glyph-name="More_servers" d="M278.357-65.024l-64 146.432 384 366.933-384 366.933 64 146.432 533.419-513.707z" />
<glyph unicode="&#xe926;" glyph-name="My-perfernce" d="M960 192v-192c0-35.346-28.654-64-64-64s-64 28.654-64 64v192c-35.346 0-64 28.654-64 64s28.654 64 64 64v576c0 35.346 28.654 64 64 64s64-28.654 64-64v-576c35.346 0 64-28.654 64-64s-28.654-64-64-64zM576 576v-576c0-35.346-28.654-64-64-64s-64 28.654-64 64v576c-35.346 0-64 28.654-64 64s28.654 64 64 64v192c0 35.346 28.654 64 64 64s64-28.654 64-64v-192c35.346 0 64-28.654 64-64s-28.654-64-64-64zM192 192v-192c0-35.346-28.654-64-64-64s-64 28.654-64 64v192c-35.346 0-64 28.654-64 64s28.654 64 64 64v576c0 35.346 28.654 64 64 64s64-28.654 64-64v-576c35.346 0 64-28.654 64-64s-28.654-64-64-64z" />
<glyph unicode="&#xe927;" glyph-name="Play-1" d="M910.222-64h-796.444c-62.838 0-113.778 50.94-113.778 113.778v796.444c0 62.838 50.94 113.778 113.778 113.778h796.444c62.838 0 113.778-50.94 113.778-113.778v-796.444c0-62.838-50.94-113.778-113.778-113.778zM910.222 732.444c0 62.838-50.94 113.778-113.778 113.778h-568.889c-62.838 0-113.778-50.94-113.778-113.778v-568.889c0-62.838 50.94-113.778 113.778-113.778h568.889c62.838 0 113.778 50.94 113.778 113.778v568.889zM696.491 448v0l-201.102-201.159c-10.296-10.288-24.515-16.652-40.22-16.652-31.425 0-56.9 25.475-56.9 56.9 0 15.72 6.375 29.951 16.68 40.249l120.605 120.662-120.718 120.661c-10.305 10.298-16.68 24.529-16.68 40.249 0 31.425 25.475 56.9 56.9 56.9 15.706 0 29.925-6.363 40.221-16.652l120.661-120.718z" />
<glyph unicode="&#xe928;" glyph-name="Play" d="M921.6-64h-819.2c-56.554 0-102.4 45.846-102.4 102.4v819.2c0 56.554 45.846 102.4 102.4 102.4h819.2c56.554 0 102.4-45.846 102.4-102.4v-819.2c0-56.554-45.846-102.4-102.4-102.4zM921.6 755.2c0 56.554-45.846 102.4-102.4 102.4h-614.4c-56.554 0-102.4-45.846-102.4-102.4v-614.4c0-56.554 45.846-102.4 102.4-102.4h614.4c56.554 0 102.4 45.846 102.4 102.4v614.4zM677.99 448v0l-180.992-181.043c-9.271-9.271-22.078-15.004-36.224-15.004-28.293 0-51.228 22.936-51.228 51.228 0 14.146 5.734 26.953 15.004 36.224l108.646 108.595-108.646 108.595c-9.271 9.271-15.004 22.078-15.004 36.224 0 28.293 22.936 51.228 51.228 51.228 14.146 0 26.953-5.734 36.224-15.004l108.595-108.646z" />
<glyph unicode="&#xe929;" glyph-name="Redis" d="M1000.599 578.59l-445.079-174.020c-10.9-10.897-25.956-17.636-42.586-17.636s-31.687 6.739-42.587 17.636l-445.109 174.020c-10.897 10.9-17.636 25.956-17.636 42.586s6.739 31.687 17.636 42.587l445.109 174.020c10.9 10.897 25.956 17.636 42.586 17.636s31.687-6.739 42.587-17.636l445.078-174.020c10.897-10.9 17.636-25.956 17.636-42.586s-6.739-31.687-17.636-42.587zM61.47 472.004l422.761-159.202c6.75-2.717 12.442-6.823 16.941-11.994l447.443 182.55c4.722 1.821 10.186 2.877 15.896 2.877 18.98 0 35.237-11.658 42.001-28.204 1.906-4.899 2.946-10.221 2.946-15.786 0-18.895-12-34.988-28.795-41.072l-451.647-184.296c-4.711-1.791-10.158-2.829-15.847-2.829-12.82 0-24.41 5.266-32.725 13.753-4.009-1.314-8.615-2.077-13.399-2.077-5.25 0-10.286 0.918-14.955 2.603l-422.484 159.105c-17.241 6.628-29.255 23.054-29.255 42.285 0 24.956 20.231 45.187 45.187 45.187 5.725 0 11.201-1.065 16.241-3.007zM61.47 291.298l422.761-159.202c6.75-2.717 12.442-6.823 16.941-11.994l447.443 182.55c4.719 1.819 10.179 2.873 15.885 2.873 18.99 0 35.254-11.67 42.012-28.23 1.899-4.892 2.936-10.205 2.936-15.76 0-18.892-11.996-34.981-28.785-41.068l-451.647-184.296c-4.711-1.791-10.158-2.829-15.847-2.829-12.82 0-24.41 5.266-32.725 13.753-4.009-1.314-8.615-2.077-13.399-2.077-5.25 0-10.286 0.918-14.955 2.603l-422.484 159.105c-17.241 6.628-29.255 23.054-29.255 42.285 0 24.956 20.231 45.187 45.187 45.187 5.725 0 11.201-1.065 16.241-3.007z" />
<glyph unicode="&#xe92a;" glyph-name="Reports" d="M870.4-64h-716.8c-56.554 0-102.4 45.846-102.4 102.4v819.2c0 56.554 45.846 102.4 102.4 102.4h716.8c56.554 0 102.4-45.846 102.4-102.4v-819.2c0-56.554-45.846-102.4-102.4-102.4zM870.4 755.2c0 56.554-45.846 102.4-102.4 102.4h-512c-56.554 0-102.4-45.846-102.4-102.4v-614.4c0-56.554 45.846-102.4 102.4-102.4h512c56.554 0 102.4 45.846 102.4 102.4v614.4zM665.6 192h-307.2c-28.277 0-51.2 22.923-51.2 51.2s22.923 51.2 51.2 51.2h307.2c28.277 0 51.2-22.923 51.2-51.2s-22.923-51.2-51.2-51.2zM665.6 396.8h-307.2c-28.277 0-51.2 22.923-51.2 51.2s22.923 51.2 51.2 51.2h307.2c28.277 0 51.2-22.923 51.2-51.2s-22.923-51.2-51.2-51.2zM665.6 601.6h-307.2c-28.277 0-51.2 22.923-51.2 51.2s22.923 51.2 51.2 51.2h307.2c28.277 0 51.2-22.923 51.2-51.2s-22.923-51.2-51.2-51.2z" />
<glyph unicode="&#xe92b;" glyph-name="Saved_Image" d="M910.222-64h-796.444c-62.838 0-113.778 50.94-113.778 113.778v910.222h568.889v-113.778h455.111v-796.444c0-62.838-50.94-113.778-113.778-113.778zM113.778 163.556c0-62.838 50.94-113.778 113.778-113.778h568.889c62.838 0 113.778 50.94 113.778 113.778v398.222h-796.444v-398.222zM455.111 732.444v113.778h-341.333v-170.667h796.444v56.889h-455.111zM227.556 277.333h455.111v-113.778h-455.111v113.778zM227.556 448h341.333v-113.778h-341.333v113.778z" />
<glyph unicode="&#xe92c;" glyph-name="Search" d="M1006.268-46.325c-10.384-10.381-24.728-16.802-40.572-16.802s-30.188 6.421-40.572 16.802l-184.841 184.898c-77.093-60.335-175.436-96.751-282.285-96.751-254.151 0-460.18 206.030-460.18 460.18s206.030 460.18 460.18 460.18c254.151 0 460.18-206.030 460.18-460.18 0-106.849-36.416-205.193-97.513-283.297l185.604-183.829c10.398-10.387 16.831-24.743 16.831-40.601s-6.432-30.214-16.83-40.6zM459.090 845.228c-190.161 0-344.317-154.156-344.317-344.317s154.156-344.317 344.317-344.317c190.161 0 344.317 154.156 344.317 344.317s-154.156 344.317-344.317 344.317z" />
<glyph unicode="&#xe92d;" glyph-name="Service" d="M897.579 306.603c-73.382-168.922-238.767-284.912-431.243-284.912-243.955 0-444.39 186.333-466.748 424.441l851.058 1.868 5.76 221.867 159.36-221.867zM210.645 362.667c-23.564 0-42.667-19.103-42.667-42.667s19.103-42.667 42.667-42.667c23.564 0 42.667 19.103 42.667 42.667s-19.103 42.667-42.667 42.667zM637.312 618.667h128v-128h-128v128zM509.312 746.667h128v-128h-128v128zM509.312 490.667h-128v128h128v-128zM253.312 618.667v128h128v-128h-128zM125.312 490.667v128h128v-128h-128zM381.312 874.667h128v-128h-128v128z" />
<glyph unicode="&#xe92e;" glyph-name="Settings_Icon" d="M888.036 345.202c-9.53-33.663-22.158-63.012-38.023-90.242 3.321-1.064 86.322-105.285 35.122-156.2l-25.372-25.372c-38.172-38.172-133.746 21.675-156.558 36.864-26.928-15.433-58.078-28.284-90.931-36.94l4.005-0.606s-18.091-136.533-91.022-136.533h-25.088c-55.694 0-86.699 116.793-92.103 138.866-35.154 10.030-65.825 23.491-94.152 40.461l6.828-6.271s-108.089-84.878-159.573-33.223l-22.756 19.001c-39.253 39.253 24.007 143.246 36.693 163.1-14.403 24.758-26.695 53.382-35.397 83.529-22.175 7.948-139.764 39.009-139.764 94.874v25.031c0 64.512 112.185 86.187 138.411 90.396 9.258 33.109 21.484 61.973 36.837 88.819-13.001 16.426-78.821 120.874-39.226 160.469l24.121 20.309c45.511 45.511 138.581-18.944 160.313-35.1 25.38 14.925 54.708 27.59 85.633 36.48 9.599 28.032 40.489 137.201 94.249 137.201h25.088c62.578 0 84.821-105.586 89.884-135.794 34.098-9.417 63.861-22.019 91.485-37.921 21.724 16.36 118.947 75.809 157.006 37.75l22.756-24.121c44.544-44.544-17.067-134.713-35.157-158.834 14.865-25.445 27.459-54.857 36.262-85.863 8.68-3.85 136.225-22.965 136.225-93.735v-25.031c0.171-53.362-107.292-84.139-135.794-91.364zM512 732.444c-157.094 0-284.444-127.35-284.444-284.444s127.35-284.444 284.444-284.444c157.094 0 284.444 127.35 284.444 284.444s-127.35 284.444-284.444 284.444zM512 561.778c62.838 0 113.778-50.94 113.778-113.778s-50.94-113.778-113.778-113.778c-62.838 0-113.778 50.94-113.778 113.778s50.94 113.778 113.778 113.778z" />
<glyph unicode="&#xe92f;" glyph-name="Settings" d="M584.832 341.888l-335.872-335.936c-23.162-23.154-55.157-37.475-90.496-37.475-70.694 0-128.003 57.309-128.003 128.003 0 35.355 14.334 67.362 37.507 90.528l335.872 335.872c-14.031 34.659-22.172 74.857-22.172 116.956 0 176.484 143.068 319.552 319.552 319.552 42.1 0 82.298-8.141 119.106-22.935l-164.070-161.157c-11.578-11.581-18.738-27.578-18.738-45.248s7.161-33.667 18.739-45.248l90.496-90.496c11.584-11.597 27.594-18.77 45.28-18.77s33.696 7.174 45.279 18.77l161.857 161.921c14.062-34.69 22.222-74.927 22.222-117.070 0-176.448-143.040-319.488-319.488-319.488-42.143 0-82.38 8.16-119.217 22.985z" />
<glyph unicode="&#xe930;" glyph-name="Share" d="M768 243.2c-41.442 0.032-79.978 12.45-112.114 33.75l-197.646-110.857c0.96-7.44 1.508-16.046 1.508-24.78 0-112.825-91.463-204.288-204.288-204.288s-204.288 91.463-204.288 204.288c0 112.825 91.463 204.288 204.288 204.288 0.19 0 0.379 0 0.569-0.001 67.169-0.102 126.728-32.715 163.775-82.948l166.845 92.061c-14.766 27.082-23.449 59.317-23.449 93.579 0 38.32 10.861 74.103 29.673 104.439l-156.547 107.338c-35.012-65.62-103.023-109.521-181.287-109.521-113.108 0-204.8 91.692-204.8 204.8s91.692 204.8 204.8 204.8c107.954 0 196.399-83.526 204.235-189.477l208.424-145.111c28.769 16.929 63.334 27.016 100.237 27.238 113.172 0 204.864-91.692 204.864-204.8s-91.692-204.8-204.8-204.8zM256 243.2c-56.554 0-102.4-45.846-102.4-102.4s45.846-102.4 102.4-102.4c56.554 0 102.4 45.846 102.4 102.4s-45.846 102.4-102.4 102.4zM256 857.6c-56.554 0-102.4-45.846-102.4-102.4s45.846-102.4 102.4-102.4c56.554 0 102.4 45.846 102.4 102.4s-45.846 102.4-102.4 102.4zM768 550.4c-56.554 0-102.4-45.846-102.4-102.4s45.846-102.4 102.4-102.4c56.554 0 102.4 45.846 102.4 102.4s-45.846 102.4-102.4 102.4z" />
<glyph unicode="&#xe931;" glyph-name="Site_setup" d="M267.13 670.609c-24.589 0-44.522-19.933-44.522-44.522s19.933-44.522 44.522-44.522h178.087v89.043h-178.087zM267.13 492.522c-24.589 0-44.522-19.933-44.522-44.522s19.933-44.522 44.522-44.522h178.087v89.043h-178.087zM222.609 269.913c0-24.589 19.933-44.522 44.522-44.522h178.087v89.043h-178.087c-24.589 0-44.522-19.933-44.522-44.522zM699.971 759.652h101.421v44.522c0 49.177-39.866 89.043-89.043 89.043h-623.304c-49.177 0-89.043-39.866-89.043-89.043v-712.348c0-49.177 39.866-89.043 89.043-89.043h623.304c49.177 0 89.043 39.866 89.043 89.043v44.522l-101.648-0.422c-15.322-26.312-43.804-44.017-76.439-44.099h-445.217c-49.177 0-89.043 39.866-89.043 89.043v534.261c0 49.177 39.866 89.043 89.043 89.043h445.227c32.643-0.065 61.145-17.775 76.702-44.522zM953.121 394.351c-5.001-17.57-11.588-32.88-19.845-47.099 1.725-0.539 45.044-54.9 18.331-81.435l-13.357-13.357c-19.901-19.901-69.81 11.309-81.697 19.233-14.085-8.067-30.379-14.773-47.565-19.276l2.064-0.314s-9.439-71.235-47.549-71.235h-13.089c-29.028 0-45.234 60.95-48.039 72.437-18.331 5.237-34.322 12.265-49.091 21.124l3.545-3.271s-56.32-44.522-83.3-17.319l-11.887 9.884c-20.48 20.48 12.511 74.752 19.1 85.081-7.471 12.927-13.873 27.879-18.431 43.615-11.577 4.157-72.928 20.363-72.928 49.524v13.045c0 33.658 58.546 44.967 72.214 47.149 4.849 17.285 11.226 32.348 19.224 46.367-6.802 8.529-41.129 63.023-20.471 83.592l12.6 10.596c23.686 23.73 72.303-9.884 83.612-18.298 13.248 7.771 28.559 14.373 44.7 19.016 4.987 14.642 21.103 71.586 49.152 71.586h13.089c32.679 0 44.255-55.118 46.881-70.879 17.785-4.894 33.315-11.475 47.716-19.794 11.364 8.53 62.074 39.562 81.975 19.705l11.887-12.6c23.24-23.24-8.904-70.255-18.343-82.855 7.752-13.274 14.327-28.619 18.932-44.793 4.486-1.999 71.046-12.017 71.046-48.925v-13.045c0.401-27.603-55.652-43.676-70.522-47.46zM756.87 596.391c-81.954 0-148.391-66.437-148.391-148.391s66.437-148.391 148.391-148.391c81.954 0 148.391 66.437 148.391 148.391s-66.437 148.391-148.391 148.391zM756.87 507.837c-33.047 0-59.837-26.79-59.837-59.837s26.79-59.837 59.837-59.837c33.047 0 59.837 26.79 59.837 59.837s-26.79 59.837-59.837 59.837zM756.87 537.043c49.177 0 89.043-39.866 89.043-89.043s-39.866-89.043-89.043-89.043c-49.177 0-89.043 39.866-89.043 89.043s39.866 89.043 89.043 89.043z" />
<glyph unicode="&#xe932;" glyph-name="Toogle" d="M948.969 661.364l-592.431-592.71-329.169 329.169c-16.168 16.723-26.132 39.534-26.132 64.671 0 51.413 41.678 93.091 93.091 93.091 25.137 0 47.948-9.964 64.697-26.157l197.42-197.514 460.8 460.8c16.538 15.301 38.743 24.687 63.141 24.687 51.413 0 93.091-41.678 93.091-93.091 0-24.305-9.314-46.434-24.568-63.013z" />
<glyph unicode="&#xe933;" glyph-name="Unknowen_app" d="M985.061 802.439l-459.587 156.295c-4.243 0.992-9.115 1.56-14.12 1.56s-9.877-0.569-14.555-1.645l-459.368-156.48c-20.236-3.872-35.467-20.993-36.402-41.834l-0.003-601.831c0.176-18.081 11.791-33.404 27.948-39.092l468.261-180.961c4.573-1.36 9.828-2.142 15.266-2.142s10.692 0.783 15.658 2.241l467.576 180.449c16.524 5.783 28.18 21.204 28.268 39.36v601.934c-0.082 22.143-17.107 40.284-38.782 42.135zM512.485 873.768l343.929-115.496-343.929-130.991-343.902 130.991zM85.962 189.036v507.958l383.030-146.082v-510.114zM939.035 189.036l-383.003-148.211v508.847l383.003 147.321v-508.039z" />
<glyph unicode="&#xe934;" glyph-name="Unknowen_db" d="M512 960c318.171 0 512-114.615 512-256s-193.829-256-512-256-512 114.615-512 256 193.829 256 512 256zM512 320c185.746 0 276.663 54.857 312.247 128h199.753c0-141.385-193.829-256-512-256s-512 114.615-512 256h199.717c35.547-73.143 126.464-128 312.283-128zM512 64c185.746 0 276.663 54.857 312.247 128h199.753c0-141.385-193.829-256-512-256s-512 114.615-512 256h199.717c35.547-73.143 126.464-128 312.283-128z" />
<glyph unicode="&#xe935;" glyph-name="Platform_Tab" horiz-adv-x="967" d="M937.074 253.042c-22.705 42.96-55.856 77.735-96.162 101.752 2.925 21.008 5.27 44.412 5.27 68.365 0 198.253-160.716 358.969-358.969 358.969-1.286 0-2.57-0.007-3.853-0.020-10.897 0.002-21.308-2.274-32.174-3.241 2.195 11.52 3.61 24.937 3.92 38.628-0.339 30.19-5.816 58.71-15.581 85.153 14.903-0.446 29.353 0.465 44.030 0.465 0.323 0.001 0.705 0.001 1.088 0.001 266.463 0 482.475-216.011 482.475-482.475 0-60.18-11.018-117.787-31.147-170.913zM199.111 675.556c-78.547 0-142.222 63.675-142.222 142.222s63.675 142.222 142.222 142.222c78.547 0 142.222-63.675 142.222-142.222s-63.675-142.222-142.222-142.222zM120.889 419.556c0.241-194.448 153.81-352.949 346.284-361.106 15.941-47.372 43.128-87.307 78.768-117.598-19.432-3.191-42.285-4.841-65.524-4.841-265.332 0-480.427 215.094-480.427 480.427 0 1.096 0.004 2.191 0.011 3.286 0.033 71.29 15.62 139.099 43.558 200.069 29.444-27.514 66.665-45.172 107.375-53.038-18.302-43.44-29.942-93.947-30.045-147.162zM711.111 277.333c78.547 0 142.222-63.675 142.222-142.222s-63.675-142.222-142.222-142.222c-78.547 0-142.222 63.675-142.222 142.222s63.675 142.222 142.222 142.222z" />
<glyph unicode="&#xe936;" horiz-adv-x="1218" d="M1207.784-26.502c-13.173-22.572-37.275-37.498-64.864-37.498-0.031 0-0.061 0-0.092 0h-1069.636c-0.026 0-0.056 0-0.087 0-27.589 0-51.691 14.926-64.672 37.143-6.329 10.83-9.953 23.422-9.953 36.86 0 14.11 3.996 27.288 10.917 38.462l534.64 875.841c13.456 21.581 37.064 35.728 63.976 35.728s50.52-14.148 63.791-35.411l534.956-876.471c6.757-10.871 10.762-24.063 10.762-38.19 0-13.422-3.615-25.999-9.925-36.812zM681.155 569.905h-97.524v-341.333h97.524v341.333zM632.393 179.81c-26.93 0-48.762-21.831-48.762-48.762s21.831-48.762 48.762-48.762c26.93 0 48.762 21.831 48.762 48.762s-21.831 48.762-48.762 48.762z" />
<glyph unicode="&#xe937;" horiz-adv-x="1218" d="M583.631 82.286v97.524h97.524v-97.524h-97.524zM583.631 569.905h97.524v-341.333h-97.524v341.333z" />
<glyph unicode="&#xe938;" glyph-name="Asset-2" horiz-adv-x="970" d="M485.053 960c-269.474 0-485.053-215.579-485.053-485.053v-53.895c0-32.337 10.779-64.674 21.558-97.011 21.558-37.726 48.505-70.063 80.842-86.232v-247.916c0-32.337 21.558-53.895 53.895-53.895h53.895v269.474h107.789v-269.474h107.789v269.474h107.789v-269.474h107.789v269.474h107.789v-269.474h53.895c32.337 0 53.895 21.558 53.895 53.895v247.916c37.726 21.558 64.674 53.895 80.842 86.232s21.558 64.674 26.947 97.011v53.895c5.389 269.474-210.189 485.053-479.663 485.053zM393.432 577.347l-37.726-37.726-59.284 59.284-59.284-59.284-37.726 37.726 59.284 59.284-59.284 59.284 37.726 37.726 59.284-59.284 59.284 59.284 37.726-37.726-59.284-59.284 59.284-59.284zM770.695 577.347l-37.726-37.726-59.284 59.284-59.284-59.284-37.726 37.726 59.284 59.284-59.284 59.284 37.726 37.726 59.284-59.284 59.284 59.284 37.726-37.726-59.284-59.284 59.284-59.284z" />
<glyph unicode="&#xe939;" glyph-name="vi" d="M994.202 685.619l-620.595-646.4-344.883 359.168c-17.693 18.702-28.571 44.010-28.571 71.859s10.878 53.157 28.617 71.908c17.283 18.285 41.769 29.697 68.921 29.697s51.638-11.412 68.924-29.701l206.941-215.597 482.714 502.938c17.322 18.348 41.81 29.77 68.966 29.77s51.645-11.422 68.923-29.724c17.768-18.762 28.667-44.099 28.667-71.982s-10.899-53.22-28.669-71.984z" />
<glyph unicode="&#xe93a;" glyph-name="x" horiz-adv-x="1042" d="M1013.333 781.913l-347.806-347.806 329.027-329.027c17.859-17.859 28.906-42.532 28.906-69.785 0-54.505-44.185-98.691-98.691-98.691-27.253 0-51.925 11.046-69.785 28.906l-329.027 329.027-317.912-317.912c-17.213-16.641-40.69-26.896-66.563-26.896-52.917 0-95.814 42.898-95.814 95.814 0 25.873 10.255 49.351 26.922 66.59l317.886 317.885-360.965 361.028c-17.859 17.859-28.906 42.532-28.906 69.785 0 54.505 44.185 98.691 98.691 98.691 27.253 0 51.925-11.046 69.785-28.906l360.965-360.965 347.806 347.806c17.339 17.331 41.288 28.050 67.741 28.050 52.921 0 95.822-42.901 95.822-95.822 0-26.469-10.732-50.431-28.081-67.772z" />
<glyph unicode="&#xe93b;" glyph-name="Asset-4" horiz-adv-x="1225" d="M1111.477 553.487c-61.749 277.869-339.618 447.678-617.487 385.93-190.392-41.166-339.618-190.392-385.93-380.784l-108.060 113.206c0 0 0-463.116 190.392-473.407 118.352-159.518 324.181-262.432 416.804-262.432s298.452 108.060 421.95 267.578v-5.146c195.538 0 195.538 473.407 195.538 473.407l-113.206-118.352zM612.342 368.241l123.497 51.457c10.291 5.146 25.729 0 25.729-10.291 0 0 0 0 0-5.146 5.146-10.291 0-25.729-15.437-30.874l-123.497-51.457c-5.146 0-15.437 0-20.583 0l-123.497 51.457c-15.437 5.146-20.583 20.583-15.437 30.874s15.437 20.583 25.729 15.437c0 0 0 0 5.146 0l118.352-51.457zM298.452 548.342v25.729c0 72.040 56.603 128.643 128.643 128.643s128.643-56.603 128.643-128.643v-25.729c0-30.874-20.583-51.457-51.457-51.457h-154.372c-25.729 0-51.457 20.583-51.457 51.457zM401.367 136.683c205.829 154.372 411.658 0 411.658 0h-411.658zM915.94 548.342c0-30.874-20.583-51.457-51.457-51.457h-154.372c-30.874 0-51.457 20.583-51.457 51.457v25.729c0 72.040 56.603 128.643 128.643 128.643s128.643-56.603 128.643-128.643v-25.729z" />
<glyph unicode="&#xe93c;" glyph-name="Asset-5" horiz-adv-x="1034" d="M519.797 960c-285.888 0-519.797-233.909-519.797-519.797 0-161.137 103.959-343.066 228.711-467.817 41.584-36.386 98.761-46.782 145.543-25.99s98.761 25.99 145.543 25.99c46.782 0 93.563-10.396 140.345-25.99 51.98-20.792 109.157-10.396 145.543 25.99 129.949 124.751 228.711 306.68 228.711 467.817 0 285.888-228.711 519.797-514.599 519.797zM207.919 570.152c0 72.772 57.178 129.949 129.949 129.949s129.949-57.178 129.949-129.949c0-41.584-31.188-77.97-77.97-77.97 0 0 0 0-5.198 0h-103.959c-41.584 0-72.772 36.386-72.772 77.97 0 0 0 0 0 0zM753.706 232.284h-77.97c0 0-25.99-103.959-51.98-103.959s-51.98 103.959-51.98 103.959h-103.959c0 0-25.99-103.959-51.98-103.959s-51.98 103.959-51.98 103.959h-77.97c-15.594 0-25.99 10.396-25.99 25.99s10.396 25.99 25.99 25.99h467.817c15.594 0 25.99-10.396 25.99-25.99s-15.594-25.99-25.99-25.99zM753.706 492.183h-103.959c-46.782 0-77.97 36.386-77.97 77.97 0 0 0 0 0 0 0 72.772 57.178 129.949 129.949 129.949s129.949-57.178 129.949-129.949c0-41.584-31.188-77.97-77.97-77.97 0 0 0 0 0 0z" />
<glyph unicode="&#xe93d;" glyph-name="site_config_platform" horiz-adv-x="967" d="M937.074 253.042c-22.705 42.96-55.856 77.735-96.162 101.752 2.925 21.008 5.27 44.412 5.27 68.365 0 198.253-160.716 358.969-358.969 358.969-1.286 0-2.57-0.007-3.853-0.020-10.897 0.002-21.308-2.274-32.174-3.241 2.195 11.52 3.61 24.937 3.92 38.628-0.339 30.19-5.816 58.71-15.581 85.153 14.903-0.446 29.353 0.465 44.030 0.465 0.323 0.001 0.705 0.001 1.088 0.001 266.463 0 482.475-216.011 482.475-482.475 0-60.18-11.018-117.787-31.147-170.913zM199.111 675.556c-78.547 0-142.222 63.675-142.222 142.222s63.675 142.222 142.222 142.222c78.547 0 142.222-63.675 142.222-142.222s-63.675-142.222-142.222-142.222zM120.889 419.556c0.241-194.448 153.81-352.949 346.284-361.106 15.941-47.372 43.128-87.307 78.768-117.598-19.432-3.191-42.285-4.841-65.524-4.841-265.332 0-480.427 215.094-480.427 480.427 0 1.096 0.004 2.191 0.011 3.286 0.033 71.29 15.62 139.099 43.558 200.069 29.444-27.514 66.665-45.172 107.375-53.038-18.302-43.44-29.942-93.947-30.045-147.162zM711.111 277.333c78.547 0 142.222-63.675 142.222-142.222s-63.675-142.222-142.222-142.222c-78.547 0-142.222 63.675-142.222 142.222s63.675 142.222 142.222 142.222z" />
<glyph unicode="&#xe93e;" glyph-name="APP_QUATA" horiz-adv-x="768" d="M512 214.315v141.184c77.060 45.087 128 127.446 128 221.703 0 141.385-114.615 256-256 256s-256-114.615-256-256c0-94.257 50.94-176.616 126.792-221.048l1.208-141.838c-150.42 54.308-256 195.844-256 362.039 0 212.077 171.923 384 384 384s384-171.923 384-384c0-166.195-105.58-307.731-253.326-361.193zM256 576c0 70.692 57.308 128 128 128s128-57.308 128-128c0-70.692-57.308-128-128-128s-128 57.308-128 128zM298.667 55.125v307.541h170.667v-307.541c50.773-11.093 85.333-31.488 85.333-55.125 0-35.328-76.373-64-170.667-64s-170.667 28.672-170.667 64c0 23.637 34.56 44.032 85.333 55.125z" />
<glyph unicode="&#xe93f;" glyph-name="MYSQL_ICON" horiz-adv-x="1112" d="M1048.042 193.647c-84.672-154.484-246.167-257.477-431.718-257.477-4.747 0-9.479 0.067-14.193 0.201 56.769 27.482 101.68 70.458 130.819 123.346 24.74 46.181 38.823 99.232 38.823 155.572 0 118.885-62.706 223.123-156.847 281.447-76.059 47.121-125.027 128.619-125.027 221.553 0 44.007 10.98 85.449 30.349 121.737 39.39 71.068 115.36 119.321 202.599 119.321 43.785 0 84.732-12.155 119.649-33.275 0.746-0.488 2.972-1.556 4.753-2.625 159.726-98.925 264.532-273.212 264.532-471.977 0-94.299-23.589-183.088-65.189-260.788zM379.325 834.76c-23.988-44.665-38.082-97.728-38.082-154.082 0-118.882 62.72-223.115 156.875-281.414 76.063-47.131 125.031-128.637 125.031-221.58 0-44.013-10.981-85.462-30.353-121.755-39.501-70.998-115.491-119.182-202.734-119.182-43.723 0-84.619 12.102-119.522 33.138-1.249 0.538-3.144 1.62-4.967 2.802-159.511 98.778-264.324 273.062-264.324 471.826 0 94.306 23.595 183.101 65.203 260.804 83.217 151.494 244.692 254.469 430.218 254.469 4.765 0 9.513-0.068 14.245-0.203-56.774-27.458-101.687-70.422-130.821-123.302z" />
<glyph unicode="&#xe940;" glyph-name="POSTGRE-SQL_ICON" horiz-adv-x="860" d="M203.981 780.268l-163.021 0.205 203.981 168.264 0.41-168.714zM781.107 822.456c-17.203 30.474-108.134 65.536-155.238 65.536h-121.651c-27.152 43.455-74.727 71.935-128.954 71.935-0.601 0-1.2-0.003-1.799-0.010-91.659 0.001-85.515-41.655-85.515-77.25v-143.852l-41.779-44.728h-192.102c-33.085-26.207-54.119-66.379-54.119-111.464 0-1.35 0.019-2.695 0.056-4.036-0.004-78.65 24.162-353.328 185.135-378.723 190.874-30.106 223.642 60.211 223.642 71.066 0 45.752 1.229 115.057 1.229 115.057s55.706-108.749 140.083-108.749 133.53-49.152 133.53-100.188v-94.208c0-0.004 0-0.009 0-0.014 0-30.452-22.997-55.532-52.571-58.822l-105.944-0.024c-19.405 15.881-32.379 38.992-34.788 65.161-0.028 38.508 16.766 48.871 36.836 48.871 12.726-0.019 25.236-0.867 37.5-2.492l-1.455 80.316s-159.744 1.065-159.744-123.535 83.558-156.59 150.323-156.59h109.363s197.018 25.846 197.018 422.42-61.44 433.93-79.053 464.323zM593.92 673.28c33.932 0 61.44-27.508 61.44-61.44s-27.508-61.44-61.44-61.44c-33.932 0-61.44 27.508-61.44 61.44s27.508 61.44 61.44 61.44z" />
</font>
</defs>
</svg>
