<svg 
 xmlns="http://www.w3.org/2000/svg"
 xmlns:xlink="http://www.w3.org/1999/xlink"
 width="14px" height="14px">
<path fill-rule="evenodd"  fill="rgb(71, 157, 218)"
 d="M13.000,14.000 L1.000,14.000 C0.447,14.000 -0.000,13.552 -0.000,13.000 L-0.000,9.000 C-0.000,8.448 0.447,8.000 1.000,8.000 L13.000,8.000 C13.552,8.000 14.000,8.448 14.000,9.000 L14.000,13.000 C14.000,13.552 13.552,14.000 13.000,14.000 ZM13.000,6.000 L1.000,6.000 C0.447,6.000 -0.000,5.552 -0.000,5.000 L-0.000,1.000 C-0.000,0.448 0.447,-0.000 1.000,-0.000 L13.000,-0.000 C13.552,-0.000 14.000,0.448 14.000,1.000 L14.000,5.000 C14.000,5.552 13.552,6.000 13.000,6.000 Z"/>
</svg>