<?xml version="1.0" standalone="no"?>
<!DOCTYPE svg PUBLIC "-//W3C//DTD SVG 1.1//EN" "http://www.w3.org/Graphics/SVG/1.1/DTD/svg11.dtd" >
<svg xmlns="http://www.w3.org/2000/svg">
<metadata></metadata>
<defs>
<font id="nexa_scriptfree" horiz-adv-x="1124" >
<font-face units-per-em="2048" ascent="1638" descent="-410" />
<missing-glyph horiz-adv-x="471" />
<glyph horiz-adv-x="0" />
<glyph horiz-adv-x="682" />
<glyph unicode=" "  horiz-adv-x="471" />
<glyph unicode="&#x09;" horiz-adv-x="471" />
<glyph unicode="&#xa0;" horiz-adv-x="471" />
<glyph unicode="!" horiz-adv-x="811" d="M92 119q5 59 51 101t107 42q65 0 102 -41.5t31 -101.5q-6 -61 -50.5 -103.5t-103.5 -42.5q-61 0 -100.5 42.5t-36.5 103.5zM190 453q193 714 256 915q14 47 120 47q96 1 161 -31q42 -21 33 -45q-17 -49 -135 -387t-181 -503q-20 -51 -115 -52q-77 -1 -121 27 q-22 14 -18 29z" />
<glyph unicode="&#x22;" horiz-adv-x="841" d="M207 1071l61 281q12 42 77 55q61 12 96 -13q25 -17 16 -46l-80 -289q-9 -29 -54.5 -40t-84 3.5t-31.5 48.5zM532 1071l62 281q12 42 77 55q61 12 96 -13q24 -17 15 -46l-80 -289q-9 -29 -54.5 -40t-84 3.5t-31.5 48.5z" />
<glyph unicode="#" horiz-adv-x="1363" d="M131 491q-1 52 31 93q22 28 49 28h123l53 185h-141q-46 0 -49 50q-3 49 30 91q23 29 49 29h158l78 270q13 45 97 51q73 5 116 -20q23 -14 18 -31l-77 -270h163l76 266q14 48 98 55q71 6 113 -19q24 -14 19 -32l-78 -270h121q34 0 35 -49q1 -52 -31 -93q-22 -28 -49 -28 h-123l-54 -185h142q46 0 49 -50q3 -49 -31 -91q-23 -29 -49 -29h-158l-78 -270q-13 -45 -97 -51q-73 -5 -116 20q-23 14 -18 31l78 270h-164l-76 -266q-14 -48 -97 -55q-71 -6 -114 19q-23 14 -18 32l78 270h-121q-34 0 -35 49zM563 612h164l53 185h-164z" />
<glyph unicode="'" horiz-adv-x="444" d="M164 1071l61 281q12 42 77 55q61 12 96 -13q25 -17 16 -46l-80 -289q-9 -29 -54.5 -40t-84 3.5t-31.5 48.5z" />
<glyph unicode="(" horiz-adv-x="954" d="M194 340q1 123 23 246q31 173 111 346t191 303.5t224 175.5q28 11 82 -11t85.5 -59t4.5 -63q-48 -44 -96 -101.5t-104 -142.5t-103 -198.5t-73 -237.5q-27 -128 -30 -253.5t15.5 -226.5t46.5 -180t64 -137q20 -32 -24 -72.5t-104 -59.5t-79 -1q-84 81 -138.5 192.5 t-75.5 234t-20 245.5z" />
<glyph unicode=")" horiz-adv-x="952" d="M47 -199q48 44 96 101.5t104 142.5t103.5 198.5t73.5 237.5q27 128 30 253.5t-15.5 226.5t-46.5 180t-64 137q-20 32 24 72.5t104 59.5t79 1q84 -81 138 -192.5t75 -233.5t20 -245t-23 -246q-31 -173 -111 -346t-191 -304t-224 -176q-28 -11 -82 11t-85.5 59t-4.5 63z " />
<glyph unicode="*" horiz-adv-x="641" d="M139 1020.5q-6 29.5 15 46.5l106 68l-92 65q-26 17 -15.5 50t38.5 47.5t55 -1.5l61 -45v74q0 34 34 47t66 -1t27 -46l-6 -74l68 45q32 26 62 -6q28 -29 20 -65q-4 -20 -21 -31l-94 -59l90 -68q12 -9 12 -26t-10 -33t-24.5 -29.5t-30 -16t-27.5 6.5l-61 45v-80 q0 -26 -34.5 -37t-67.5 -1t-29 36l8 82l-70 -45q-21 -17 -47.5 2.5t-32.5 49z" />
<glyph unicode="," horiz-adv-x="704" d="M133 -254q0 15 12 25q36 32 82.5 93t65.5 118q-42 15 -66.5 52.5t-21.5 84.5q5 59 50.5 100.5t106.5 42.5q64 1 102 -41.5t36 -114.5q-3 -118 -72 -237t-172 -188q-42 -28 -89 6q-35 27 -34 59z" />
<glyph unicode="-" horiz-adv-x="913" d="M205.5 500q-9.5 49 14.5 98t67 49h405q42 0 54.5 -49t-10 -98t-64.5 -49h-420q-37 0 -46.5 49z" />
<glyph unicode="." horiz-adv-x="589" d="M92 119q5 59 51 101t107 42q65 0 102 -41.5t31 -101.5q-6 -61 -50.5 -103.5t-103.5 -42.5q-61 0 -100.5 42.5t-36.5 103.5z" />
<glyph unicode="/" horiz-adv-x="1079" d="M190 68q41 80 270.5 618t321.5 700q21 38 109 31q82 -7 125 -42q30 -25 14 -52q-81 -138 -297.5 -653t-288.5 -647q-20 -37 -107 -39q-86 -2 -131 30q-32 23 -16 54z" />
<glyph unicode="0" horiz-adv-x="1165" d="M113 616q17 114 53 222t93.5 205t129.5 169.5t166.5 115.5t198.5 44q217 0 306.5 -160.5t43.5 -470.5q-21 -144 -74 -276.5t-133 -240.5t-193.5 -173.5t-242.5 -66.5q-217 0 -305.5 160.5t-42.5 471.5zM405.5 308q2.5 -58 21 -93t52.5 -35q51 -1 102.5 60.5t91.5 158 t70.5 199t47.5 197.5q13 69 18 132.5t2 121.5t-21.5 92.5t-52.5 34.5q-51 1 -102.5 -60t-91.5 -157.5t-70 -198.5t-47 -197q-13 -70 -18 -133.5t-2.5 -121.5z" />
<glyph unicode="1" horiz-adv-x="950" d="M120 835q-7 48 13 70q71 43 128.5 82t127 93.5t131 120.5t111.5 138q28 40 135 40q97 0 141 -29q20 -13 15 -29q-79 -246 -191.5 -657.5t-157.5 -624.5q-14 -43 -109 -61q-96 -19 -161 5q-51 19 -41 56q56 233 82 337.5t84.5 293.5t112.5 303q-30 -60 -113.5 -139.5 t-142.5 -100.5q-59 -22 -108.5 16t-56.5 86z" />
<glyph unicode="2" horiz-adv-x="1032" d="M43.5 123q8.5 55 54.5 82q188 112 355 321t219 404q31 125 6 186.5t-100 63.5q-65 2 -111.5 -56t-40.5 -161q3 -29 -56 -46.5t-120.5 -12t-65.5 33.5q-13 83 5.5 154t60 121.5t100 86.5t125.5 53t137 17q439 0 365 -477q-14 -90 -64.5 -186.5t-127 -187t-159 -169 t-177.5 -153.5q156 15 401 6q47 -2 50 -57t-27 -109t-62 -53q-435 19 -668 2q-50 -4 -79 39t-20.5 98z" />
<glyph unicode="3" horiz-adv-x="1036" d="M70 395q5 30 33 48.5t65 20t72 -7t56.5 -33.5t16.5 -58q-9 -67 13 -114t61.5 -61t83 -7t82 47.5t53.5 103.5q13 71 9.5 125t-47.5 88t-130 39q-25 2 -39.5 22t-15.5 47.5t4.5 54.5t20 45t30.5 17q215 -8 252 246q15 101 -46 144q-50 35 -112 7q-72 -31 -96 -122 q-10 -36 -10 -78q0 -27 -58 -50.5t-117.5 -17.5t-62.5 51q-15 208 128 327q114 94 280 98q162 3 277 -81q134 -99 128 -270q0 -24 -4 -49q-16 -110 -97 -197t-193 -96q123 -28 182 -129.5t31 -241.5q-34 -174 -192 -266q-139 -81 -311 -67q-167 14 -267 113 q-118 116 -80 302z" />
<glyph unicode="4" horiz-adv-x="1210" d="M57 352q-7 41 21 84q74 98 337.5 431.5t350.5 461.5q31 45 149 46q103 0 158 -31q27 -15 23 -33q-112 -507 -166 -842q102 0 145 -4q20 -1 34.5 -21t18.5 -48t1 -55.5t-20 -46.5t-44 -18q-141 0 -172 -2q-2 -11 -29 -213q-4 -40 -83 -63q-83 -23 -149 -5q-54 14 -48 52 q6 37 17 109.5t17 109.5q-292 -12 -442 -12q-43 0 -77.5 29.5t-41.5 70.5zM389 455q43 2 128 6t128 6q83 366 123 514q-119 -186 -379 -526z" />
<glyph unicode="5" horiz-adv-x="1050" d="M71 283q-3 62 9 127q6 25 34 39t64 13t70.5 -9.5t56 -30t17.5 -47.5q-14 -87 22 -139.5t111 -53.5q80 -1 128 60t68 166q9 46 11 86.5t-2.5 81t-23 69.5t-48 47t-79 17.5t-114.5 -21.5q-22 -7 -55 -7.5t-68 6.5t-55.5 32.5t-11.5 64.5q90 428 96 457q14 66 60.5 96.5 t140.5 30.5q330 0 391 2q43 1 62.5 -30t15.5 -69t-20 -71.5t-36 -36.5q-49 -7 -106 -7.5t-133 2t-125 1.5q-32 -110 -59 -254q88 21 158.5 18.5t125.5 -24t94.5 -59.5t64.5 -87t36.5 -107t10 -120t-14.5 -125q-37 -176 -178.5 -297.5t-335.5 -121.5q-88 -1 -159.5 23 t-116.5 65t-74 96t-32 117z" />
<glyph unicode="6" horiz-adv-x="1148" d="M117 463q7 112 30.5 227t73 240t117.5 221t173 159t232 64q174 1 268.5 -94.5t88.5 -230.5q-2 -37 -59 -55t-115.5 -8.5t-63.5 38.5q-14 86 -45 120t-82 32q-54 -1 -107 -53.5t-93 -132.5t-70 -179q50 42 115.5 65t126.5 25q72 1 129.5 -24t93 -69t58.5 -102.5 t25.5 -124.5t-7.5 -135q-16 -97 -57 -179.5t-104 -146.5t-153 -100t-198 -36q-112 -2 -191 36t-120 107t-56.5 152.5t-9.5 183.5zM407 313.5q3 -62.5 26 -97t67 -36.5q70 -3 126 74.5t81 212.5q21 100 0 171t-80 71q-145 0 -213 -244q-10 -89 -7 -151.5z" />
<glyph unicode="7" horiz-adv-x="890" d="M121 1203.5q0 38.5 16 76t38.5 66t37.5 24.5q86 -23 166.5 -33t152.5 -6t114 8.5t103 17t68 13.5q46 8 92 -6.5t69 -40t9 -47.5q-174 -307 -555 -1231q-5 -26 -39.5 -42.5t-79.5 -18t-88.5 5.5t-71.5 28.5t-24 51.5q69 184 204.5 501t254.5 549q-143 -24 -259 -16 t-184 47q-24 14 -24 52.5z" />
<glyph unicode="8" horiz-adv-x="1083" d="M63 356q18 230 338 408q-86 84 -123 156.5t-20 175.5q25 154 171 230q130 68 292 47q158 -20 247 -113q92 -98 64 -240q-33 -170 -262 -283q260 -174 227 -391q-11 -75 -49.5 -140t-102.5 -116.5t-161 -80t-215 -27.5q-208 4 -314 105t-92 269zM373 367q-9 -76 27 -131 t100 -54q173 3 188 193q5 73 -27.5 145.5t-91.5 116.5q-76 -41 -131 -115t-65 -155zM549 1069q-9 -50 6.5 -103t56.5 -96q118 95 136 177q18 81 -33 115q-42 29 -94 5q-58 -26 -72 -98z" />
<glyph unicode="9" horiz-adv-x="1148" d="M66 264q3 38 55 66.5t97.5 26.5t57.5 -29q14 -84 51 -116t91 -30q84 1 162 105t106 248q-34 -38 -91 -60t-112 -22q-83 0 -150.5 27t-109 72t-68.5 105.5t-30 127t6 135.5q34 199 174 327t354 127q112 -1 191.5 -39.5t121.5 -106.5t58 -150.5t10 -182.5 q-5 -78 -18 -158.5t-38 -171.5t-59 -172t-85 -156.5t-113 -130.5t-145 -88t-179 -34q-87 -1 -156 24.5t-108.5 67.5t-58 90.5t-14.5 97.5zM430 899q-19 -102 8.5 -176t87.5 -74q83 0 133.5 63t83.5 187q17 134 -5 201t-85 78q-75 12 -136.5 -65t-86.5 -214z" />
<glyph unicode=":" horiz-adv-x="768" d="M195 119q5 59 50.5 101t106.5 42q64 0 101 -41.5t32 -101.5t-49 -103t-104 -43q-61 0 -100.5 42.5t-36.5 103.5zM272 731q5 59 51 101t107 42q64 0 101 -41.5t32 -101.5t-49 -102.5t-104 -42.5q-61 0 -101 42.5t-37 102.5z" />
<glyph unicode=";" horiz-adv-x="735" d="M92 -256q0 15 12 25q36 32 82.5 93t65.5 118q-42 15 -66.5 52.5t-21.5 84.5q4 58 50 99.5t108 43.5q64 1 101.5 -41.5t35.5 -114.5q-3 -118 -72 -237.5t-172 -188.5q-42 -28 -89 7q-36 27 -34 59zM240 729q5 59 50.5 101t106.5 42q65 0 102 -41.5t31 -101.5 q-6 -61 -50 -103t-103 -42q-61 0 -100.5 42.5t-36.5 102.5z" />
<glyph unicode="?" horiz-adv-x="1081" d="M209 1020q-1 204 108.5 297.5t303.5 95.5q163 2 267 -74.5t105 -212.5q1 -28 -3.5 -56t-10 -51t-19.5 -50t-23 -44t-30 -44t-31 -39.5t-37 -39.5l-36 -36t-39 -37.5t-37 -34.5q-51 -50 -79.5 -81.5t-54.5 -78t-30 -90.5q-4 -37 -63.5 -50.5t-117.5 3t-58 54.5 q-1 97 43.5 176t128.5 168q10 11 40 42.5t42 45t35.5 42t34 47.5t24 46t19 53.5t5.5 54.5q0 46 -18.5 72t-67.5 29q-60 3 -106.5 -50.5t-57.5 -168.5q-2 -25 -27.5 -41t-60 -18t-68.5 4t-57.5 24t-23.5 43zM219 119q5 59 51 101t107 42q65 0 102 -41.5t31 -101.5 q-6 -61 -50.5 -103.5t-103.5 -42.5q-61 0 -100.5 42.5t-36.5 103.5z" />
<glyph unicode="A" d="M2 311q15 116 73 218.5t138 171t168.5 112.5t173.5 57q41 8 93 8h34q73 -4 142.5 -16t137.5 -44t113 -77q8 -21 -13.5 -60t-53.5 -67.5t-50 -23.5q-60 48 -144 72q-69 20 -136 21q-14 0 -27 -1q-92 -4 -173 -76t-120 -178q-32 -90 -36 -154q0 -8 -1 -16q0 -51 21 -68 q16 -15 35 -15q20 0 42 16q44 32 86 105.5t74.5 144t57.5 137.5q32 19 79 19q9 0 18 -1q59 -4 116 -26t70 -46q-49 -162 -56 -192q-13 -57 -13 -93q0 -18 3 -31q10 -38 43 -36q49 2 129 75t127 169q10 12 31.5 5t41.5 -25q16 -14 16 -22q0 -3 -1 -5q-96 -178 -226 -281.5 t-276 -103.5q-81 0 -115 65q-26 48 -25 123q0 26 3 55q-27 -50 -55 -88t-69 -75.5t-96 -58t-122 -21.5h-9q-37 0 -71 7q-38 8 -76 30t-64 57.5t-38 95.5q-6 30 -5 65q0 34 5 72z" />
<glyph unicode="B" horiz-adv-x="1105" d="M26 292q-1 24 -1 47q0 63 6 125q9 86 35.5 204t49.5 203.5t61 204.5t56.5 172.5t49.5 140.5q29 16 83 19q16 1 32 1q38 0 74 -5q52 -7 92.5 -24.5t47.5 -40.5q-24 -71 -47 -144t-35.5 -114.5t-40.5 -139t-40 -138.5q66 39 147 53q38 7 74 6q42 0 82 -8q98 -23 153 -96.5 t61 -167.5q1 -14 1 -28q0 -82 -27 -168q-31 -102 -94 -185q188 0 289 209q9 12 31 6q22 -8 42 -26q16 -14 16 -24q0 -3 -1 -5q-34 -66 -74.5 -116t-83 -79.5t-84 -48t-86.5 -24.5t-82 -6t-78 5q-150 -116 -350 -116q-256 0 -332 168q-23 54 -27 140zM308 260q3 -36 21 -60 t50 -32q19 -5 35 -5q18 1 34 7q28 12 56 41q-10 20 -10 40q0 25 16 53q28 48 78 50q19 47 32 98q14 50 20 104q1 13 1 25q1 38 -13 66q-18 37 -59 43q-8 1 -16 1q-68 0 -160 -77q-20 -50 -34.5 -92t-29.5 -93t-19 -91q-3 -24 -3 -48q0 -15 1 -30z" />
<glyph unicode="C" horiz-adv-x="892" d="M23 375q2 100 44 191t113.5 159.5t175.5 108.5q101 39 218 38h6q85 -1 145 -23.5t87.5 -57t36.5 -78.5q4 -21 5 -42q0 -23 -6 -45q-10 -42 -31 -81q-25 -35 -92 -51q-40 -10 -79 -10q-26 0 -50 4q-62 10 -72 44q43 89 43 123q0 7 -2 11q-4 13 -18 14h-6q-54 0 -110 -78 q-59 -83 -69 -209q-1 -14 -1 -28q0 -91 53 -141q56 -53 145 -52h16q233 15 347 246q9 12 30.5 4.5t41.5 -25.5q16 -14 17 -22q0 -2 -1 -4q-60 -115 -133.5 -194.5t-154 -120.5t-160.5 -57q-67 -13 -141 -13h-28q-161 6 -267 118q-103 108 -103 262v9z" />
<glyph unicode="D" horiz-adv-x="1140" d="M6 181q-5 29 -5.5 60t5.5 65q10 67 34.5 134.5t65 132.5t91.5 117q107 112 243 154q112 35 225 35q24 0 48 -2q29 115 83.5 298.5t61.5 208.5q20 22 96 24q9 0 18 1q67 0 131 -17q72 -19 79 -51q-16 -60 -49.5 -168t-65 -211t-67 -222t-59.5 -217.5t-38 -180.5 q-9 -53 -9 -92q0 -20 2 -36q7 -44 36 -44h2q46 3 117.5 76.5t117.5 171.5q10 12 31.5 4.5t41.5 -25.5q16 -14 16 -23q0 -3 -1 -5q-95 -181 -220 -283t-267 -102q-86 0 -134 64q-39 52 -40 140q0 19 2 39q-27 -50 -55 -88t-69 -75.5t-96 -58t-122 -21.5h-6q-72 0 -124 24 q-54 25 -82 70t-38 103zM314 235q4 -45 36 -57q8 -3 16 -3q30 1 72 37q53 46 107 148q47 85 110 322q-147 -4 -245 -152q-22 -35 -44 -87q-24 -51 -40 -107q-13 -44 -13 -81q0 -10 1 -20z" />
<glyph unicode="E" horiz-adv-x="978" d="M27 397q21 213 175 345q151 129 368 128h10q77 -1 138 -23.5t96 -58.5q36 -38 53 -84q13 -36 13 -74q0 -11 -1 -23q-5 -51 -31 -99q-53 -108 -185 -158q-87 -32 -191 -33q-55 0 -114 9q14 -155 242 -158h8q44 0 91 10q51 11 107.5 37.5t109 78.5t90.5 124q10 12 32 4 q22 -6 42 -24q16 -14 17 -23q0 -2 -1 -4q-116 -211 -264 -302q-145 -89 -335 -89h-8q-128 1 -223.5 35t-148.5 93t-75 132q-17 54 -17 114q0 21 2 43zM369 457h10q75 1 128 41q56 44 71 100q6 18 6 33q0 11 -3 20q-7 22 -30 25q-6 1 -11 1q-49 -1 -96 -57q-52 -62 -75 -163z " />
<glyph unicode="F" horiz-adv-x="833" d="M-106 -217q14 194 149 694q160 579 315 774q40 51 88 88t96 55t98 24q16 2 32 3q32 -1 62 -9q44 -12 83.5 -34t67.5 -60t45.5 -86t17.5 -109.5t-16 -131.5q-39 -158 -204 -307.5t-368 -216.5q-25 -88 -49 -180q29 -17 76 -33t115 -24q28 -3 55 -3q39 -1 77 5 q64 10 127 57t101 129q10 12 31 4q21 -6 41 -24q17 -15 17 -24q0 -2 -1 -3q-33 -69 -76.5 -119.5t-86.5 -78.5t-94.5 -43.5t-94.5 -18.5q-22 -2 -45 -1.5t-47 1.5q97 -143 97 -308q0 -161 -93 -272q-118 -137 -326 -137h-18q-170 4 -228 100q-47 77 -47 215q0 35 3 74z M176 -311v-13q0 -54 22 -76q12 -11 26 -11q16 -1 34 13q34 26 57 87q22 59 25 133v19q0 65 -18 131q-21 76 -64 124q-24 -79 -51 -202.5t-31 -204.5zM403 653q96 53 178.5 181.5t110.5 238.5q9 40 9 71.5t-12 45.5q-11 16 -27 16h-1q-15 0 -37 -20t-44 -60q-41 -80 -92 -215 t-85 -258z" />
<glyph unicode="G" horiz-adv-x="1116" d="M3 203q-4 27 -4 55q0 39 7 80q13 69 45.5 141t81.5 133q81 105 197.5 172.5t226.5 83.5q54 8 111 8q82 0 170 -16q149 -29 252 -119q2 -6 2 -13q0 -28 -40 -80q-45 -59 -73 -59q-3 0 -6 1q-60 50 -149 74q-73 19 -143 19q-15 0 -30 -1q-91 -4 -167.5 -74.5t-121.5 -179.5 q-26 -64 -36 -116q-5 -32 -5 -55q0 -16 3 -29q6 -31 24 -44q12 -8 27 -8q29 0 68 30q60 45 114 154q37 73 94 218q17 17 63 18q5 1 10 1q41 0 81 -10q46 -11 84.5 -29t44.5 -36q-36 -117 -76.5 -277.5t-54.5 -211.5q101 42 175.5 128.5t168.5 258.5q9 10 31 3t42 -25 q15 -14 15 -24q0 -4 -2 -7q-120 -217 -221.5 -322.5t-249.5 -163.5q-60 -186 -92 -252q-71 -147 -188 -200q-82 -37 -199 -37q-129 0 -205 66q-64 54 -64 140q0 17 2 35q7 48 26.5 88t43.5 68t64.5 52.5t74 39.5t88 30t90.5 22.5t97 19.5q49 135 82 233q-121 -200 -322 -202 h-5q-74 0 -129 28q-56 28 -85 77t-38 114zM279 -326q-9 -22 -9 -39q0 -26 20 -40q14 -10 30 -10q20 0 43 15q40 25 63 83q16 48 33 116q-71 -20 -118.5 -54t-61.5 -71z" />
<glyph unicode="H" horiz-adv-x="1081" d="M-78 37q169 635 385 1349q21 14 61 20q24 4 51 4q17 0 35 -2q45 -4 86.5 -12.5t67.5 -24.5t25 -34q-98 -294 -176 -596q181 136 315 136q87 0 135 -35t53 -96q1 -11 1 -22q0 -53 -19 -120q-7 -23 -22.5 -65.5t-28.5 -80t-27.5 -82.5t-21 -80t-8.5 -65t9.5 -45.5 t35.5 -13.5q49 3 118.5 77.5t112.5 168.5q10 12 32 4q22 -7 42 -25q16 -14 15 -23q0 -3 -1 -5q-197 -366 -467 -385q-17 -1 -32 -1q-53 -1 -93 13q-50 18 -71.5 51t-29.5 77q-4 20 -4 41q0 24 5 48q14 106 94 352q10 25 10 45q0 12 -4 21q-10 26 -49 22q-65 -7 -151 -86 q-117 -442 -144 -551q-5 -24 -106 -36q-47 -6 -86 -6q-65 0 -110 16q-39 14 -39 38q0 4 1 9z" />
<glyph unicode="I" horiz-adv-x="581" d="M-12 260q37 162 166 602q25 21 95 24h20q61 0 119 -15q68 -18 85 -50q-23 -81 -61.5 -206.5t-59.5 -199.5t-30 -124q-5 -36 -5 -61q0 -58 29 -58h3q57 0 133 68q78 70 128 178q9 12 30 4q22 -8 42 -26q16 -15 17 -23q0 -2 -1 -4q-39 -72 -84 -133.5t-105 -119t-136.5 -92 t-159.5 -38.5q-13 -1 -26 -1q-133 -1 -180 67q-31 45 -31 114q0 42 12 94zM229 1157q16 75 72 123q55 47 132 47h3q78 -1 118 -50q31 -38 31 -88q0 -15 -3 -32q-13 -74 -69.5 -122t-143.5 -48q-70 0 -112 51q-31 38 -31 86q0 16 3 33z" />
<glyph unicode="J" horiz-adv-x="573" d="M-541 -460q-8 29 -8 59q0 37 11 77q22 73 83 131q59 57 144 86t223 56q55 224 231 907q18 25 94 28q12 1 24 1q63 0 124 -16q72 -19 80 -50q-50 -157 -84 -272.5t-78 -280.5t-63 -235q108 50 192.5 139.5t171.5 249.5q9 10 30 1.5t41 -26.5q16 -14 16 -22q0 -2 -1 -4 q-113 -210 -225 -319t-266 -169q-24 -85 -44 -143t-49 -118t-63.5 -98t-81.5 -69.5t-108.5 -46t-139.5 -14.5h-5q-100 0 -164 42q-67 43 -85 106zM-288 -389q10 -23 38 -25h6q25 0 54 22q33 25 53 75q24 70 33 116q-68 -21 -117.5 -56t-63.5 -69q-8 -23 -8 -40q0 -13 5 -23z M225 1157q16 75 72 123q55 47 132 47h3q78 -1 118 -50q31 -38 31 -88q0 -16 -3 -32q-13 -74 -69.5 -122t-143.5 -48q-70 0 -112 51q-31 38 -31 86q0 16 3 33z" />
<glyph unicode="K" horiz-adv-x="1056" d="M-78 31q87 328 203.5 735.5t183.5 617.5q19 22 96 25h20q67 1 129 -17q72 -20 77 -55q-112 -361 -176 -602q107 97 239 129q48 11 89 11q72 0 124 -35q55 -40 64 -112q2 -16 2 -32q0 -55 -24 -110q-31 -71 -103.5 -131t-165.5 -78q0 -106 25 -157t81 -52h9q84 0 149 54 q68 56 143 198q9 10 30 2.5t41 -25.5q16 -14 17 -24q0 -2 -1 -4q-101 -194 -229 -289.5t-261 -97.5h-5q-138 0 -209 100q-53 75 -53 220q0 52 7 114q136 41 197 122q28 36 28 65q0 16 -9 29q-14 20 -46 25q-8 1 -16 1q-50 0 -108 -48q-66 -56 -87 -129q-9 -34 -31.5 -113 t-34.5 -123t-28 -109t-27 -120q-16 -23 -98 -35q-41 -6 -81.5 -6t-79.5 6q-79 12 -81 50z" />
<glyph unicode="L" horiz-adv-x="798" d="M38 464q8 98 34 222q49 234 149 419t238 263q66 36 139 44q18 2 35 2q53 0 99 -17q62 -23 110 -72t64 -124q8 -37 7 -79q0 -44 -8 -94q-40 -201 -187.5 -345.5t-379.5 -205.5q-18 -78 -18 -137q0 -170 151 -174q31 -1 62 4t71 21.5t76.5 43.5t76 74.5t72.5 110.5 q9 10 29.5 2t40.5 -26q17 -15 17 -22q0 -2 -1 -3q-40 -75 -77 -130.5t-89 -110.5t-108.5 -87.5t-132.5 -48.5q-51 -11 -108 -11q-28 0 -58 3q-93 9 -157 47t-98 99q-33 60 -45 147q-7 51 -7 107q0 38 3 78zM375 657q69 32 134.5 119t102.5 180q24 62 36 118q8 38 7 67 q1 14 -1 25q-6 36 -31 36q-57 0 -138 -215q-78 -214 -110 -330z" />
<glyph unicode="M" horiz-adv-x="1595" d="M-76 39q129 498 232 821q26 22 94 26q13 1 25 1q54 -1 107 -15q64 -18 81 -49q-12 -30 -33 -100q74 60 163.5 107t164.5 47q77 0 119 -38.5t41 -111.5q67 65 154.5 107.5t176.5 42.5q131 1 177 -73q26 -42 26 -102q0 -44 -14 -98q-7 -27 -20.5 -71t-25 -81t-23.5 -80.5 t-17.5 -77t-6.5 -62.5t10.5 -44.5t33.5 -15.5q43 0 112 66.5t123 179.5q10 12 32 4q22 -7 42 -25q16 -14 15 -23q0 -3 -1 -5q-30 -56 -60 -102t-75 -99.5t-92.5 -90.5t-110.5 -63.5t-131 -29.5q-13 -1 -26 -1q-128 0 -175 65q-33 45 -33 113q0 39 11 87q7 30 37.5 152 t40.5 167q5 21 5 37q0 49 -48 49h-4q-56 -3 -136 -75q-37 -126 -137 -560q-14 -24 -90 -34q-36 -5 -72 -5q-39 1 -79 7q-75 12 -88 45q39 183 133 553q8 32 -1.5 50t-39.5 15q-68 -7 -148 -84q-67 -226 -139 -542q-16 -27 -96 -39q-36 -5 -70 -5q-44 1 -86 9q-76 14 -78 51z " />
<glyph unicode="N" horiz-adv-x="1083" d="M-76 31q65 288 234 831q28 19 91 24q15 1 31 1q48 1 96 -11q64 -16 89 -51q-6 -17 -16.5 -51.5t-16.5 -50.5q39 30 67.5 50t75.5 48q47 29 95 43q44 14 84 13h6q116 -1 156 -74q23 -42 23 -101q0 -44 -13 -98q-9 -37 -42 -143.5t-44 -157.5q-8 -35 -8 -63q0 -17 3 -31 q8 -37 35 -37q55 0 124 72t118 174q10 12 31.5 4.5t41.5 -25.5q16 -14 16 -24q0 -2 -1 -4q-27 -52 -58.5 -100t-77 -101t-94.5 -91.5t-113 -64.5t-130 -28h-15q-137 0 -185 69q-30 44 -30 109q0 43 13 94q62 243 76 309q7 25 7 43q1 13 -3 22q-8 23 -49 17q-57 -8 -146 -80 q-27 -87 -49.5 -173.5t-50.5 -206t-41 -169.5q-17 -24 -93 -34q-35 -5 -71 -5q-40 0 -80 6q-74 12 -86 46z" />
<glyph unicode="O" horiz-adv-x="1095" d="M12 260q-1 16 -1 33q0 64 20 143q51 214 204 328q150 113 344 113h7q138 -1 226 -63q89 -60 116 -156q15 -53 15 -114q1 -48 -9 -100q-22 -118 -92 -231q11 -1 22 -1q64 0 130 45q78 53 130 161q10 12 32 6q22 -8 42 -26q15 -14 15 -24q0 -3 -1 -5q-35 -66 -74 -115.5 t-80.5 -78.5t-80.5 -47t-83.5 -23.5t-78.5 -5.5t-76 5q-151 -124 -368 -124q-75 0 -136 15t-111.5 48.5t-77.5 87t-34 129.5zM338 256q0 -20 4 -34q5 -14 14 -27.5t24.5 -20t37.5 -6.5q41 0 74 33q-12 22 -12 45q0 25 14 52q27 51 79 52q21 66 32 124.5t11 107t-19 76.5 q-18 28 -54 28h-2q-103 -3 -170 -244q-8 -29 -12.5 -47t-10.5 -46.5t-8 -46.5q-2 -24 -2 -46z" />
<glyph unicode="P" horiz-adv-x="1105" d="M-227 -551q188 755 383 1409q6 19 74 26q21 2 42 2q48 0 100 -11q74 -16 93 -54q-7 -21 -37 -96q86 73 168 113q68 33 148 33q16 0 32 -1q77 -7 125 -56q47 -50 61 -124q8 -46 9 -96q1 -30 -3 -64q-8 -86 -41 -170.5t-81 -148.5h10q90 -1 160 53q74 56 119 154q9 12 31 6 q22 -8 42 -26q16 -15 16 -24q0 -2 -1 -5q-36 -72 -81.5 -125t-91.5 -81.5t-96.5 -45.5t-96.5 -17t-91 4q-103 -99 -249 -116q-27 -3 -54 -3q-115 0 -211 60q-27 -101 -81.5 -320t-72.5 -290q-18 -26 -98 -35q-32 -4 -62 -4q-46 0 -90 8q-73 14 -75 45zM297 225 q41 -39 102 -49q18 -3 34 -3q38 0 63 17q-16 28 -16 55q0 9 2 19q7 36 34.5 61.5t54.5 18.5q55 128 57 212v6q0 78 -48 87q-7 1 -15 1q-28 0 -67 -16q-51 -21 -103 -65q-20 -65 -51 -178t-47 -166z" />
<glyph unicode="Q" horiz-adv-x="1105" d="M6 301q19 121 73 225t127.5 174t156.5 114.5t167 57.5q43 7 90 7q93 0 204 -27q167 -39 253 -137q1 -5 1 -10q0 -35 -36 -82q-42 -54 -77 -56q-61 55 -151 89q-82 30 -154 30h-13q-98 -4 -167.5 -73t-123.5 -205q-40 -101 -40 -161q0 -32 12 -52q12 -21 33 -21 q18 0 43 17q67 44 126 167q60 123 93 215q13 19 58 22q10 1 20 1q36 0 73 -8q48 -11 87.5 -30t43.5 -38q-86 -274 -153 -508q27 25 92.5 80t105 91t93 100.5t92.5 134.5q9 11 30.5 4.5t42.5 -24.5q16 -14 16 -24q0 -3 -1 -5q-29 -60 -74 -121.5t-73.5 -93.5t-90 -95 t-72.5 -75q-97 -102 -156.5 -190.5t-97.5 -205.5l-36 -151q-20 -29 -100 -37q-30 -4 -59 -4q-48 0 -93 9q-72 14 -74 42q14 54 40.5 165.5t39 155t37.5 121.5t56 143t75 142q-63 -96 -144.5 -145.5t-162.5 -51.5h-5q-52 0 -97 21q-47 22 -80.5 62t-47.5 103q-8 34 -8 71 q0 32 6 67z" />
<glyph unicode="R" horiz-adv-x="864" d="M-3 355q0 5 3 10q67 123 108 213t76 210q-46 72 -46 135q0 44 23 84q36 63 107 82q22 6 41 6q43 0 71 -30q29 -30 30 -83q0 -31 -11 -71q26 -24 73 -61t79 -62.5t65.5 -62.5t47.5 -69q10 -23 10 -51q0 -10 -1 -20q-5 -40 -36 -81q-116 -151 -137 -244q-4 -16 -4 -30 q0 -21 9 -35q14 -23 56 -23h4q33 1 70.5 12.5t83 37.5t92 77t84.5 121q10 10 31 2q20 -6 40 -24q16 -14 16 -23q0 -2 -1 -4q-188 -380 -541 -387h-13q-128 0 -195 55q-68 56 -68 156v6q1 55 27 124.5t53 117t72 120.5q8 13 12 19q7 11 10.5 21.5t2.5 21t-1.5 18.5t-7 18.5 t-9.5 16t-12.5 16t-13 14t-14.5 13.5t-13 12q-56 -199 -182 -416q-3 -5 -8.5 -8t-12 -3t-14.5 1t-15.5 4.5t-14.5 8t-13 10.5q-4 5 -8 11q-4 7 -5 14z" />
<glyph unicode="S" horiz-adv-x="1003" d="M-3 355q0 5 3 10q68 128 161 265.5t191 235.5q91 91 211 106q20 2 39 2q70 0 108 -36q27 -27 27 -63q0 -39 -31 -89l-8 -12q8 -33 28.5 -109t27.5 -104.5t18.5 -86.5t13.5 -92q1 -23 1 -51v-29q-1 -46 -9 -91q68 5 136 57t118 152q9 10 30 2q22 -8 42 -26q17 -15 17 -22 q0 -2 -1 -3q-78 -150 -177 -210.5t-220 -62.5q-49 -61 -136.5 -93t-199.5 -32q-55 0 -109 15t-106 56.5t-76 102.5q12 47 72 79q41 22 75 23q15 0 29 -5q10 -29 37.5 -54t61.5 -26q34 0 55 18q-26 26 -29 60t15 60t49 32q-13 205 -70 424q-63 -62 -150.5 -194t-152.5 -247 q-3 -5 -8.5 -8t-12 -3t-14.5 1t-15.5 4.5t-14.5 8t-13 10.5q-4 5 -8 11q-4 7 -5 14z" />
<glyph unicode="T" horiz-adv-x="692" d="M24 272q-1 15 0 32q0 50 8 112q10 84 25.5 157t40.5 172h-51q-21 11 -21 57q0 42 16 80q16 40 36 44h69q118 377 146 456q19 24 95 28q12 1 25 1q63 0 123 -18q72 -21 80 -58q-50 -155 -122 -409h127q23 -19 25 -60v-10q0 -34 -12 -66q-14 -36 -32 -45h-158 q-63 -213 -79 -280q-31 -114 -31 -193v-18q4 -84 63 -88h14l52 6q33 8 77.5 30.5t92 78t88.5 137.5q10 12 31.5 4.5t41.5 -25.5q16 -14 16 -24q0 -2 -1 -4q-92 -191 -203.5 -288t-263.5 -97q-84 0 -144.5 21.5t-97 57t-54.5 92.5t-22 117z" />
<glyph unicode="U" horiz-adv-x="1079" d="M-22 204q3 41 14 87q24 107 88 318t74 247q16 25 90 30q16 1 33 1q57 1 111 -13q70 -18 75 -51q-9 -33 -31.5 -111.5t-41.5 -149t-34 -130.5q-38 -151 -42 -178q-2 -14 -2 -25q0 -48 31 -49h3q52 1 117.5 89.5t99.5 191.5q55 170 121 397q18 22 84 28q17 1 33 1 q50 -1 102 -13q69 -16 90 -51q-10 -41 -27.5 -104t-34.5 -121.5t-35.5 -124t-30.5 -119.5q-13 -53 -19 -97q-4 -25 -4 -43q0 -14 3 -25q5 -24 23 -23q43 2 116.5 75.5t123.5 174.5q11 13 32.5 6t41.5 -25q15 -14 15 -23q0 -3 -1 -5q-28 -52 -60.5 -101t-79.5 -103.5 t-96 -94.5q-48 -40 -110 -66q-59 -25 -118 -24h-5q-80 2 -120 74q-25 45 -25 102q0 36 10 77q-83 -133 -179 -193t-216 -60q-66 0 -112 19t-69 49.5t-32 72.5q-7 32 -7 62q0 11 1 21z" />
<glyph unicode="V" horiz-adv-x="1058" d="M6 293q9 65 28 143.5t35 134t44.5 147t40.5 134.5q28 25 98 32q20 2 40 2q48 0 94 -12q65 -17 79 -55q-16 -64 -46.5 -167t-51.5 -176q-21 -72 -38 -146q-14 -62 -15 -101q0 -7 1 -13q3 -40 27 -42h6q34 0 72 33q-10 21 -10 42q0 30 20 59q29 42 74 42q9 0 18 -2 q58 107 100.5 255t45.5 255q22 20 90 28q22 2 44 3q46 -1 92 -11q68 -16 85 -53q-9 -171 -73 -333.5t-165 -276.5q38 -7 71 -7q75 0 130 34q79 49 145 174q11 13 33 7q22 -7 42 -25q15 -14 15 -24q0 -3 -1 -5q-27 -52 -57.5 -93t-58.5 -70.5t-62.5 -50t-61 -33.5t-64 -19 t-61.5 -8t-63 1t-59.5 6t-59.5 9q-170 -126 -383 -129h-4q-150 0 -205 71q-39 50 -39 145q0 43 8 95z" />
<glyph unicode="W" horiz-adv-x="1570" d="M-21 208q4 45 17 105q38 173 151 535q37 32 113 36q13 1 27 1q61 1 111 -17q62 -22 63 -57q-14 -49 -45 -148.5t-52.5 -177.5t-35.5 -149q-17 -65 -16 -109q0 -48 30 -49h3q45 0 100 64q57 66 100 178q32 82 143 430q24 28 96 34q18 2 36 2q52 0 102 -14q67 -19 75 -57 q-95 -254 -135 -403q-14 -52 -22.5 -94t-10.5 -75t5.5 -51t23.5 -18q35 0 74 39q-10 21 -10 41q0 30 22 59q27 37 66 37q12 0 26 -4q58 110 100.5 250.5t43.5 257.5q16 24 88 32q24 3 47 3q48 1 95 -11q70 -16 79 -53q-3 -159 -69 -326t-165 -284q32 -8 65 -8q12 -1 26 1 q46 4 89 23t86 66.5t81 120.5q10 12 31 4.5t41 -25.5q16 -14 15 -24q0 -2 -1 -4q-33 -63 -70.5 -110.5t-73 -78t-78.5 -49.5t-79 -27t-82 -8q-6 0 -11 -1q-40 -1 -70 3q-34 4 -81 11q-138 -125 -359 -125q-45 0 -82.5 13t-67.5 40q-32 27 -46 75q-10 34 -10 75q0 17 2 36 q-43 -70 -96.5 -120t-107.5 -74t-99.5 -34.5t-88.5 -10.5q-66 0 -110 17.5t-66.5 45.5t-29.5 72q-4 28 -4 56q0 17 1 33z" />
<glyph unicode="X" horiz-adv-x="1126" d="M0 365q31 52 74 134.5t72.5 136t67.5 110t78 88t85 38.5q21 5 39 5q8 1 18 -1q26 -4 47 -11t38.5 -22t31 -31.5t26 -39t22.5 -44t21 -47.5q8 -20 13 -30l127 154q38 45 148 45h14q96 -2 134 -28q20 -13 7 -27l-320 -385q29 -74 48 -111q31 -63 57 -97q26 -33 55 -32h2 q56 2 121.5 64t130.5 184q10 10 30.5 2t40.5 -26q16 -15 16 -22q0 -2 -1 -3q-80 -155 -187 -254t-212 -123q-46 -11 -87 -11q-102 0 -167 70q-28 28 -88 135l-140 -163q-34 -41 -152 -44h-15q-91 0 -129 23q-23 15 -5 33l324 383q-13 34 -30 74.5t-21 50.5q-17 37 -30.5 54 t-27.5 16t-28 -23q-10 -16 -31.5 -53t-58 -99.5t-72.5 -122.5q-11 -12 -33.5 -7.5t-41.5 23.5q-13 13 -13 25q0 5 2 9z" />
<glyph unicode="Y" horiz-adv-x="1087" d="M-21 157q-1 11 -1 22q0 27 4 54q5 38 16 80q72 271 158 545q21 24 92 28q14 1 28 1q56 0 109 -13q67 -18 78 -49q-50 -171 -129 -489q-10 -39 -14.5 -65t-5 -50.5t10 -34.5t31.5 -6q53 10 113 96.5t94 184.5q67 197 119 395q26 26 98 29h19q61 0 117 -16q66 -19 77 -48 q-100 -354 -219 -788q102 43 173 126.5t171 260.5q9 10 30.5 3.5t41.5 -24.5q15 -14 15 -24q0 -3 -1 -6q-119 -217 -220.5 -323.5t-250.5 -164.5q-23 -73 -40 -120.5t-39 -100.5t-42 -85.5t-47 -66.5t-56.5 -52.5t-68 -34.5t-84 -22.5t-102.5 -6.5q-129 0 -205 66 q-63 54 -63 140q0 17 2 35q5 37 18 69.5t29.5 58t42.5 48t49.5 38t59.5 30.5t64 24.5t71 20t72 16.5t75 15q37 90 82 229q-142 -198 -350 -198q-57 0 -99.5 13t-67.5 37t-39 54.5t-16 68.5zM244 -340q-5 -14 -5 -27q0 -16 7 -28q11 -20 40 -20q5 0 11 1q63 8 100 97 q16 48 33 116q-95 -26 -149 -80q-26 -26 -37 -59z" />
<glyph unicode="Z" horiz-adv-x="1009" d="M0 365q3 6 21.5 40t22.5 42.5t20.5 39t22.5 45t20 44t22 51.5t19.5 52.5t21.5 62t20 65.5q-40 66 -40 123q0 41 21 78q33 58 97 73q15 3 29 3q45 0 74 -35q26 -33 26 -87q0 -37 -12 -83q30 -40 75 -58q43 -17 87 -17h5q47 1 107 15q62 16 112 16q31 -1 59 -7 q68 -18 97 -62q14 -23 14 -47q0 -22 -13 -45q-147 -251 -377 -484q77 -33 153 -33l31 1q91 7 162.5 69t142.5 193q9 10 29 2t40 -26q17 -15 17 -23q0 -115 -230 -301q-135 -109 -288 -113h-10q-59 0 -136 21q-80 22 -128 22h-4q-85 -57 -154 -57q-31 0 -58 11q-58 25 -70 87 q-3 13 -3 26q0 51 43 93q34 32 88 47q102 102 144 145.5t107 121.5t103 145q-21 -5 -43 -5q-47 0 -101 21q-80 31 -116 86q-66 -211 -182 -406q-13 -15 -36 -10.5t-42 23.5q-13 13 -13 24q0 6 3 11z" />
<glyph unicode="[" horiz-adv-x="1064" d="M104 -166l412 1460q12 41 28 66.5t39.5 36.5t42.5 13.5t52 2.5h330q26 -8 27.5 -57t-21 -106.5t-49.5 -57.5h-170l-373 -1311h153q27 0 27.5 -55.5t-20.5 -110.5t-47 -55h-316q-86 0 -114 38.5t-1 135.5z" />
<glyph unicode="\" horiz-adv-x="1275" d="M162 1257q-27 36 35 76t134 44q50 2 68 -21q86 -113 243.5 -386.5t306 -537.5t206.5 -344q29 -41 -36 -74q-65 -32 -144 -29q-55 3 -72 27q-78 108 -226.5 371t-293.5 518.5t-221 355.5z" />
<glyph unicode="]" horiz-adv-x="1069" d="M45 -285q-1 55 20 110.5t48 55.5h170l350 1311h-154q-27 0 -28.5 55t19 110.5t46.5 55.5h315q86 0 114.5 -38.5t2.5 -135.5l-385 -1460q-11 -41 -27 -66.5t-39 -36.5t-42 -13.5t-52 -2.5h-329q-28 0 -29 55z" />
<glyph unicode="_" horiz-adv-x="1015" d="M208.5 -139.5q-12.5 46.5 8.5 93t64 46.5l507 -2q26 0 42.5 -19t19 -46t-3 -54t-23.5 -46t-43 -19h-522q-37 0 -49.5 46.5z" />
<glyph unicode="`" horiz-adv-x="575" d="M119 1706q-27 31 22 55q54 27 123 18q52 -7 72 -36q23 -33 66 -94.5t65 -94.5q29 -42 -21 -68q-46 -24 -100 -13q-28 5 -41 20z" />
<glyph unicode="a" d="M2 311q15 116 73 218.5t138 171t168.5 112.5t173.5 57q41 8 93 8h34q73 -4 142.5 -16t137.5 -44t113 -77q8 -21 -13.5 -60t-53.5 -67.5t-50 -23.5q-60 48 -144 72q-69 20 -136 21q-14 0 -27 -1q-92 -4 -173 -76t-120 -178q-32 -90 -36 -154q0 -8 -1 -16q0 -51 21 -68 q16 -15 35 -15q20 0 42 16q44 32 86 105.5t74.5 144t57.5 137.5q32 19 79 19q9 0 18 -1q59 -4 116 -26t70 -46q-49 -162 -56 -192q-13 -57 -13 -93q0 -18 3 -31q10 -38 43 -36q49 2 129 75t127 169q10 12 31.5 5t41.5 -25q16 -14 16 -22q0 -3 -1 -5q-96 -178 -226 -281.5 t-276 -103.5q-81 0 -115 65q-26 48 -25 123q0 26 3 55q-27 -50 -55 -88t-69 -75.5t-96 -58t-122 -21.5h-9q-37 0 -71 7q-38 8 -76 30t-64 57.5t-38 95.5q-6 30 -5 65q0 34 5 72z" />
<glyph unicode="b" horiz-adv-x="1105" d="M26 292q-1 24 -1 47q0 63 6 125q9 86 35.5 204t49.5 203.5t61 204.5t56.5 172.5t49.5 140.5q29 16 83 19q16 1 32 1q38 0 74 -5q52 -7 92.5 -24.5t47.5 -40.5q-24 -71 -47 -144t-35.5 -114.5t-40.5 -139t-40 -138.5q66 39 147 53q38 7 74 6q42 0 82 -8q98 -23 153 -96.5 t61 -167.5q1 -14 1 -28q0 -82 -27 -168q-31 -102 -94 -185q188 0 289 209q9 12 31 6q22 -8 42 -26q16 -14 16 -24q0 -3 -1 -5q-34 -66 -74.5 -116t-83 -79.5t-84 -48t-86.5 -24.5t-82 -6t-78 5q-150 -116 -350 -116q-256 0 -332 168q-23 54 -27 140zM308 260q3 -36 21 -60 t50 -32q19 -5 35 -5q18 1 34 7q28 12 56 41q-10 20 -10 40q0 25 16 53q28 48 78 50q19 47 32 98q14 50 20 104q1 13 1 25q1 38 -13 66q-18 37 -59 43q-8 1 -16 1q-68 0 -160 -77q-20 -50 -34.5 -92t-29.5 -93t-19 -91q-3 -24 -3 -48q0 -15 1 -30z" />
<glyph unicode="c" horiz-adv-x="892" d="M23 375q2 100 44 191t113.5 159.5t175.5 108.5q101 39 218 38h6q85 -1 145 -23.5t87.5 -57t36.5 -78.5q4 -21 5 -42q0 -23 -6 -45q-10 -42 -31 -81q-25 -35 -92 -51q-40 -10 -79 -10q-26 0 -50 4q-62 10 -72 44q43 89 43 123q0 7 -2 11q-4 13 -18 14h-6q-54 0 -110 -78 q-59 -83 -69 -209q-1 -14 -1 -28q0 -91 53 -141q56 -53 145 -52h16q233 15 347 246q9 12 30.5 4.5t41.5 -25.5q16 -14 17 -22q0 -2 -1 -4q-60 -115 -133.5 -194.5t-154 -120.5t-160.5 -57q-67 -13 -141 -13h-28q-161 6 -267 118q-103 108 -103 262v9z" />
<glyph unicode="d" horiz-adv-x="1140" d="M6 181q-5 29 -5.5 60t5.5 65q10 67 34.5 134.5t65 132.5t91.5 117q107 112 243 154q112 35 225 35q24 0 48 -2q29 115 83.5 298.5t61.5 208.5q20 22 96 24q9 0 18 1q67 0 131 -17q72 -19 79 -51q-16 -60 -49.5 -168t-65 -211t-67 -222t-59.5 -217.5t-38 -180.5 q-9 -53 -9 -92q0 -20 2 -36q7 -44 36 -44h2q46 3 117.5 76.5t117.5 171.5q10 12 31.5 4.5t41.5 -25.5q16 -14 16 -23q0 -3 -1 -5q-95 -181 -220 -283t-267 -102q-86 0 -134 64q-39 52 -40 140q0 19 2 39q-27 -50 -55 -88t-69 -75.5t-96 -58t-122 -21.5h-6q-72 0 -124 24 q-54 25 -82 70t-38 103zM314 235q4 -45 36 -57q8 -3 16 -3q30 1 72 37q53 46 107 148q47 85 110 322q-147 -4 -245 -152q-22 -35 -44 -87q-24 -51 -40 -107q-13 -44 -13 -81q0 -10 1 -20z" />
<glyph unicode="e" horiz-adv-x="978" d="M27 397q21 213 175 345q151 129 368 128h10q77 -1 138 -23.5t96 -58.5q36 -38 53 -84q13 -36 13 -74q0 -11 -1 -23q-5 -51 -31 -99q-53 -108 -185 -158q-87 -32 -191 -33q-55 0 -114 9q14 -155 242 -158h8q44 0 91 10q51 11 107.5 37.5t109 78.5t90.5 124q10 12 32 4 q22 -6 42 -24q16 -14 17 -23q0 -2 -1 -4q-116 -211 -264 -302q-145 -89 -335 -89h-8q-128 1 -223.5 35t-148.5 93t-75 132q-17 54 -17 114q0 21 2 43zM369 457h10q75 1 128 41q56 44 71 100q6 18 6 33q0 11 -3 20q-7 22 -30 25q-6 1 -11 1q-49 -1 -96 -57q-52 -62 -75 -163z " />
<glyph unicode="f" horiz-adv-x="833" d="M-106 -217q14 194 149 694q160 579 315 774q40 51 88 88t96 55.5t98 23.5q16 2 32 2q32 0 62 -8q43 -11 83 -33.5t68 -60.5t45.5 -86t17.5 -109.5t-16 -131.5q-39 -158 -204 -307.5t-368 -216.5q-25 -88 -49 -180q29 -17 76 -33.5t115 -23.5q28 -4 55 -4q39 0 77 6 q64 11 127 57.5t101 128.5q10 12 31 4.5t41 -24.5q17 -15 17 -24q0 -2 -1 -3q-33 -69 -76.5 -119.5t-86.5 -78.5t-94.5 -43.5t-94.5 -18.5q-22 -1 -45 -1t-47 1q97 -143 97 -308q0 -161 -93 -272q-118 -137 -326 -137h-18q-170 4 -228 100q-47 77 -47 215q0 35 3 74z M176 -311v-13q0 -55 22 -76q12 -11 26 -11q16 0 34 13q34 26 57 87q22 59 25 133v19q0 65 -18 131q-21 76 -64 124q-24 -79 -51 -202.5t-31 -204.5zM403 653q96 53 178.5 181.5t110.5 238.5q9 40 9 71.5t-12 46t-27 15.5h-1q-16 0 -37 -20q-23 -21 -44 -60q-41 -80 -92 -215 t-85 -258z" />
<glyph unicode="g" horiz-adv-x="1116" d="M3 203q-4 27 -4 55q0 39 7 80q13 69 45.5 141t81.5 133q81 105 197.5 172.5t226.5 83.5q54 8 111 8q82 0 170 -16q149 -29 252 -119q2 -6 2 -13q0 -28 -40 -80q-45 -59 -73 -59q-3 0 -6 1q-60 50 -149 74q-73 19 -143 19q-15 0 -30 -1q-91 -4 -167.5 -74.5t-121.5 -179.5 q-26 -64 -36 -116q-5 -32 -5 -55q0 -16 3 -29q6 -31 24 -44q12 -8 27 -8q29 0 68 30q60 45 114 154q37 73 94 218q17 17 63 18q5 1 10 1q41 0 81 -10q46 -11 84.5 -29t44.5 -36q-36 -117 -76.5 -277.5t-54.5 -211.5q101 42 175.5 128.5t168.5 258.5q9 10 31 3t42 -25 q15 -14 15 -24q0 -4 -2 -7q-120 -217 -221.5 -322.5t-249.5 -163.5q-60 -186 -92 -252q-71 -147 -188 -200q-82 -37 -199 -37q-129 0 -205 66q-64 54 -64 140q0 17 2 35q7 48 26.5 88t43.5 68t64.5 52.5t74 39.5t88 30t90.5 22.5t97 19.5q49 135 82 233q-121 -200 -322 -202 h-5q-74 0 -129 28q-56 28 -85 77t-38 114zM279 -326q-9 -22 -9 -39q0 -26 20 -40q14 -10 30 -10q20 0 43 15q40 25 63 83q16 48 33 116q-71 -20 -118.5 -54t-61.5 -71z" />
<glyph unicode="h" horiz-adv-x="1081" d="M-78 37q169 635 385 1349q21 14 61 20q24 4 51 4q17 0 35 -2q45 -4 86.5 -12.5t67.5 -24.5t25 -34q-98 -294 -176 -596q181 136 315 136q87 0 135 -35t53 -96q1 -11 1 -22q0 -53 -19 -120q-7 -23 -22.5 -65.5t-28.5 -80t-27.5 -82.5t-21 -80t-8.5 -65t9.5 -45.5 t35.5 -13.5q49 3 118.5 77.5t112.5 168.5q10 12 32 4q22 -7 42 -25q16 -14 15 -23q0 -3 -1 -5q-197 -366 -467 -385q-17 -1 -32 -1q-53 -1 -93 13q-50 18 -71.5 51t-29.5 77q-4 20 -4 41q0 24 5 48q14 106 94 352q10 25 10 45q0 12 -4 21q-10 26 -49 22q-65 -7 -151 -86 q-117 -442 -144 -551q-5 -24 -106 -36q-47 -6 -86 -6q-65 0 -110 16q-39 14 -39 38q0 4 1 9z" />
<glyph unicode="i" horiz-adv-x="581" d="M-12 260q37 162 166 602q25 21 95 24h20q61 0 119 -15q68 -18 85 -50q-23 -81 -61.5 -206.5t-59.5 -199.5t-30 -124q-5 -36 -5 -61q0 -58 29 -58h3q57 0 133 68q78 70 128 178q9 12 30 4q22 -8 42 -26q16 -15 17 -23q0 -2 -1 -4q-39 -72 -84 -133.5t-105 -119t-136.5 -92 t-159.5 -38.5q-13 -1 -26 -1q-133 -1 -180 67q-31 45 -31 114q0 42 12 94zM229 1157q16 75 72 123q55 47 132 47h3q78 -1 118 -50q31 -38 31 -88q0 -15 -3 -32q-13 -74 -69.5 -122t-143.5 -48q-70 0 -112 51q-31 38 -31 86q0 16 3 33z" />
<glyph unicode="j" horiz-adv-x="573" d="M-541 -460q-8 29 -8 59q0 37 11 77q22 73 83 131q59 57 144 86t223 56q55 224 231 907q18 25 94 28q12 1 24 1q63 0 124 -16q72 -19 80 -50q-50 -157 -84 -272.5t-78 -280.5t-63 -235q108 50 192.5 139.5t171.5 249.5q9 10 30 1.5t41 -26.5q16 -14 16 -22q0 -2 -1 -4 q-113 -210 -225 -319t-266 -169q-24 -85 -44 -143t-49 -118t-63.5 -98t-81.5 -69.5t-108.5 -46t-139.5 -14.5h-5q-100 0 -164 42q-67 43 -85 106zM-288 -389q10 -23 38 -25h6q25 0 54 22q33 25 53 75q24 70 33 116q-68 -21 -117.5 -56t-63.5 -69q-8 -23 -8 -40q0 -13 5 -23z M225 1157q16 75 72 123q55 47 132 47h3q78 -1 118 -50q31 -38 31 -88q0 -16 -3 -32q-13 -74 -69.5 -122t-143.5 -48q-70 0 -112 51q-31 38 -31 86q0 16 3 33z" />
<glyph unicode="k" horiz-adv-x="1056" d="M-78 31q87 328 203.5 735.5t183.5 617.5q19 22 96 25h20q67 1 129 -17q72 -20 77 -55q-112 -361 -176 -602q107 97 239 129q48 11 89 11q72 0 124 -35q55 -40 64 -112q2 -16 2 -32q0 -55 -24 -110q-31 -71 -103.5 -131t-165.5 -78q0 -106 25 -157t81 -52h9q84 0 149 54 q68 56 143 198q9 10 30 2.5t41 -25.5q16 -14 17 -24q0 -2 -1 -4q-101 -194 -229 -289.5t-261 -97.5h-5q-138 0 -209 100q-53 75 -53 220q0 52 7 114q136 41 197 122q28 36 28 65q0 16 -9 29q-14 20 -46 25q-8 1 -16 1q-50 0 -108 -48q-66 -56 -87 -129q-9 -34 -31.5 -113 t-34.5 -123t-28 -109t-27 -120q-16 -23 -98 -35q-41 -6 -81.5 -6t-79.5 6q-79 12 -81 50z" />
<glyph unicode="l" horiz-adv-x="798" d="M38 464q8 98 34 222q49 234 149 419t238 263q66 36 139 44q18 2 35 2q53 0 99 -17q62 -23 110 -72t64 -124q8 -37 7 -79q0 -44 -8 -94q-40 -201 -187.5 -345.5t-379.5 -205.5q-18 -78 -18 -137q0 -170 151 -174q31 -1 62 4t71 21.5t76.5 43.5t76 74.5t72.5 110.5 q9 10 29.5 2t40.5 -26q17 -15 17 -22q0 -2 -1 -3q-40 -75 -77 -130.5t-89 -110.5t-108.5 -87.5t-132.5 -48.5q-51 -11 -108 -11q-28 0 -58 3q-93 9 -157 47t-98 99q-33 60 -45 147q-7 51 -7 107q0 38 3 78zM375 657q69 32 134.5 119t102.5 180q24 62 36 118q8 38 7 67 q1 14 -1 25q-6 36 -31 36q-57 0 -138 -215q-78 -214 -110 -330z" />
<glyph unicode="m" horiz-adv-x="1595" d="M-76 39q129 498 232 821q26 22 94 26q13 1 25 1q54 -1 107 -15q64 -18 81 -49q-12 -30 -33 -100q74 60 163.5 107t164.5 47q77 0 119 -38.5t41 -111.5q67 65 154.5 107.5t176.5 42.5q131 1 177 -73q26 -42 26 -102q0 -44 -14 -98q-7 -27 -20.5 -71t-25 -81t-23.5 -80.5 t-17.5 -77t-6.5 -62.5t10.5 -44.5t33.5 -15.5q43 0 112 66.5t123 179.5q10 12 32 4q22 -7 42 -25q16 -14 15 -23q0 -3 -1 -5q-30 -56 -60 -102t-75 -99.5t-92.5 -90.5t-110.5 -63.5t-131 -29.5q-13 -1 -26 -1q-128 0 -175 65q-33 45 -33 113q0 39 11 87q7 30 37.5 152 t40.5 167q5 21 5 37q0 49 -48 49h-4q-56 -3 -136 -75q-37 -126 -137 -560q-14 -24 -90 -34q-36 -5 -72 -5q-39 1 -79 7q-75 12 -88 45q39 183 133 553q8 32 -1.5 50t-39.5 15q-68 -7 -148 -84q-67 -226 -139 -542q-16 -27 -96 -39q-36 -5 -70 -5q-44 1 -86 9q-76 14 -78 51z " />
<glyph unicode="n" horiz-adv-x="1083" d="M-76 31q65 288 234 831q28 19 91 24q15 1 31 1q48 1 96 -11q64 -16 89 -51q-6 -17 -16.5 -51.5t-16.5 -50.5q39 30 67.5 50t75.5 48q47 29 95 43q44 14 84 13h6q116 -1 156 -74q23 -42 23 -101q0 -44 -13 -98q-9 -37 -42 -143.5t-44 -157.5q-8 -35 -8 -63q0 -17 3 -31 q8 -37 35 -37q55 0 124 72t118 174q10 12 31.5 4.5t41.5 -25.5q16 -14 16 -24q0 -2 -1 -4q-27 -52 -58.5 -100t-77 -101t-94.5 -91.5t-113 -64.5t-130 -28h-15q-137 0 -185 69q-30 44 -30 109q0 43 13 94q62 243 76 309q7 25 7 43q1 13 -3 22q-8 23 -49 17q-57 -8 -146 -80 q-27 -87 -49.5 -173.5t-50.5 -206t-41 -169.5q-17 -24 -93 -34q-35 -5 -71 -5q-40 0 -80 6q-74 12 -86 46z" />
<glyph unicode="o" horiz-adv-x="1095" d="M12 260q-1 16 -1 33q0 64 20 143q51 214 204 328q150 113 344 113h7q138 -1 226 -63q89 -60 116 -156q15 -53 15 -114q1 -48 -9 -100q-22 -118 -92 -231q11 -1 22 -1q64 0 130 45q78 53 130 161q10 12 32 6q22 -8 42 -26q15 -14 15 -24q0 -3 -1 -5q-35 -66 -74 -115.5 t-80.5 -78.5t-80.5 -47t-83.5 -23.5t-78.5 -5.5t-76 5q-151 -124 -368 -124q-75 0 -136 15t-111.5 48.5t-77.5 87t-34 129.5zM338 256q0 -20 4 -34q5 -14 14 -27.5t24.5 -20t37.5 -6.5q41 0 74 33q-12 22 -12 45q0 25 14 52q27 51 79 52q21 66 32 124.5t11 107t-19 76.5 q-18 28 -54 28h-2q-103 -3 -170 -244q-8 -29 -12.5 -47t-10.5 -46.5t-8 -46.5q-2 -24 -2 -46z" />
<glyph unicode="p" horiz-adv-x="1105" d="M-227 -551q188 755 383 1409q7 19 74 26q21 2 42 2q49 0 100 -11q74 -16 93 -54q-7 -21 -37 -96q86 73 168 113q68 33 148 33q16 0 32 -1q77 -7 125 -56.5t61 -123.5q9 -46 9 -96q0 -31 -3 -64q-9 -86 -41.5 -170.5t-80.5 -148.5h10q89 0 160 53q74 57 119 154 q9 12 30.5 5.5t42.5 -25.5q16 -14 16 -24q0 -3 -1 -5q-36 -72 -81.5 -125t-91.5 -81.5t-96.5 -45.5t-96.5 -17t-91 4q-103 -99 -249 -116q-27 -3 -54 -3q-114 0 -211 60q-27 -101 -81.5 -320t-72.5 -290q-18 -26 -98 -35q-31 -4 -62 -4q-46 0 -90 8q-73 14 -75 45zM297 225 q41 -39 102 -49q18 -4 34 -4q38 0 63 18q-16 28 -16 55q0 9 2 19q7 36 34.5 61.5t54.5 18.5q55 128 57 212v6q0 78 -48 87q-7 1 -15 1q-27 0 -67 -16q-51 -21 -103 -65q-20 -65 -51 -178t-47 -166z" />
<glyph unicode="q" horiz-adv-x="1105" d="M6 301q19 121 73 225t127.5 174t156.5 114.5t167 57.5q43 7 90 7q93 0 204 -27q167 -39 253 -137q1 -5 1 -10q0 -35 -36 -82q-42 -54 -77 -56q-61 55 -151 89q-82 30 -154 30h-13q-98 -4 -167.5 -73t-123.5 -205q-40 -101 -40 -161q0 -32 12 -52q12 -21 33 -21 q18 0 43 17q67 44 126 167q60 123 93 215q13 19 58 22q10 1 20 1q36 0 73 -8q48 -11 87.5 -30t43.5 -38q-86 -274 -153 -508q27 25 92.5 80t105 91t93 100.5t92.5 134.5q9 11 30.5 4.5t42.5 -24.5q16 -14 16 -24q0 -3 -1 -5q-29 -60 -74 -121.5t-73.5 -93.5t-90 -95 t-72.5 -75q-97 -102 -156.5 -190.5t-97.5 -205.5l-36 -151q-20 -29 -100 -37q-30 -4 -59 -4q-48 0 -93 9q-72 14 -74 42q14 54 40.5 165.5t39 155t37.5 121.5t56 143t75 142q-63 -96 -144.5 -145.5t-162.5 -51.5h-5q-52 0 -97 21q-47 22 -80.5 62t-47.5 103q-8 34 -8 71 q0 32 6 67z" />
<glyph unicode="r" horiz-adv-x="864" d="M-3 355q0 5 3 10q67 123 108 213t76 210q-46 72 -46 135q0 44 23 84q36 63 107 82q22 6 41 6q43 0 71 -30q29 -30 30 -83q0 -31 -11 -71q26 -24 73 -61t79 -62.5t65.5 -62.5t47.5 -69q10 -23 10 -51q0 -10 -1 -20q-5 -40 -36 -81q-116 -151 -137 -244q-4 -16 -4 -30 q0 -21 9 -35q14 -23 56 -23h4q33 1 70.5 12.5t83 37.5t92 77t84.5 121q10 10 31 2q20 -6 40 -24q16 -14 16 -23q0 -2 -1 -4q-188 -380 -541 -387h-13q-128 0 -195 55q-68 56 -68 156v6q1 55 27 124.5t53 117t72 120.5q8 13 12 19q7 11 10.5 21.5t2.5 21t-1.5 18.5t-7 18.5 t-9.5 16t-12.5 16t-13 14t-14.5 13.5t-13 12q-56 -199 -182 -416q-3 -5 -8.5 -8t-12 -3t-14.5 1t-15.5 4.5t-14.5 8t-13 10.5q-4 5 -8 11q-4 7 -5 14z" />
<glyph unicode="s" horiz-adv-x="1003" d="M-3 355q0 5 3 10q68 128 161 265.5t191 235.5q91 91 211 106q20 2 39 2q70 0 108 -36q27 -27 27 -63q0 -39 -31 -89l-8 -12q8 -33 28.5 -109t27.5 -104.5t18.5 -86.5t13.5 -92q1 -23 1 -51v-29q-1 -46 -9 -91q68 5 136 57t118 152q9 10 30 2q22 -8 42 -26q17 -15 17 -22 q0 -2 -1 -3q-78 -150 -177 -210.5t-220 -62.5q-49 -61 -136.5 -93t-199.5 -32q-55 0 -109 15t-106 56.5t-76 102.5q12 47 72 79q41 22 75 23q15 0 29 -5q10 -29 37.5 -54t61.5 -26q34 0 55 18q-26 26 -29 60t15 60t49 32q-13 205 -70 424q-63 -62 -150.5 -194t-152.5 -247 q-3 -5 -8.5 -8t-12 -3t-14.5 1t-15.5 4.5t-14.5 8t-13 10.5q-4 5 -8 11q-4 7 -5 14z" />
<glyph unicode="t" horiz-adv-x="692" d="M24 272q-1 15 0 32q0 50 8 112q10 84 25.5 157t40.5 172h-51q-21 11 -21 57q0 42 16 80q16 40 36 44h69q118 377 146 456q19 24 95 28q12 1 25 1q63 0 123 -18q72 -21 80 -58q-50 -155 -122 -409h127q23 -19 25 -60v-10q0 -34 -12 -66q-14 -36 -32 -45h-158 q-63 -213 -79 -280q-31 -114 -31 -193v-18q4 -84 63 -88h14l52 6q33 8 77.5 30.5t92 78t88.5 137.5q10 12 31.5 4.5t41.5 -25.5q16 -14 16 -24q0 -2 -1 -4q-92 -191 -203.5 -288t-263.5 -97q-84 0 -144.5 21.5t-97 57t-54.5 92.5t-22 117z" />
<glyph unicode="u" horiz-adv-x="1079" d="M-22 204q3 41 14 87q24 107 88 318t74 247q16 25 90 30q16 1 33 1q57 1 111 -13q70 -18 75 -51q-9 -33 -31.5 -111.5t-41.5 -149t-34 -130.5q-38 -151 -42 -178q-2 -14 -2 -25q0 -48 31 -49h3q52 1 117.5 89.5t99.5 191.5q55 170 121 397q18 22 84 28q17 1 33 1 q50 -1 102 -13q69 -16 90 -51q-10 -41 -27.5 -104t-34.5 -121.5t-35.5 -124t-30.5 -119.5q-13 -53 -19 -97q-4 -25 -4 -43q0 -14 3 -25q5 -24 23 -23q43 2 116.5 75.5t123.5 174.5q11 13 32.5 6t41.5 -25q15 -14 15 -23q0 -3 -1 -5q-28 -52 -60.5 -101t-79.5 -103.5 t-96 -94.5q-48 -40 -110 -66q-59 -25 -118 -24h-5q-80 2 -120 74q-25 45 -25 102q0 36 10 77q-83 -133 -179 -193t-216 -60q-66 0 -112 19t-69 49.5t-32 72.5q-7 32 -7 62q0 11 1 21z" />
<glyph unicode="v" horiz-adv-x="1058" d="M6 293q9 65 28 143.5t35 134t44.5 147t40.5 134.5q28 25 98 32q20 2 40 2q48 0 94 -12q65 -17 79 -55q-16 -64 -46.5 -167t-51.5 -176q-21 -72 -38 -146q-14 -62 -15 -101q0 -7 1 -13q3 -40 27 -42h6q34 0 72 33q-10 21 -10 42q0 30 20 59q29 42 74 42q9 0 18 -2 q58 107 100.5 255t45.5 255q22 20 90 28q22 2 44 3q46 -1 92 -11q68 -16 85 -53q-9 -171 -73 -333.5t-165 -276.5q38 -7 71 -7q75 0 130 34q79 49 145 174q11 13 33 7q22 -7 42 -25q15 -14 15 -24q0 -3 -1 -5q-27 -52 -57.5 -93t-58.5 -70.5t-62.5 -50t-61 -33.5t-64 -19 t-61.5 -8t-63 1t-59.5 6t-59.5 9q-170 -126 -383 -129h-4q-150 0 -205 71q-39 50 -39 145q0 43 8 95z" />
<glyph unicode="w" horiz-adv-x="1574" d="M-17 208q4 45 17 105q36 163 152 535q37 32 113 36q13 1 26 1q61 1 111 -17q62 -22 63 -57q-14 -49 -45 -148.5t-52.5 -177.5t-35.5 -149q-17 -65 -16 -109q0 -48 30 -49h3q45 0 100 64q57 66 100 178q32 82 143 430q24 28 96 34q18 2 36 2q52 0 102 -14q67 -19 75 -57 q-95 -254 -135 -403q-14 -52 -22.5 -94t-10.5 -75t5.5 -51t23.5 -18q35 0 74 39q-10 21 -10 41q0 30 22 59q27 37 66 37q12 0 26 -4q58 110 100.5 250.5t43.5 257.5q16 24 88 32q24 3 47 3q48 1 95 -11q70 -16 79 -53q-3 -160 -68.5 -327t-164.5 -283q32 -8 65 -8 q13 -1 27 1q46 4 88 23t85 66t81 121q10 12 31 4.5t41 -25.5q16 -14 15 -24q0 -2 -1 -4q-33 -63 -70.5 -110.5t-73 -78t-78.5 -49.5t-79 -27t-82 -8q-6 0 -11 -1q-40 -1 -70 3q-34 4 -81 11q-138 -125 -359 -125q-45 0 -82.5 13t-67.5 40q-32 27 -46 75q-10 34 -10 75 q0 17 2 36q-43 -70 -96.5 -120t-107.5 -74t-99 -34.5t-88 -10.5q-66 0 -110 17.5t-66.5 45.5t-30.5 72q-5 29 -4 58q0 15 1 31z" />
<glyph unicode="x" horiz-adv-x="1126" d="M0 365q31 52 74 134.5t72.5 136t67.5 110t78 88t85 38.5q21 5 39 5q8 1 18 -1q26 -4 47 -11t38.5 -22t31 -31.5t26 -39t22.5 -44t21 -47.5q8 -20 13 -30l127 154q38 45 148 45h14q96 -2 134 -28q20 -13 7 -27l-320 -385q29 -74 48 -111q31 -63 57 -97q26 -33 55 -32h2 q56 2 121.5 64t130.5 184q10 10 30.5 2t40.5 -26q16 -15 16 -22q0 -2 -1 -3q-80 -155 -187 -254t-212 -123q-46 -11 -87 -11q-102 0 -167 70q-28 28 -88 135l-140 -163q-34 -41 -152 -44h-15q-91 0 -129 23q-23 15 -5 33l324 383q-13 34 -30 74.5t-21 50.5q-17 37 -30.5 54 t-27.5 16t-28 -23q-10 -16 -31.5 -53t-58 -99.5t-72.5 -122.5q-11 -12 -33.5 -7.5t-41.5 23.5q-13 13 -13 25q0 5 2 9z" />
<glyph unicode="y" horiz-adv-x="1087" d="M-21 157q-1 11 -1 22q0 27 4 54q5 38 16 80q72 271 158 545q21 24 92 28q14 1 28 1q56 0 109 -13q67 -18 78 -49q-50 -171 -129 -489q-10 -39 -14.5 -65t-5 -50.5t10 -34.5t31.5 -6q53 10 113 96.5t94 184.5q67 197 119 395q26 26 98 29h19q61 0 117 -16q66 -19 77 -48 q-100 -354 -219 -788q102 43 173 126.5t171 260.5q9 10 30.5 3.5t41.5 -24.5q15 -14 15 -24q0 -3 -1 -6q-119 -217 -220.5 -323.5t-250.5 -164.5q-23 -73 -40 -120.5t-39 -100.5t-42 -85.5t-47 -66.5t-56.5 -52.5t-68 -34.5t-84 -22.5t-102.5 -6.5q-129 0 -205 66 q-63 54 -63 140q0 17 2 35q5 37 18 69.5t29.5 58t42.5 48t49.5 38t59.5 30.5t64 24.5t71 20t72 16.5t75 15q37 90 82 229q-142 -198 -350 -198q-57 0 -99.5 13t-67.5 37t-39 54.5t-16 68.5zM244 -340q-5 -14 -5 -27q0 -16 7 -28q11 -20 40 -20q5 0 11 1q63 8 100 97 q16 48 33 116q-95 -26 -149 -80q-26 -26 -37 -59z" />
<glyph unicode="z" horiz-adv-x="1009" d="M0 365q3 6 21.5 40t22.5 42.5t20.5 39t22.5 45t20 44t22 51.5t19.5 52.5t21.5 62t20 65.5q-40 66 -40 123q0 41 21 78q33 58 97 73q15 3 29 3q45 0 74 -35q26 -33 26 -87q0 -37 -12 -83q30 -40 75 -58q43 -17 87 -17h5q47 1 107 15q62 16 112 16q31 -1 59 -7 q68 -18 97 -62q14 -23 14 -47q0 -22 -13 -45q-147 -251 -377 -484q77 -33 153 -33l31 1q91 7 162.5 69t142.5 193q9 10 29 2t40 -26q17 -15 17 -23q0 -115 -230 -301q-135 -109 -288 -113h-10q-59 0 -136 21q-80 22 -128 22h-4q-85 -57 -154 -57q-31 0 -58 11q-58 25 -70 87 q-3 13 -3 26q0 51 43 93q34 32 88 47q102 102 144 145.5t107 121.5t103 145q-21 -5 -43 -5q-47 0 -101 21q-80 31 -116 86q-66 -211 -182 -406q-13 -15 -36 -10.5t-42 23.5q-13 13 -13 24q0 6 3 11z" />
<glyph unicode="{" horiz-adv-x="1034" d="M198 501q-5 42 13 83t43 43q135 10 164 73q24 54 70 281.5t75 296.5q30 73 105.5 114t163.5 39.5t178 -40.5q22 -11 24.5 -42t-9 -62.5t-31 -55t-36.5 -21.5q-60 9 -93 -12.5t-56 -87.5q-14 -39 -49 -225t-58 -240q-20 -46 -64.5 -80.5t-82.5 -34.5q131 -59 80 -217 q-58 -180 -70 -250q-35 -170 27 -190q35 -13 104 8q26 -2 38 -39.5t5.5 -80t-26.5 -58.5q-44 -21 -111.5 -32t-139 -8t-129 37t-71.5 97q-24 119 0 262q21 134 80 297q13 41 -18.5 67t-87.5 32q-33 4 -38 46z" />
<glyph unicode="}" horiz-adv-x="1067" d="M63 -273q-3 31 8.5 62t31 54.5t36.5 21.5q60 -9 93.5 13t56.5 87q14 39 48.5 225t57.5 240q20 46 65 80.5t83 34.5q-131 59 -80 217q56 174 69 250q35 170 -26 190q-36 13 -105 -8q-26 2 -37.5 39.5t-5 80t26.5 58.5q44 21 111.5 32t139 8t129 -37t71.5 -97 q24 -119 0 -262q-21 -134 -80 -297q-13 -41 18.5 -66.5t87.5 -31.5q33 -4 38 -46t-13 -83t-43 -43q-135 -10 -164 -74q-24 -54 -70 -281.5t-75 -296.5q-30 -73 -104 -113.5t-166.5 -40t-176.5 41.5q-22 11 -25 42z" />
<glyph unicode="&#xa1;" horiz-adv-x="782" d="M2 -532q22 62 137.5 394.5t177.5 495.5q20 51 115 52q77 1 121 -27q22 -14 18 -29q-193 -714 -256 -915q-14 -47 -120 -47q-95 -1 -159 31q-43 21 -34 45zM379 688q6 61 50 103.5t103 42.5q61 0 101 -43t37 -103q-5 -59 -51 -101t-107 -42q-65 0 -102 41.5t-31 101.5z " />
<glyph unicode="&#xa8;" horiz-adv-x="831" d="M84 1636q10 56 54 97.5t114 44.5q69 1 105 -43t28 -101q-3 -52 -48.5 -95.5t-115.5 -43.5q-72 0 -106 43t-31 98zM455 1636q5 55 48 97t113 45q73 1 107.5 -41t32.5 -101q-5 -54 -50.5 -97.5t-117.5 -43.5q-75 0 -108.5 43.5t-24.5 97.5z" />
<glyph unicode="&#xab;" horiz-adv-x="1406" d="M179.5 568.5q-10.5 33.5 0 60t28.5 46t42 34.5q59 36 319 219q50 36 102.5 9t62.5 -75.5t-27 -85.5q-60 -46 -263 -182q36 -40 121.5 -122.5t108.5 -109.5q24 -27 -6.5 -72.5t-80.5 -60.5t-100 23q-37 36 -134 126.5t-128 121.5q-35 35 -45.5 68.5zM716 568.5 q-11 33.5 0 60t28.5 46t41.5 34.5q67 41 320 219q50 36 102.5 9t62 -75.5t-27.5 -85.5q-67 -51 -262 -182q36 -40 121 -122.5t108 -109.5q24 -27 -6 -72.5t-80 -60.5t-100 23q-37 36 -134 126.5t-128 121.5q-35 35 -46 68.5z" />
<glyph unicode="&#xad;" horiz-adv-x="913" d="M205.5 500q-9.5 49 14.5 98t67 49h405q42 0 54.5 -49t-10 -98t-64.5 -49h-420q-37 0 -46.5 49z" />
<glyph unicode="&#xaf;" horiz-adv-x="708" d="M74.5 1554q-7.5 44 13 87t53.5 42q287 -4 465 -2q35 0 40.5 -42.5t-14.5 -85t-48 -42.5q-53 0 -222 -1.5t-245 -0.5q-35 1 -42.5 45z" />
<glyph unicode="&#xb2;" horiz-adv-x="724" d="M145 918q3 23 15 30q35 23 60 41t59.5 49t59.5 69t38 81q16 53 -27 53q-33 0 -45 -51q-6 -27 -47.5 -34t-79.5 10t-33 48q11 72 78 115.5t150 46.5q99 2 159 -51t48 -149q-9 -67 -72 -132t-133 -90h170q27 0 35 -32t-4 -64.5t-33 -34.5l-340 -4q-20 -4 -35 13t-20.5 40 t-2.5 46z" />
<glyph unicode="&#xb3;" horiz-adv-x="739" d="M145 1010q4 18 40 27.5t71 1.5t37 -33q1 -24 18.5 -37t40.5 -13q18 0 34 9t20 28q3 22 -8.5 33t-43.5 14q-28 3 -35.5 32.5t7.5 58t43 28.5q27 -2 47 7.5t20 27.5q1 22 -14.5 34.5t-40.5 12.5q-50 -7 -70 -47q-10 -22 -47 -23t-67 18.5t-23 47.5q19 69 79.5 105t135.5 36 q94 0 152.5 -38.5t54.5 -106.5q-3 -90 -82 -137q77 -44 70 -129q-8 -68 -68 -108t-162 -40q-95 0 -161 55.5t-48 135.5z" />
<glyph unicode="&#xb4;" horiz-adv-x="575" d="M115 1510q-10 20 6 44q22 33 65 94.5t66 94.5q29 42 115 37q72 -4 101 -34q19 -19 1 -40l-186 -213q-25 -29 -90 -22q-62 7 -78 39z" />
<glyph unicode="&#xb7;" horiz-adv-x="638" d="M143 805q5 59 51 101t107 42q64 0 101 -41.5t32 -101.5t-49 -103t-104 -43q-61 0 -101 43t-37 103z" />
<glyph unicode="&#xb8;" horiz-adv-x="628" d="M94.5 -340.5q8.5 25.5 29 47.5t32.5 14q32 -20 62 -31t65.5 -4t54.5 42q14 24 15 43.5t-20 35t-67 17.5q-30 1 -37.5 21t11.5 46l141 213l156 -18l-142 -176q88 -13 124 -77t7 -136q-19 -48 -63.5 -84t-101.5 -52.5t-127.5 -2t-135.5 62.5q-12 13 -3.5 38.5z" />
<glyph unicode="&#xb9;" horiz-adv-x="743" d="M144 1127.5q0 16.5 14 25.5q62 37 125.5 92.5t105.5 110.5q12 15 39.5 20.5t57.5 2t57.5 -12t43.5 -21t13 -24.5q-3 -8 -16.5 -51.5t-16.5 -53.5t-14.5 -47.5t-15.5 -51.5t-13 -46.5t-13.5 -52.5t-11.5 -49t-12 -55t-10 -54q-15 -23 -59 -31.5t-84.5 4.5t-46.5 44 q3 37 27 117t51 134q-31 -30 -69.5 -56.5t-55.5 -33.5q-11 -5 -28 2.5t-32 22.5t-25.5 31.5t-10.5 33z" />
<glyph unicode="&#xbb;" horiz-adv-x="1406" d="M177.5 309.5q-9.5 48.5 27.5 85.5q77 59 262 183q-36 40 -121 122t-108 109q-24 27 6 72.5t80 61t100 -22.5q37 -36 134 -126.5t128 -121.5q35 -35 46 -68.5t0 -60t-28.5 -46t-41.5 -34.5q-67 -41 -320 -219q-50 -36 -102.5 -9.5t-62 75zM714 309.5q-10 48.5 27 85.5 q70 54 263 183q-36 40 -121.5 122t-108.5 109q-24 27 6.5 72.5t80.5 61t100 -22.5q37 -36 134 -126.5t128 -121.5q35 -35 45.5 -68.5t0 -60t-28.5 -46t-42 -34.5q-59 -36 -319 -219q-50 -36 -102.5 -9.5t-62.5 75z" />
<glyph unicode="&#xbc;" horiz-adv-x="1587" d="M142.5 1109q1.5 16 11.5 21q58 30 98.5 54t94 69.5t89.5 98.5q23 31 113 27q77 -4 97 -27q5 -6 3 -13q-61 -185 -178 -702q-6 -28 -84 -34q-82 -7 -118 15q-15 10 -13 23q9 40 21.5 103.5t18 88.5t17 68.5t23 72.5t30 70.5t44.5 90.5q-31 -46 -79.5 -84t-92.5 -50 q-22 -5 -41 5.5t-31 28.5t-18.5 38t-5 36zM285 88q58 80 206 344t305.5 537.5t243.5 386.5q27 35 114 14q80 -19 116 -60q27 -28 8 -53q-76 -100 -221 -355.5t-293.5 -518.5t-226.5 -371q-24 -34 -114 -25q-88 8 -129 45q-30 27 -9 56zM868 180.5q-20 51.5 11 91.5l321 445 q24 35 109 37q79 3 108 -24q10 -11 8 -23l-73 -447h71q19 0 20.5 -31t-13.5 -62.5t-37 -31.5h-62l-18 -119q-3 -26 -73 -32q-75 -7 -108 16q-15 10 -12 23l23 106h-203q-52 0 -72 51.5zM1057 260h108l54 252z" />
<glyph unicode="&#xbd;" horiz-adv-x="1605" d="M142.5 1109q1.5 16 11.5 21q58 30 98.5 54t94 69.5t89.5 98.5q23 31 113 27q77 -4 97 -27q5 -6 3 -13q-61 -185 -178 -702q-6 -28 -84 -34q-82 -7 -118 15q-15 10 -13 23q9 40 21.5 103.5t18 88.5t17 68.5t23 72.5t30 70.5t44.5 90.5q-31 -46 -79.5 -84t-92.5 -50 q-22 -5 -41 5.5t-31 28.5t-18.5 38t-5 36zM285 88q58 80 206 344t305.5 537.5t243.5 386.5q27 35 114 14q80 -19 116 -60q27 -28 8 -53q-76 -100 -221 -355.5t-293.5 -518.5t-226.5 -371q-24 -34 -114 -25q-88 8 -129 45q-30 27 -9 56zM948 88.5q8 39.5 33 54.5 q98 58 159 135.5t105 182.5q15 37 17.5 64t-6.5 40.5t-27 14.5q-27 2 -46 -23.5t-20 -73.5q-1 -21 -38.5 -28.5t-75.5 5.5t-41 42q-7 79 30 137.5t94 85t121 25.5q82 -2 141.5 -48.5t65.5 -128.5q9 -119 -53 -228t-174 -195h168q33 0 44 -40.5t-4.5 -81t-47.5 -40.5l-400 -4 q-28 -2 -40.5 31.5t-4.5 73z" />
<glyph unicode="&#xbe;" horiz-adv-x="1656" d="M143 836q1 16 19.5 26t43 10.5t49 -4t40 -18t12.5 -31.5q-3 -35 11.5 -54.5t37.5 -19.5q20 -2 38.5 13.5t25.5 44.5q16 60 -6.5 88.5t-108.5 34.5q-26 2 -32 33.5t6 62t32 29.5q72 -3 106 22t40 84q3 31 -9.5 49.5t-33.5 18.5q-26 2 -46 -22.5t-20 -72.5 q0 -15 -40.5 -22.5t-81.5 2.5t-42 35q-5 60 18 107.5t64 75t89 41t98 11.5q97 -3 154 -58.5t52 -141.5q-4 -81 -51 -129.5t-108 -55.5q59 -18 92.5 -74.5t21.5 -132.5q-14 -96 -94 -144.5t-184 -43.5q-92 5 -146.5 63t-46.5 173zM354 88q58 80 206.5 344t306 537.5 t243.5 386.5q27 35 114 14q80 -19 116 -60q27 -28 8 -53q-76 -100 -221.5 -355.5t-294 -518.5t-226.5 -371q-24 -34 -114 -25q-88 8 -129 45q-30 27 -9 56zM937.5 180.5q-20.5 51.5 10.5 91.5l322 445q24 35 109 37q79 3 108 -24q10 -11 8 -23l-74 -447h72q19 0 20.5 -31 t-14 -62.5t-37.5 -31.5h-61l-19 -119q-4 -26 -73 -32q-74 -7 -107 16q-15 10 -12 23l22 106h-202q-52 0 -72.5 51.5zM1126 260h109l53 252z" />
<glyph unicode="&#xbf;" horiz-adv-x="974" d="M57 -319q-1 28 3.5 56t10.5 51t19.5 49.5t23 44.5t30 44t31.5 39.5t37 39.5l36 36t39 37t37 35q51 50 79 81t54 77.5t30 90.5q4 37 63.5 51t118 -2.5t58.5 -54.5q1 -97 -43.5 -176t-128.5 -168q-7 -8 -46 -49t-49.5 -54t-38.5 -48.5t-37.5 -58t-19.5 -55.5t-10 -66 q0 -46 18.5 -72t67.5 -29q60 -3 106.5 50.5t57.5 168.5q2 25 27.5 41t60 18t69 -4t58 -24t23.5 -43q1 -204 -108.5 -297.5t-303.5 -95.5q-163 -2 -267.5 74.5t-105.5 212.5zM541 688q6 61 50 103.5t103 42.5q61 0 100.5 -42.5t36.5 -103.5q-5 -59 -50.5 -101t-106.5 -42 q-65 0 -102 41.5t-31 101.5z" />
<glyph unicode="&#xc0;" d="M2 311q15 116 73 218.5t138 171t168.5 112.5t173.5 57q54 11 127 7.5t142.5 -15.5t137.5 -44t113 -77q8 -21 -13.5 -60t-53.5 -67.5t-50 -23.5q-60 48 -143.5 72.5t-163.5 19.5q-92 -4 -173 -76t-120 -178q-33 -90 -36.5 -154t20.5 -84q33 -31 77 1t86 105.5t74.5 144 t57.5 137.5q38 22 97 18t116 -26t70 -46q-49 -162 -56 -192q-20 -86 -10 -124t43 -36q49 2 129 75t127 169q10 12 31.5 5t42 -24.5t14.5 -27.5q-96 -178 -226 -281.5t-276 -103.5q-80 0 -114.5 65t-22.5 178q-27 -50 -55 -88t-69 -75.5t-96 -58t-122 -21.5q-42 -1 -79.5 7 t-76 30t-64.5 57.5t-37.5 95t-0.5 137.5zM444 1231q-27 31 23 55q55 27 123 18q52 -7 72 -36q23 -33 65.5 -94.5t65.5 -94.5q29 -42 -21 -68q-46 -24 -100 -13q-28 5 -41 20z" />
<glyph unicode="&#xc1;" d="M2 311q15 116 73 218.5t138 171t168.5 112.5t173.5 57q54 11 127 7.5t142.5 -15.5t137.5 -44t113 -77q8 -21 -13.5 -60t-53.5 -67.5t-50 -23.5q-60 48 -143.5 72.5t-163.5 19.5q-92 -4 -173 -76t-120 -178q-33 -90 -36.5 -154t20.5 -84q33 -31 77 1t86 105.5t74.5 144 t57.5 137.5q38 22 97 18t116 -26t70 -46q-49 -162 -56 -192q-20 -86 -10 -124t43 -36q49 2 129 75t127 169q10 12 31.5 5t42 -24.5t14.5 -27.5q-96 -178 -226 -281.5t-276 -103.5q-80 0 -114.5 65t-22.5 178q-27 -50 -55 -88t-69 -75.5t-96 -58t-122 -21.5q-42 -1 -79.5 7 t-76 30t-64.5 57.5t-37.5 95t-0.5 137.5zM566 1037q-11 20 5 44q22 33 65 94.5t66 94.5q29 42 117 37q74 -4 106 -33q22 -20 3 -41l-187 -213q-25 -29 -92 -22q-65 7 -83 39z" />
<glyph unicode="&#xc2;" d="M2 311q15 116 73 218.5t138 171t168.5 112.5t173.5 57q54 11 127 7.5t142.5 -15.5t137.5 -44t113 -77q8 -21 -13.5 -60t-53.5 -67.5t-50 -23.5q-60 48 -143.5 72.5t-163.5 19.5q-92 -4 -173 -76t-120 -178q-33 -90 -36.5 -154t20.5 -84q33 -31 77 1t86 105.5t74.5 144 t57.5 137.5q38 22 97 18t116 -26t70 -46q-49 -162 -56 -192q-20 -86 -10 -124t43 -36q49 2 129 75t127 169q10 12 31.5 5t42 -24.5t14.5 -27.5q-96 -178 -226 -281.5t-276 -103.5q-80 0 -114.5 65t-22.5 178q-27 -50 -55 -88t-69 -75.5t-96 -58t-122 -21.5q-42 -1 -79.5 7 t-76 30t-64.5 57.5t-37.5 95t-0.5 137.5zM408 1063q-9 27 18 51q36 31 238 172q34 22 90 21t84 -23q23 -17 65.5 -61t85.5 -92t53 -58q26 -28 -28 -54q-56 -27 -116 -21q-30 3 -42 16l-123 123l-164 -125q-34 -26 -96 -3q-53 19 -65 54z" />
<glyph unicode="&#xc3;" d="M2 311q15 116 73 218.5t138 171t168.5 112.5t173.5 57q54 11 127 7.5t142.5 -15.5t137.5 -44t113 -77q8 -21 -13.5 -60t-53.5 -67.5t-50 -23.5q-60 48 -143.5 72.5t-163.5 19.5q-92 -4 -173 -76t-120 -178q-33 -90 -36.5 -154t20.5 -84q33 -31 77 1t86 105.5t74.5 144 t57.5 137.5q38 22 97 18t116 -26t70 -46q-49 -162 -56 -192q-20 -86 -10 -124t43 -36q49 2 129 75t127 169q10 12 31.5 5t42 -24.5t14.5 -27.5q-96 -178 -226 -281.5t-276 -103.5q-80 0 -114.5 65t-22.5 178q-27 -50 -55 -88t-69 -75.5t-96 -58t-122 -21.5q-42 -1 -79.5 7 t-76 30t-64.5 57.5t-37.5 95t-0.5 137.5zM350 1124q29 64 88 108.5t135 43.5q47 -1 116.5 -35.5t105.5 -34.5t58 11t48 40q12 14 39.5 -2t46.5 -46t10 -50q-29 -62 -83 -103t-123 -40q-46 1 -120.5 35.5t-101.5 35.5q-60 3 -104 -57q-11 -14 -43.5 1t-56.5 44t-15 49z" />
<glyph unicode="&#xc4;" d="M2 311q15 116 73 218.5t138 171t168.5 112.5t173.5 57q54 11 127 7.5t142.5 -15.5t137.5 -44t113 -77q8 -21 -13.5 -60t-53.5 -67.5t-50 -23.5q-60 48 -143.5 72.5t-163.5 19.5q-92 -4 -173 -76t-120 -178q-33 -90 -36.5 -154t20.5 -84q33 -31 77 1t86 105.5t74.5 144 t57.5 137.5q38 22 97 18t116 -26t70 -46q-49 -162 -56 -192q-20 -86 -10 -124t43 -36q49 2 129 75t127 169q10 12 31.5 5t42 -24.5t14.5 -27.5q-96 -178 -226 -281.5t-276 -103.5q-80 0 -114.5 65t-22.5 178q-27 -50 -55 -88t-69 -75.5t-96 -58t-122 -21.5q-42 -1 -79.5 7 t-76 30t-64.5 57.5t-37.5 95t-0.5 137.5zM395 1139q10 56 54 97t114 44q70 1 105.5 -42.5t27.5 -100.5q-3 -52 -48.5 -96t-115.5 -44q-72 0 -106 43.5t-31 98.5zM766 1139q5 55 48.5 96.5t113.5 44.5q73 1 107 -40.5t32 -100.5q-5 -55 -50.5 -98.5t-117.5 -43.5 q-75 0 -108.5 44t-24.5 98z" />
<glyph unicode="&#xc5;" d="M2 311q15 116 73 218.5t138 171t168.5 112.5t173.5 57q54 11 127 7.5t142.5 -15.5t137.5 -44t113 -77q8 -21 -13.5 -60t-53.5 -67.5t-50 -23.5q-60 48 -143.5 72.5t-163.5 19.5q-92 -4 -173 -76t-120 -178q-33 -90 -36.5 -154t20.5 -84q33 -31 77 1t86 105.5t74.5 144 t57.5 137.5q38 22 97 18t116 -26t70 -46q-49 -162 -56 -192q-20 -86 -10 -124t43 -36q49 2 129 75t127 169q10 12 31.5 5t42 -24.5t14.5 -27.5q-96 -178 -226 -281.5t-276 -103.5q-80 0 -114.5 65t-22.5 178q-27 -50 -55 -88t-69 -75.5t-96 -58t-122 -21.5q-42 -1 -79.5 7 t-76 30t-64.5 57.5t-37.5 95t-0.5 137.5zM506 1159q10 79 76.5 129.5t160.5 50.5q100 0 155 -54.5t42 -141.5q-10 -79 -77 -129.5t-161 -50.5q-100 0 -154.5 54.5t-41.5 141.5zM659 1151q-6 -29 7.5 -46.5t44.5 -17.5q28 0 48.5 17.5t26.5 46.5q6 30 -7.5 46.5t-43.5 16.5 q-28 0 -48.5 -17t-27.5 -46z" />
<glyph unicode="&#xc6;" horiz-adv-x="1503" d="M0 365q120 241 248 362.5t301 134.5q96 8 174 -25.5t127 -105.5q64 67 153.5 104t186.5 35q135 -1 216 -69t81 -160q0 -114 -68 -194.5t-186.5 -111.5t-263.5 -9q7 -78 52.5 -116t115.5 -40q40 -1 72.5 2t78 17.5t84 39.5t81.5 73t79 114q12 14 33.5 8t41 -24.5 t13.5 -30.5q-211 -385 -543 -385q-88 0 -169.5 39t-131.5 110q-57 -66 -149 -102.5t-185 -34.5q-139 1 -210 61.5t-66 165.5q8 157 138 244t335 72q-3 96 -33 137.5t-102 38.5q-214 -9 -416 -398q-11 -14 -34 -10t-42.5 23t-11.5 35zM457.5 227.5q14.5 -43.5 64.5 -43.5 q86 0 111 224q-43 0 -90 -15q-49 -20 -74.5 -71t-11 -94.5zM979 457q81 -3 136.5 40.5t72.5 100.5q10 31 3 53t-30 25q-57 7 -108.5 -55.5t-73.5 -163.5z" />
<glyph unicode="&#xc7;" horiz-adv-x="894" d="M25 375q11 102 54 191.5t112 158.5t170.5 108.5t220.5 38.5q85 -1 145 -23.5t87.5 -57t36.5 -78.5t-0.5 -86.5t-31.5 -81.5q-28 -51 -133 -66q-92 -14 -141 11q-32 16 -19 42q51 106 41 134q-4 13 -18 14q-57 5 -115.5 -78t-68.5 -209q-9 -111 52 -168.5t161 -52.5 q232 15 346 246q9 12 30.5 4.5t42 -25.5t15.5 -26q-90 -173 -204.5 -259.5t-254.5 -113.5l-72 -88q88 -13 124 -77t7 -136q-19 -48 -63.5 -84t-101.5 -52.5t-127.5 -2t-135.5 62.5q-12 13 -3.5 38.5t29 47.5t32.5 14q32 -20 62 -31t65.5 -4t54.5 42q14 24 15 43.5t-20 35 t-67 17.5q-30 1 -37.5 21t11.5 46l63 95q-166 3 -274 113.5t-90 275.5z" />
<glyph unicode="&#xc8;" horiz-adv-x="978" d="M27 397q20 213 174.5 344.5t378.5 128.5q77 -1 138 -23.5t96.5 -59t52.5 -83t12 -97.5t-31 -99q-53 -109 -185 -158.5t-305 -23.5q14 -155 242 -158q48 -1 99 10t107.5 37.5t109 78.5t90.5 124q10 12 32 4.5t42.5 -25t15.5 -26.5q-116 -211 -264 -302t-343 -89 q-128 1 -223.5 35t-148.5 93t-75.5 132t-14.5 157zM348 1231q-27 31 22 55q54 27 123 18q52 -7 72 -36q23 -33 66 -94.5t65 -94.5q29 -42 -21 -68q-46 -24 -100 -13q-27 5 -40 20zM369 457q82 -3 138 40.5t71 100.5q10 31 3 53t-30 25q-55 7 -107 -55.5t-75 -163.5z" />
<glyph unicode="&#xc9;" horiz-adv-x="978" d="M27 397q20 213 174.5 344.5t378.5 128.5q77 -1 138 -23.5t96.5 -59t52.5 -83t12 -97.5t-31 -99q-53 -109 -185 -158.5t-305 -23.5q14 -155 242 -158q48 -1 99 10t107.5 37.5t109 78.5t90.5 124q10 12 32 4.5t42.5 -25t15.5 -26.5q-116 -211 -264 -302t-343 -89 q-128 1 -223.5 35t-148.5 93t-75.5 132t-14.5 157zM369 457q82 -3 138 40.5t71 100.5q10 31 3 53t-30 25q-55 7 -107 -55.5t-75 -163.5zM470 1037q-11 20 5 44q23 33 66 94.5t65 94.5q29 42 117 37q75 -4 106 -34q20 -19 2 -40l-186 -213q-25 -29 -92 -22q-65 7 -83 39z" />
<glyph unicode="&#xca;" horiz-adv-x="978" d="M27 397q20 213 174.5 344.5t378.5 128.5q77 -1 138 -23.5t96.5 -59t52.5 -83t12 -97.5t-31 -99q-53 -109 -185 -158.5t-305 -23.5q14 -155 242 -158q48 -1 99 10t107.5 37.5t109 78.5t90.5 124q10 12 32 4.5t42.5 -25t15.5 -26.5q-116 -211 -264 -302t-343 -89 q-128 1 -223.5 35t-148.5 93t-75.5 132t-14.5 157zM312 1063q-9 27 18 51q40 35 237 172q34 22 90 21t84 -23q23 -17 65.5 -61t86 -92t53.5 -58q26 -28 -28 -54q-56 -27 -116 -21q-30 3 -42 16l-123 123l-164 -125q-34 -26 -96 -3q-53 19 -65 54zM369 457q82 -3 138 40.5 t71 100.5q10 31 3 53t-30 25q-55 7 -107 -55.5t-75 -163.5z" />
<glyph unicode="&#xcb;" horiz-adv-x="978" d="M27 397q20 213 174.5 344.5t378.5 128.5q77 -1 138 -23.5t96.5 -59t52.5 -83t12 -97.5t-31 -99q-53 -109 -185 -158.5t-305 -23.5q14 -155 242 -158q48 -1 99 10t107.5 37.5t109 78.5t90.5 124q10 12 32 4.5t42.5 -25t15.5 -26.5q-116 -211 -264 -302t-343 -89 q-128 1 -223.5 35t-148.5 93t-75.5 132t-14.5 157zM299 1139q10 56 54 97t114 44q70 1 105.5 -42.5t27.5 -100.5q-3 -52 -48.5 -96t-115.5 -44q-72 0 -106 43.5t-31 98.5zM369 457q82 -3 138 40.5t71 100.5q10 31 3 53t-30 25q-55 7 -107 -55.5t-75 -163.5zM670 1139 q5 55 48 96.5t113 44.5q73 1 107.5 -41t32.5 -100q-5 -55 -50.5 -98.5t-117.5 -43.5q-75 0 -108.5 44t-24.5 98z" />
<glyph unicode="&#xcc;" horiz-adv-x="542" d="M-26 145.5q-5 52.5 12 114.5q51 223 184 582q10 29 126 35q122 6 182 -19q31 -13 24 -31q-110 -297 -174 -503q-50 -155 16 -152q41 2 110.5 74t116.5 172q10 12 31.5 4.5t41.5 -25.5t15 -28q-27 -51 -58.5 -99t-75.5 -99t-91 -89.5t-105.5 -65t-117.5 -30.5 q-80 -5 -133 13.5t-76 56t-28 90zM125 1221q-27 31 22 55q54 26 123 17q52 -7 72 -36q22 -33 65.5 -94t65.5 -94q29 -42 -21 -68q-46 -24 -100 -13q-28 5 -41 20z" />
<glyph unicode="&#xcd;" horiz-adv-x="542" d="M-26 145.5q-5 52.5 12 114.5q51 223 184 582q10 29 126 35q122 6 182 -19q31 -13 24 -31q-110 -297 -174 -503q-50 -155 16 -152q41 2 110.5 74t116.5 172q10 12 31.5 4.5t41.5 -25.5t15 -28q-27 -51 -58.5 -99t-75.5 -99t-91 -89.5t-105.5 -65t-117.5 -30.5 q-80 -5 -133 13.5t-76 56t-28 90zM247 1027q-11 20 5 44q22 33 65.5 94.5t65.5 94.5q29 42 117 37q75 -4 106 -34q20 -19 2 -40l-186 -213q-25 -29 -92 -22q-65 7 -83 39z" />
<glyph unicode="&#xce;" horiz-adv-x="542" d="M-26 145.5q-5 52.5 12 114.5q51 223 184 582q10 29 126 35q122 6 182 -19q31 -13 24 -31q-110 -297 -174 -503q-50 -155 16 -152q41 2 110.5 74t116.5 172q10 12 31.5 4.5t41.5 -25.5t15 -28q-27 -51 -58.5 -99t-75.5 -99t-91 -89.5t-105.5 -65t-117.5 -30.5 q-80 -5 -133 13.5t-76 56t-28 90zM88 1053q-9 28 18 51q36 31 238 172q34 22 90 21t84 -23q23 -17 65.5 -61t86 -92t53.5 -58q26 -28 -28 -54q-56 -27 -116 -21q-30 3 -42 16l-123 122l-164 -125q-34 -26 -95 -3q-55 20 -67 55z" />
<glyph unicode="&#xcf;" horiz-adv-x="542" d="M-26 145.5q-5 52.5 12 114.5q51 223 184 582q10 29 126 35q122 6 182 -19q31 -13 24 -31q-110 -297 -174 -503q-50 -155 16 -152q41 2 110.5 74t116.5 172q10 12 31.5 4.5t41.5 -25.5t15 -28q-27 -51 -58.5 -99t-75.5 -99t-91 -89.5t-105.5 -65t-117.5 -30.5 q-80 -5 -133 13.5t-76 56t-28 90zM76 1128q10 56 54 97.5t114 44.5q69 1 105 -43t28 -101q-3 -52 -48.5 -95.5t-115.5 -43.5q-72 0 -106 43t-31 98zM446 1128q5 55 48.5 97t113.5 45q73 1 107.5 -41t32.5 -101q-5 -54 -50.5 -97.5t-117.5 -43.5q-75 0 -109 43.5t-25 97.5z " />
<glyph unicode="&#xd0;" horiz-adv-x="1011" d="M16 436q22 95 68.5 175.5t105.5 134t128.5 90t139 50.5t135 9t118.5 -29q27 95 24 176q-137 -42 -145 -45q-32 -11 -53.5 19t-19 67.5t29.5 46.5q23 7 74.5 24.5t78.5 25.5q-28 47 -90 67.5t-133 14.5q-35 -4 -49.5 33t-4 78.5t37.5 49.5q110 25 244 -12 q147 -40 215 -164q13 5 40 14.5t41 14.5q22 9 43.5 -22t20.5 -64t-27 -47q-4 -1 -73 -25q25 -186 -23 -401q-78 -340 -186 -502q177 -23 286 205q9 11 29.5 3t40.5 -26t16 -26q-31 -66 -68 -115t-77 -78t-78.5 -46.5t-82.5 -23t-79 -5t-77 5.5q-167 -136 -367 -129 q-161 6 -245.5 128t-37.5 328zM280.5 269.5q10.5 -80.5 65.5 -83.5t96 29q-19 47 11.5 93t83.5 42q77 124 137 336q-121 34 -217.5 -23.5t-145.5 -195.5q-41 -117 -30.5 -197.5z" />
<glyph unicode="&#xd1;" horiz-adv-x="1083" d="M-76 31q65 288 234 831q28 19 91 24t127.5 -10.5t88.5 -50.5q-6 -17 -16.5 -51.5t-16.5 -50.5q39 30 67.5 50t75.5 48t94.5 42.5t90.5 13.5q116 -1 156 -74t10 -199q-9 -37 -42 -143.5t-44 -157.5q-13 -57 -5 -94t35 -37q55 0 124 72t118 174q10 12 31.5 4.5t41.5 -25.5 t15 -28q-27 -52 -58.5 -100t-77 -101t-94.5 -91.5t-113 -64.5t-130 -28q-150 -4 -200 69t-17 203q62 243 76 309q12 42 3.5 65t-48.5 17q-57 -8 -146 -80q-27 -87 -49.5 -173.5t-50.5 -206t-41 -169.5q-17 -24 -93 -34.5t-150.5 1.5t-86.5 46zM252 1122q29 64 88 108.5 t135 43.5q47 -1 116 -35.5t105 -34.5t59 11t48 40q12 14 39.5 -2t46.5 -46t10 -50q-29 -62 -83.5 -103t-123.5 -40q-46 1 -120 35.5t-101 35.5q-60 3 -104 -57q-11 -14 -43.5 1t-56.5 44t-15 49z" />
<glyph unicode="&#xd2;" horiz-adv-x="1095" d="M12 260q-7 76 19 176q51 214 204 328.5t351 112.5q138 -1 226.5 -62.5t115.5 -157t5.5 -213t-91.5 -231.5q75 -9 152.5 44t129.5 161q10 12 32 5.5t42 -25t14 -29.5q-35 -66 -74 -115.5t-80.5 -78.5t-80.5 -47t-83.5 -23.5t-78.5 -5.5t-76 5q-151 -124 -368 -124 q-75 0 -136 15t-111.5 48.5t-77.5 87t-34 129.5zM337.5 260q-0.5 -23 4.5 -37.5t14 -28t24.5 -20t37.5 -6.5q41 0 74 33q-25 46 2 97t79 52q21 66 32 124.5t11 107t-19 77t-56 27.5q-103 -3 -170 -244q-8 -29 -12.5 -47t-10.5 -46.5t-8 -47t-2.5 -41.5zM348 1229 q-27 31 22 55q54 27 123 18q52 -7 72 -36q23 -33 66 -94.5t65 -94.5q29 -42 -21 -68q-46 -24 -100 -13q-27 5 -40 20z" />
<glyph unicode="&#xd3;" horiz-adv-x="1095" d="M12 260q-7 76 19 176q51 214 204 328.5t351 112.5q138 -1 226.5 -62.5t115.5 -157t5.5 -213t-91.5 -231.5q75 -9 152.5 44t129.5 161q10 12 32 5.5t42 -25t14 -29.5q-35 -66 -74 -115.5t-80.5 -78.5t-80.5 -47t-83.5 -23.5t-78.5 -5.5t-76 5q-151 -124 -368 -124 q-75 0 -136 15t-111.5 48.5t-77.5 87t-34 129.5zM337.5 260q-0.5 -23 4.5 -37.5t14 -28t24.5 -20t37.5 -6.5q41 0 74 33q-25 46 2 97t79 52q21 66 32 124.5t11 107t-19 77t-56 27.5q-103 -3 -170 -244q-8 -29 -12.5 -47t-10.5 -46.5t-8 -47t-2.5 -41.5zM470 1035 q-11 20 5 44q23 33 66 94.5t65 94.5q29 42 117 37q75 -4 106 -34q20 -19 2 -40l-186 -213q-25 -29 -92 -22q-65 7 -83 39z" />
<glyph unicode="&#xd4;" horiz-adv-x="1095" d="M12 260q-7 76 19 176q51 214 204 328.5t351 112.5q138 -1 226.5 -62.5t115.5 -157t5.5 -213t-91.5 -231.5q75 -9 152.5 44t129.5 161q10 12 32 5.5t42 -25t14 -29.5q-35 -66 -74 -115.5t-80.5 -78.5t-80.5 -47t-83.5 -23.5t-78.5 -5.5t-76 5q-151 -124 -368 -124 q-75 0 -136 15t-111.5 48.5t-77.5 87t-34 129.5zM312 1061q-9 27 18 51q40 35 237 172q34 22 90 21t84 -23q23 -17 65.5 -61t86 -92t53.5 -58q26 -28 -28 -54q-56 -27 -116 -21q-30 3 -42 16l-123 123l-164 -125q-34 -26 -96 -3q-53 19 -65 54zM337.5 260 q-0.5 -23 4.5 -37.5t14 -28t24.5 -20t37.5 -6.5q41 0 74 33q-25 46 2 97t79 52q21 66 32 124.5t11 107t-19 77t-56 27.5q-103 -3 -170 -244q-8 -29 -12.5 -47t-10.5 -46.5t-8 -47t-2.5 -41.5z" />
<glyph unicode="&#xd5;" horiz-adv-x="1095" d="M12 260q-7 76 19 176q51 214 204 328.5t351 112.5q138 -1 226.5 -62.5t115.5 -157t5.5 -213t-91.5 -231.5q75 -9 152.5 44t129.5 161q10 12 32 5.5t42 -25t14 -29.5q-35 -66 -74 -115.5t-80.5 -78.5t-80.5 -47t-83.5 -23.5t-78.5 -5.5t-76 5q-151 -124 -368 -124 q-75 0 -136 15t-111.5 48.5t-77.5 87t-34 129.5zM254 1122q29 64 88 108.5t135 43.5q47 -1 116 -35.5t105 -34.5t59 11t48 40q12 14 39.5 -2t46.5 -46t10 -50q-29 -62 -83.5 -103t-123.5 -40q-46 1 -120 35.5t-101 35.5q-60 3 -104 -57q-11 -14 -43.5 1t-56.5 44t-15 49z M337.5 260q-0.5 -23 4.5 -37.5t14 -28t24.5 -20t37.5 -6.5q41 0 74 33q-25 46 2 97t79 52q21 66 32 124.5t11 107t-19 77t-56 27.5q-103 -3 -170 -244q-8 -29 -12.5 -47t-10.5 -46.5t-8 -47t-2.5 -41.5z" />
<glyph unicode="&#xd6;" horiz-adv-x="1095" d="M12 260q-7 76 19 176q51 214 204 328.5t351 112.5q138 -1 226.5 -62.5t115.5 -157t5.5 -213t-91.5 -231.5q75 -9 152.5 44t129.5 161q10 12 32 5.5t42 -25t14 -29.5q-35 -66 -74 -115.5t-80.5 -78.5t-80.5 -47t-83.5 -23.5t-78.5 -5.5t-76 5q-151 -124 -368 -124 q-75 0 -136 15t-111.5 48.5t-77.5 87t-34 129.5zM299 1137q10 56 54 97t114 44q70 1 105.5 -42.5t27.5 -100.5q-3 -52 -48.5 -96t-115.5 -44q-72 0 -106 43.5t-31 98.5zM337.5 260q-0.5 -23 4.5 -37.5t14 -28t24.5 -20t37.5 -6.5q41 0 74 33q-25 46 2 97t79 52 q21 66 32 124.5t11 107t-19 77t-56 27.5q-103 -3 -170 -244q-8 -29 -12.5 -47t-10.5 -46.5t-8 -47t-2.5 -41.5zM670 1137q5 55 48 96.5t113 44.5q73 1 107.5 -41t32.5 -100q-5 -55 -50.5 -98.5t-117.5 -43.5q-75 0 -108.5 44t-24.5 98z" />
<glyph unicode="&#xd8;" horiz-adv-x="1150" d="M25 436q47 212 219 333.5t393 107.5q30 59 65 120q24 31 61 32t62 -29t4 -66q-34 -61 -45 -82q132 -33 196.5 -134.5t52 -235.5t-94.5 -269q146 6 242 205q9 11 31 5t42.5 -24t14.5 -30q-46 -91 -97.5 -149.5t-104 -84.5t-111 -34t-119.5 3q-72 -70 -193.5 -100 t-236.5 -20q-47 -99 -74 -146q-17 -39 -70 -41q-49 -1 -70 28q-18 25 1 58q5 8 59 119q-136 34 -200.5 147t-26.5 287zM319 442q-49 -174 29 -239q27 63 94.5 231t104.5 252q-75 -9 -137.5 -76.5t-90.5 -167.5zM487 170q98 13 119 53q-24 45 2.5 85t79.5 42q30 50 44 107 t6.5 111t-40.5 87q-37 -86 -116.5 -268.5t-94.5 -216.5z" />
<glyph unicode="&#xd9;" horiz-adv-x="1079" d="M-22 204q3 41 14 87q24 107 88 318t74 247q17 25 90.5 30t143 -12.5t75.5 -50.5q-9 -33 -31.5 -111.5t-41.5 -149t-34 -130.5q-38 -151 -42 -178q-9 -73 29 -74h3q52 1 117.5 89.5t99.5 191.5q55 170 121 397q17 22 83.5 27.5t135.5 -11t90 -51.5q-10 -41 -27.5 -104 t-34.5 -121.5t-35.5 -124t-30.5 -119t-18.5 -97.5t-1.5 -68t23 -23q43 2 116.5 75.5t123.5 174.5q11 13 32.5 6t41.5 -25t14 -28q-28 -52 -60.5 -101t-79.5 -103.5t-96 -94.5t-110.5 -65.5t-122.5 -24.5q-80 2 -120 74.5t-15 178.5q-83 -133 -179 -193t-216 -60 q-66 0 -112 19t-69 49.5t-32 72.5t-6 83zM350 1229q-27 31 22 55q54 27 123 18q52 -7 72 -36q23 -33 66 -94.5t65 -94.5q29 -42 -21 -68q-46 -24 -100 -13q-27 5 -40 20z" />
<glyph unicode="&#xda;" horiz-adv-x="1079" d="M-22 204q3 41 14 87q24 107 88 318t74 247q17 25 90.5 30t143 -12.5t75.5 -50.5q-9 -33 -31.5 -111.5t-41.5 -149t-34 -130.5q-38 -151 -42 -178q-9 -73 29 -74h3q52 1 117.5 89.5t99.5 191.5q55 170 121 397q17 22 83.5 27.5t135.5 -11t90 -51.5q-10 -41 -27.5 -104 t-34.5 -121.5t-35.5 -124t-30.5 -119t-18.5 -97.5t-1.5 -68t23 -23q43 2 116.5 75.5t123.5 174.5q11 13 32.5 6t41.5 -25t14 -28q-28 -52 -60.5 -101t-79.5 -103.5t-96 -94.5t-110.5 -65.5t-122.5 -24.5q-80 2 -120 74.5t-15 178.5q-83 -133 -179 -193t-216 -60 q-66 0 -112 19t-69 49.5t-32 72.5t-6 83zM472 1035q-11 20 5 44q23 33 66 94.5t65 94.5q29 42 117 37q74 -4 106 -33q22 -20 3 -41l-187 -213q-25 -29 -92 -22q-65 7 -83 39z" />
<glyph unicode="&#xdb;" horiz-adv-x="1079" d="M-22 204q3 41 14 87q24 107 88 318t74 247q17 25 90.5 30t143 -12.5t75.5 -50.5q-9 -33 -31.5 -111.5t-41.5 -149t-34 -130.5q-38 -151 -42 -178q-9 -73 29 -74h3q52 1 117.5 89.5t99.5 191.5q55 170 121 397q17 22 83.5 27.5t135.5 -11t90 -51.5q-10 -41 -27.5 -104 t-34.5 -121.5t-35.5 -124t-30.5 -119t-18.5 -97.5t-1.5 -68t23 -23q43 2 116.5 75.5t123.5 174.5q11 13 32.5 6t41.5 -25t14 -28q-28 -52 -60.5 -101t-79.5 -103.5t-96 -94.5t-110.5 -65.5t-122.5 -24.5q-80 2 -120 74.5t-15 178.5q-83 -133 -179 -193t-216 -60 q-66 0 -112 19t-69 49.5t-32 72.5t-6 83zM314 1061q-9 27 18 51q40 35 237 172q34 22 90 21t84 -23q23 -17 65.5 -61t86 -92t53.5 -58q26 -28 -28 -54q-56 -27 -116 -21q-30 3 -42 16l-123 123l-164 -125q-34 -26 -96 -3q-53 19 -65 54z" />
<glyph unicode="&#xdc;" horiz-adv-x="1079" d="M-22 204q3 41 14 87q24 107 88 318t74 247q17 25 90.5 30t143 -12.5t75.5 -50.5q-9 -33 -31.5 -111.5t-41.5 -149t-34 -130.5q-38 -151 -42 -178q-9 -73 29 -74h3q52 1 117.5 89.5t99.5 191.5q55 170 121 397q17 22 83.5 27.5t135.5 -11t90 -51.5q-10 -41 -27.5 -104 t-34.5 -121.5t-35.5 -124t-30.5 -119t-18.5 -97.5t-1.5 -68t23 -23q43 2 116.5 75.5t123.5 174.5q11 13 32.5 6t41.5 -25t14 -28q-28 -52 -60.5 -101t-79.5 -103.5t-96 -94.5t-110.5 -65.5t-122.5 -24.5q-80 2 -120 74.5t-15 178.5q-83 -133 -179 -193t-216 -60 q-66 0 -112 19t-69 49.5t-32 72.5t-6 83zM301 1137q10 56 54 97t114 44q70 1 105.5 -42.5t27.5 -100.5q-3 -52 -48.5 -96t-115.5 -44q-72 0 -106 43.5t-31 98.5zM672 1137q5 55 48.5 96.5t113.5 44.5q73 1 107 -40.5t32 -100.5q-5 -55 -50.5 -98.5t-117.5 -43.5 q-75 0 -108.5 44t-24.5 98z" />
<glyph unicode="&#xdd;" horiz-adv-x="1087" d="M-21 157q-2 38 3 76t16 80q72 271 158 545q21 24 91.5 28.5t137.5 -13t78 -48.5q-50 -171 -129 -489q-10 -39 -14.5 -65t-5 -50.5t10 -34.5t31.5 -6q53 10 113 96.5t94 184.5q67 197 119 395q26 26 97.5 29t137 -16t76.5 -48q-100 -354 -219 -788q102 43 173 126.5 t171 260.5q9 10 30.5 3.5t41.5 -24.5t14 -30q-119 -217 -220.5 -323.5t-250.5 -164.5q-23 -73 -40 -120.5t-39 -100.5t-42 -85.5t-47 -66.5t-56.5 -52.5t-68 -34.5t-84 -22.5t-102.5 -6.5q-129 0 -205 65.5t-61 175.5q5 37 18 69.5t29.5 58t42.5 48t49.5 38t59.5 30.5 t64 24.5t71 20t72 16.5t75 15q37 90 82 229q-142 -198 -350 -198q-57 0 -99.5 13t-67.5 37t-39 54.5t-16 68.5zM244 -339.5q-11 -32.5 2 -55.5t51 -19q63 8 100 97q16 48 33 116q-95 -26 -149 -80q-26 -26 -37 -58.5zM460 1037q-11 20 5 44q22 33 65.5 94.5t65.5 94.5 q29 42 117 37q75 -4 106 -34q20 -19 2 -40l-186 -213q-25 -29 -92 -22q-65 7 -83 39z" />
<glyph unicode="&#xde;" horiz-adv-x="1081" d="M-217 -551q30 116 83 324.5t77.5 303.5t66.5 259.5t63.5 245t54 203t52.5 191t44 152t43.5 142.5t37.5 110q11 31 130 31q122 -1 185 -29q34 -15 27 -34q-62 -174 -186 -570q131 102 295 96q65 -3 110.5 -38.5t67.5 -91t27 -126t-7.5 -142.5t-40.5 -142t-67 -123 q83 6 152 60.5t112 146.5q9 12 31 5.5t42.5 -25t14.5 -29.5q-37 -71 -82.5 -124t-90 -81t-92 -45.5t-88.5 -17.5t-79 3q-103 -99 -249 -116t-265 57q-57 -212 -148 -608q-6 -28 -107 -40q-114 -13 -180 11q-41 15 -34 41zM301 225q41 -39 100 -49.5t95 14.5q-20 26 -18 55 t15 53.5t35.5 38t42.5 7.5q55 128 57 210t-48 91q-30 7 -79 -5.5t-98 -51.5q-23 -68 -56 -194.5t-46 -168.5z" />
<glyph unicode="&#xdf;" horiz-adv-x="1280" d="M-8 45q13 273 85 576.5t189 525.5q75 143 190.5 214t258.5 71q129 0 230 -51t151.5 -143t33.5 -204q-14 -96 -93.5 -172t-184.5 -110q152 -107 205 -238t12 -297q65 8 129 59t113 144q9 10 29.5 2t40.5 -25.5t16 -25.5q-132 -282 -404 -273q-105 -105 -284 -112 q-53 -2 -99.5 5t-91 27.5t-76 54t-51 88.5t-20.5 126q0 17 26.5 35t60.5 27.5t66.5 0t42.5 -42.5q25 -82 66.5 -110.5t79.5 -1.5q-27 43 -3.5 98t68.5 67q-3 100 -43.5 162t-122.5 105q-32 16 -37 66.5t15.5 101t56.5 65.5q41 17 65.5 30t52 35.5t43.5 54t23 75.5 q11 68 -17.5 110.5t-96.5 42.5q-29 0 -50.5 -7t-50 -29t-58.5 -71t-62 -126q-50 -121 -126 -460.5t-65 -465.5q2 -42 -76 -59.5t-157 -1t-80 56.5z" />
<glyph unicode="&#xe0;" d="M2 311q15 116 73 218.5t138 171t168.5 112.5t173.5 57q54 11 127 7.5t142.5 -15.5t137.5 -44t113 -77q8 -21 -13.5 -60t-53.5 -67.5t-50 -23.5q-60 48 -143.5 72.5t-163.5 19.5q-92 -4 -173 -76t-120 -178q-33 -90 -36.5 -154t20.5 -84q33 -31 77 1t86 105.5t74.5 144 t57.5 137.5q38 22 97 18t116 -26t70 -46q-49 -162 -56 -192q-20 -86 -10 -124t43 -36q49 2 129 75t127 169q10 12 31.5 5t42 -24.5t14.5 -27.5q-96 -178 -226 -281.5t-276 -103.5q-80 0 -114.5 65t-22.5 178q-27 -50 -55 -88t-69 -75.5t-96 -58t-122 -21.5q-42 -1 -79.5 7 t-76 30t-64.5 57.5t-37.5 95t-0.5 137.5zM444 1231q-27 31 23 55q55 27 123 18q52 -7 72 -36q23 -33 65.5 -94.5t65.5 -94.5q29 -42 -21 -68q-46 -24 -100 -13q-28 5 -41 20z" />
<glyph unicode="&#xe1;" d="M2 311q15 116 73 218.5t138 171t168.5 112.5t173.5 57q54 11 127 7.5t142.5 -15.5t137.5 -44t113 -77q8 -21 -13.5 -60t-53.5 -67.5t-50 -23.5q-60 48 -143.5 72.5t-163.5 19.5q-92 -4 -173 -76t-120 -178q-33 -90 -36.5 -154t20.5 -84q33 -31 77 1t86 105.5t74.5 144 t57.5 137.5q38 22 97 18t116 -26t70 -46q-49 -162 -56 -192q-20 -86 -10 -124t43 -36q49 2 129 75t127 169q10 12 31.5 5t42 -24.5t14.5 -27.5q-96 -178 -226 -281.5t-276 -103.5q-80 0 -114.5 65t-22.5 178q-27 -50 -55 -88t-69 -75.5t-96 -58t-122 -21.5q-42 -1 -79.5 7 t-76 30t-64.5 57.5t-37.5 95t-0.5 137.5zM566 1037q-11 20 5 44q22 33 65 94.5t66 94.5q29 42 117 37q74 -4 106 -33q22 -20 3 -41l-187 -213q-25 -29 -92 -22q-65 7 -83 39z" />
<glyph unicode="&#xe2;" d="M2 311q15 116 73 218.5t138 171t168.5 112.5t173.5 57q54 11 127 7.5t142.5 -15.5t137.5 -44t113 -77q8 -21 -13.5 -60t-53.5 -67.5t-50 -23.5q-60 48 -143.5 72.5t-163.5 19.5q-92 -4 -173 -76t-120 -178q-33 -90 -36.5 -154t20.5 -84q33 -31 77 1t86 105.5t74.5 144 t57.5 137.5q38 22 97 18t116 -26t70 -46q-49 -162 -56 -192q-20 -86 -10 -124t43 -36q49 2 129 75t127 169q10 12 31.5 5t42 -24.5t14.5 -27.5q-96 -178 -226 -281.5t-276 -103.5q-80 0 -114.5 65t-22.5 178q-27 -50 -55 -88t-69 -75.5t-96 -58t-122 -21.5q-42 -1 -79.5 7 t-76 30t-64.5 57.5t-37.5 95t-0.5 137.5zM408 1063q-9 27 18 51q36 31 238 172q34 22 90 21t84 -23q23 -17 65.5 -61t85.5 -92t53 -58q26 -28 -28 -54q-56 -27 -116 -21q-30 3 -42 16l-123 123l-164 -125q-34 -26 -96 -3q-53 19 -65 54z" />
<glyph unicode="&#xe3;" d="M2 311q15 116 73 218.5t138 171t168.5 112.5t173.5 57q54 11 127 7.5t142.5 -15.5t137.5 -44t113 -77q8 -21 -13.5 -60t-53.5 -67.5t-50 -23.5q-60 48 -143.5 72.5t-163.5 19.5q-92 -4 -173 -76t-120 -178q-33 -90 -36.5 -154t20.5 -84q33 -31 77 1t86 105.5t74.5 144 t57.5 137.5q38 22 97 18t116 -26t70 -46q-49 -162 -56 -192q-20 -86 -10 -124t43 -36q49 2 129 75t127 169q10 12 31.5 5t42 -24.5t14.5 -27.5q-96 -178 -226 -281.5t-276 -103.5q-80 0 -114.5 65t-22.5 178q-27 -50 -55 -88t-69 -75.5t-96 -58t-122 -21.5q-42 -1 -79.5 7 t-76 30t-64.5 57.5t-37.5 95t-0.5 137.5zM350 1124q29 64 88 108.5t135 43.5q47 -1 116.5 -35.5t105.5 -34.5t58 11t48 40q12 14 39.5 -2t46.5 -46t10 -50q-29 -62 -83 -103t-123 -40q-46 1 -120.5 35.5t-101.5 35.5q-60 3 -104 -57q-11 -14 -43.5 1t-56.5 44t-15 49z" />
<glyph unicode="&#xe4;" d="M2 311q15 116 73 218.5t138 171t168.5 112.5t173.5 57q54 11 127 7.5t142.5 -15.5t137.5 -44t113 -77q8 -21 -13.5 -60t-53.5 -67.5t-50 -23.5q-60 48 -143.5 72.5t-163.5 19.5q-92 -4 -173 -76t-120 -178q-33 -90 -36.5 -154t20.5 -84q33 -31 77 1t86 105.5t74.5 144 t57.5 137.5q38 22 97 18t116 -26t70 -46q-49 -162 -56 -192q-20 -86 -10 -124t43 -36q49 2 129 75t127 169q10 12 31.5 5t42 -24.5t14.5 -27.5q-96 -178 -226 -281.5t-276 -103.5q-80 0 -114.5 65t-22.5 178q-27 -50 -55 -88t-69 -75.5t-96 -58t-122 -21.5q-42 -1 -79.5 7 t-76 30t-64.5 57.5t-37.5 95t-0.5 137.5zM395 1139q10 56 54 97t114 44q70 1 105.5 -42.5t27.5 -100.5q-3 -52 -48.5 -96t-115.5 -44q-72 0 -106 43.5t-31 98.5zM766 1139q5 55 48.5 96.5t113.5 44.5q73 1 107 -40.5t32 -100.5q-5 -55 -50.5 -98.5t-117.5 -43.5 q-75 0 -108.5 44t-24.5 98z" />
<glyph unicode="&#xe5;" d="M2 311q15 116 73 218.5t138 171t168.5 112.5t173.5 57q54 11 127 7.5t142.5 -15.5t137.5 -44t113 -77q8 -21 -13.5 -60t-53.5 -67.5t-50 -23.5q-60 48 -143.5 72.5t-163.5 19.5q-92 -4 -173 -76t-120 -178q-33 -90 -36.5 -154t20.5 -84q33 -31 77 1t86 105.5t74.5 144 t57.5 137.5q38 22 97 18t116 -26t70 -46q-49 -162 -56 -192q-20 -86 -10 -124t43 -36q49 2 129 75t127 169q10 12 31.5 5t42 -24.5t14.5 -27.5q-96 -178 -226 -281.5t-276 -103.5q-80 0 -114.5 65t-22.5 178q-27 -50 -55 -88t-69 -75.5t-96 -58t-122 -21.5q-42 -1 -79.5 7 t-76 30t-64.5 57.5t-37.5 95t-0.5 137.5zM506 1159q10 79 76.5 129.5t160.5 50.5q100 0 155 -54.5t42 -141.5q-10 -79 -77 -129.5t-161 -50.5q-100 0 -154.5 54.5t-41.5 141.5zM659 1151q-6 -29 7.5 -46.5t44.5 -17.5q28 0 48.5 17.5t26.5 46.5q6 30 -7.5 46.5t-43.5 16.5 q-28 0 -48.5 -17t-27.5 -46z" />
<glyph unicode="&#xe6;" horiz-adv-x="1503" d="M0 365q120 241 248 362.5t301 134.5q96 8 174 -25.5t127 -105.5q64 67 153.5 104t186.5 35q135 -1 216 -69t81 -160q0 -114 -68 -194.5t-186.5 -111.5t-263.5 -9q7 -78 52.5 -116t115.5 -40q40 -1 72.5 2t78 17.5t84 39.5t81.5 73t79 114q12 14 33.5 8t41 -24.5 t13.5 -30.5q-211 -385 -543 -385q-88 0 -169.5 39t-131.5 110q-57 -66 -149 -102.5t-185 -34.5q-139 1 -210 61.5t-66 165.5q8 157 138 244t335 72q-3 96 -33 137.5t-102 38.5q-214 -9 -416 -398q-11 -14 -34 -10t-42.5 23t-11.5 35zM457.5 227.5q14.5 -43.5 64.5 -43.5 q86 0 111 224q-43 0 -90 -15q-49 -20 -74.5 -71t-11 -94.5zM979 457q81 -3 136.5 40.5t72.5 100.5q10 31 3 53t-30 25q-57 7 -108.5 -55.5t-73.5 -163.5z" />
<glyph unicode="&#xe7;" horiz-adv-x="894" d="M25 375q11 102 54 191.5t112 158.5t170.5 108.5t220.5 38.5q85 -1 145 -23.5t87.5 -57t36.5 -78.5t-0.5 -86.5t-31.5 -81.5q-28 -51 -133 -66q-92 -14 -141 11q-32 16 -19 42q51 106 41 134q-4 13 -18 14q-57 5 -115.5 -78t-68.5 -209q-9 -111 52 -168.5t161 -52.5 q232 15 346 246q9 12 30.5 4.5t42 -25.5t15.5 -26q-90 -173 -204.5 -259.5t-254.5 -113.5l-72 -88q88 -13 124 -77t7 -136q-19 -48 -63.5 -84t-101.5 -52.5t-127.5 -2t-135.5 62.5q-12 13 -3.5 38.5t29 47.5t32.5 14q32 -20 62 -31t65.5 -4t54.5 42q14 24 15 43.5t-20 35 t-67 17.5q-30 1 -37.5 21t11.5 46l63 95q-166 3 -274 113.5t-90 275.5z" />
<glyph unicode="&#xe8;" horiz-adv-x="978" d="M27 397q20 213 174.5 344.5t378.5 128.5q77 -1 138 -23.5t96.5 -59t52.5 -83t12 -97.5t-31 -99q-53 -109 -185 -158.5t-305 -23.5q14 -155 242 -158q48 -1 99 10t107.5 37.5t109 78.5t90.5 124q10 12 32 4.5t42.5 -25t15.5 -26.5q-116 -211 -264 -302t-343 -89 q-128 1 -223.5 35t-148.5 93t-75.5 132t-14.5 157zM348 1231q-27 31 22 55q54 27 123 18q52 -7 72 -36q23 -33 66 -94.5t65 -94.5q29 -42 -21 -68q-46 -24 -100 -13q-27 5 -40 20zM369 457q82 -3 138 40.5t71 100.5q10 31 3 53t-30 25q-55 7 -107 -55.5t-75 -163.5z" />
<glyph unicode="&#xe9;" horiz-adv-x="978" d="M27 397q20 213 174.5 344.5t378.5 128.5q77 -1 138 -23.5t96.5 -59t52.5 -83t12 -97.5t-31 -99q-53 -109 -185 -158.5t-305 -23.5q14 -155 242 -158q48 -1 99 10t107.5 37.5t109 78.5t90.5 124q10 12 32 4.5t42.5 -25t15.5 -26.5q-116 -211 -264 -302t-343 -89 q-128 1 -223.5 35t-148.5 93t-75.5 132t-14.5 157zM369 457q82 -3 138 40.5t71 100.5q10 31 3 53t-30 25q-55 7 -107 -55.5t-75 -163.5zM470 1037q-11 20 5 44q23 33 66 94.5t65 94.5q29 42 117 37q75 -4 106 -34q20 -19 2 -40l-186 -213q-25 -29 -92 -22q-65 7 -83 39z" />
<glyph unicode="&#xea;" horiz-adv-x="978" d="M27 397q20 213 174.5 344.5t378.5 128.5q77 -1 138 -23.5t96.5 -59t52.5 -83t12 -97.5t-31 -99q-53 -109 -185 -158.5t-305 -23.5q14 -155 242 -158q48 -1 99 10t107.5 37.5t109 78.5t90.5 124q10 12 32 4.5t42.5 -25t15.5 -26.5q-116 -211 -264 -302t-343 -89 q-128 1 -223.5 35t-148.5 93t-75.5 132t-14.5 157zM312 1063q-9 27 18 51q40 35 237 172q34 22 90 21t84 -23q23 -17 65.5 -61t86 -92t53.5 -58q26 -28 -28 -54q-56 -27 -116 -21q-30 3 -42 16l-123 123l-164 -125q-34 -26 -96 -3q-53 19 -65 54zM369 457q82 -3 138 40.5 t71 100.5q10 31 3 53t-30 25q-55 7 -107 -55.5t-75 -163.5z" />
<glyph unicode="&#xeb;" horiz-adv-x="978" d="M27 397q20 213 174.5 344.5t378.5 128.5q77 -1 138 -23.5t96.5 -59t52.5 -83t12 -97.5t-31 -99q-53 -109 -185 -158.5t-305 -23.5q14 -155 242 -158q48 -1 99 10t107.5 37.5t109 78.5t90.5 124q10 12 32 4.5t42.5 -25t15.5 -26.5q-116 -211 -264 -302t-343 -89 q-128 1 -223.5 35t-148.5 93t-75.5 132t-14.5 157zM299 1139q10 56 54 97t114 44q70 1 105.5 -42.5t27.5 -100.5q-3 -52 -48.5 -96t-115.5 -44q-72 0 -106 43.5t-31 98.5zM369 457q82 -3 138 40.5t71 100.5q10 31 3 53t-30 25q-55 7 -107 -55.5t-75 -163.5zM670 1139 q5 55 48 96.5t113 44.5q73 1 107.5 -41t32.5 -100q-5 -55 -50.5 -98.5t-117.5 -43.5q-75 0 -108.5 44t-24.5 98z" />
<glyph unicode="&#xec;" horiz-adv-x="542" d="M-26 145.5q-5 52.5 12 114.5q51 223 184 582q10 29 126 35q122 6 182 -19q31 -13 24 -31q-110 -297 -174 -503q-50 -155 16 -152q41 2 110.5 74t116.5 172q10 12 31.5 4.5t41.5 -25.5t15 -28q-27 -51 -58.5 -99t-75.5 -99t-91 -89.5t-105.5 -65t-117.5 -30.5 q-80 -5 -133 13.5t-76 56t-28 90zM125 1221q-27 31 22 55q54 26 123 17q52 -7 72 -36q22 -33 65.5 -94t65.5 -94q29 -42 -21 -68q-46 -24 -100 -13q-28 5 -41 20z" />
<glyph unicode="&#xed;" horiz-adv-x="542" d="M-26 145.5q-5 52.5 12 114.5q51 223 184 582q10 29 126 35q122 6 182 -19q31 -13 24 -31q-110 -297 -174 -503q-50 -155 16 -152q41 2 110.5 74t116.5 172q10 12 31.5 4.5t41.5 -25.5t15 -28q-27 -51 -58.5 -99t-75.5 -99t-91 -89.5t-105.5 -65t-117.5 -30.5 q-80 -5 -133 13.5t-76 56t-28 90zM247 1027q-11 20 5 44q22 33 65.5 94.5t65.5 94.5q29 42 117 37q75 -4 106 -34q20 -19 2 -40l-186 -213q-25 -29 -92 -22q-65 7 -83 39z" />
<glyph unicode="&#xee;" horiz-adv-x="542" d="M-26 145.5q-5 52.5 12 114.5q51 223 184 582q10 29 126 35q122 6 182 -19q31 -13 24 -31q-110 -297 -174 -503q-50 -155 16 -152q41 2 110.5 74t116.5 172q10 12 31.5 4.5t41.5 -25.5t15 -28q-27 -51 -58.5 -99t-75.5 -99t-91 -89.5t-105.5 -65t-117.5 -30.5 q-80 -5 -133 13.5t-76 56t-28 90zM88 1053q-9 28 18 51q36 31 238 172q34 22 90 21t84 -23q23 -17 65.5 -61t86 -92t53.5 -58q26 -28 -28 -54q-56 -27 -116 -21q-30 3 -42 16l-123 122l-164 -125q-34 -26 -95 -3q-55 20 -67 55z" />
<glyph unicode="&#xef;" horiz-adv-x="542" d="M-26 145.5q-5 52.5 12 114.5q51 223 184 582q10 29 126 35q122 6 182 -19q31 -13 24 -31q-110 -297 -174 -503q-50 -155 16 -152q41 2 110.5 74t116.5 172q10 12 31.5 4.5t41.5 -25.5t15 -28q-27 -51 -58.5 -99t-75.5 -99t-91 -89.5t-105.5 -65t-117.5 -30.5 q-80 -5 -133 13.5t-76 56t-28 90zM76 1128q10 56 54 97.5t114 44.5q69 1 105 -43t28 -101q-3 -52 -48.5 -95.5t-115.5 -43.5q-72 0 -106 43t-31 98zM446 1128q5 55 48.5 97t113.5 45q73 1 107.5 -41t32.5 -101q-5 -54 -50.5 -97.5t-117.5 -43.5q-75 0 -109 43.5t-25 97.5z " />
<glyph unicode="&#xf0;" horiz-adv-x="1032" d="M33 436q22 95 68.5 175.5t105.5 134t128.5 90t138.5 50.5t134.5 9t118.5 -29q28 98 25 176q-114 -36 -146 -45q-32 -11 -53.5 19t-19 67.5t29.5 46.5q23 7 75 24.5t79 25.5q-28 47 -90 67.5t-133 14.5q-21 -2 -35.5 12t-19 36.5t-2.5 46.5t13 42.5t27 23.5 q110 25 244 -12q147 -40 215 -164q13 5 40.5 14.5t41.5 14.5q22 9 43.5 -22t20.5 -64t-27 -47q-12 -3 -74 -25q25 -186 -23 -401q-78 -340 -186 -502q178 -24 287 205q9 11 29.5 3t40.5 -26t16 -26q-31 -66 -68 -115t-77 -78t-79 -46.5t-83 -23t-79 -5t-77 5.5 q-167 -136 -367 -129q-161 6 -245 128t-37 328zM297.5 269.5q10.5 -80.5 64.5 -83.5q56 -3 97 29q-19 47 11 93t83 42q77 124 137 336q-121 34 -217 -23t-145 -196q-41 -117 -30.5 -197.5z" />
<glyph unicode="&#xf1;" horiz-adv-x="1083" d="M-76 31q65 288 234 831q28 19 91 24t127.5 -10.5t88.5 -50.5q-6 -17 -16.5 -51.5t-16.5 -50.5q39 30 67.5 50t75.5 48t94.5 42.5t90.5 13.5q116 -1 156 -74t10 -199q-9 -37 -42 -143.5t-44 -157.5q-13 -57 -5 -94t35 -37q55 0 124 72t118 174q10 12 31.5 4.5t41.5 -25.5 t15 -28q-27 -52 -58.5 -100t-77 -101t-94.5 -91.5t-113 -64.5t-130 -28q-150 -4 -200 69t-17 203q62 243 76 309q12 42 3.5 65t-48.5 17q-57 -8 -146 -80q-27 -87 -49.5 -173.5t-50.5 -206t-41 -169.5q-17 -24 -93 -34.5t-150.5 1.5t-86.5 46zM252 1122q29 64 88 108.5 t135 43.5q47 -1 116 -35.5t105 -34.5t59 11t48 40q12 14 39.5 -2t46.5 -46t10 -50q-29 -62 -83.5 -103t-123.5 -40q-46 1 -120 35.5t-101 35.5q-60 3 -104 -57q-11 -14 -43.5 1t-56.5 44t-15 49z" />
<glyph unicode="&#xf2;" horiz-adv-x="1095" d="M12 260q-7 76 19 176q51 214 204 328.5t351 112.5q138 -1 226.5 -62.5t115.5 -157t5.5 -213t-91.5 -231.5q75 -9 152.5 44t129.5 161q10 12 32 5.5t42 -25t14 -29.5q-35 -66 -74 -115.5t-80.5 -78.5t-80.5 -47t-83.5 -23.5t-78.5 -5.5t-76 5q-151 -124 -368 -124 q-75 0 -136 15t-111.5 48.5t-77.5 87t-34 129.5zM337.5 260q-0.5 -23 4.5 -37.5t14 -28t24.5 -20t37.5 -6.5q41 0 74 33q-25 46 2 97t79 52q21 66 32 124.5t11 107t-19 77t-56 27.5q-103 -3 -170 -244q-8 -29 -12.5 -47t-10.5 -46.5t-8 -47t-2.5 -41.5zM348 1229 q-27 31 22 55q54 27 123 18q52 -7 72 -36q23 -33 66 -94.5t65 -94.5q29 -42 -21 -68q-46 -24 -100 -13q-27 5 -40 20z" />
<glyph unicode="&#xf3;" horiz-adv-x="1095" d="M12 260q-7 76 19 176q51 214 204 328.5t351 112.5q138 -1 226.5 -62.5t115.5 -157t5.5 -213t-91.5 -231.5q75 -9 152.5 44t129.5 161q10 12 32 5.5t42 -25t14 -29.5q-35 -66 -74 -115.5t-80.5 -78.5t-80.5 -47t-83.5 -23.5t-78.5 -5.5t-76 5q-151 -124 -368 -124 q-75 0 -136 15t-111.5 48.5t-77.5 87t-34 129.5zM337.5 260q-0.5 -23 4.5 -37.5t14 -28t24.5 -20t37.5 -6.5q41 0 74 33q-25 46 2 97t79 52q21 66 32 124.5t11 107t-19 77t-56 27.5q-103 -3 -170 -244q-8 -29 -12.5 -47t-10.5 -46.5t-8 -47t-2.5 -41.5zM470 1035 q-11 20 5 44q23 33 66 94.5t65 94.5q29 42 117 37q75 -4 106 -34q20 -19 2 -40l-186 -213q-25 -29 -92 -22q-65 7 -83 39z" />
<glyph unicode="&#xf4;" horiz-adv-x="1095" d="M12 260q-7 76 19 176q51 214 204 328.5t351 112.5q138 -1 226.5 -62.5t115.5 -157t5.5 -213t-91.5 -231.5q75 -9 152.5 44t129.5 161q10 12 32 5.5t42 -25t14 -29.5q-35 -66 -74 -115.5t-80.5 -78.5t-80.5 -47t-83.5 -23.5t-78.5 -5.5t-76 5q-151 -124 -368 -124 q-75 0 -136 15t-111.5 48.5t-77.5 87t-34 129.5zM312 1061q-9 27 18 51q40 35 237 172q34 22 90 21t84 -23q23 -17 65.5 -61t86 -92t53.5 -58q26 -28 -28 -54q-56 -27 -116 -21q-30 3 -42 16l-123 123l-164 -125q-34 -26 -96 -3q-53 19 -65 54zM337.5 260 q-0.5 -23 4.5 -37.5t14 -28t24.5 -20t37.5 -6.5q41 0 74 33q-25 46 2 97t79 52q21 66 32 124.5t11 107t-19 77t-56 27.5q-103 -3 -170 -244q-8 -29 -12.5 -47t-10.5 -46.5t-8 -47t-2.5 -41.5z" />
<glyph unicode="&#xf5;" horiz-adv-x="1095" d="M12 260q-7 76 19 176q51 214 204 328.5t351 112.5q138 -1 226.5 -62.5t115.5 -157t5.5 -213t-91.5 -231.5q75 -9 152.5 44t129.5 161q10 12 32 5.5t42 -25t14 -29.5q-35 -66 -74 -115.5t-80.5 -78.5t-80.5 -47t-83.5 -23.5t-78.5 -5.5t-76 5q-151 -124 -368 -124 q-75 0 -136 15t-111.5 48.5t-77.5 87t-34 129.5zM254 1122q29 64 88 108.5t135 43.5q47 -1 116 -35.5t105 -34.5t59 11t48 40q12 14 39.5 -2t46.5 -46t10 -50q-29 -62 -83.5 -103t-123.5 -40q-46 1 -120 35.5t-101 35.5q-60 3 -104 -57q-11 -14 -43.5 1t-56.5 44t-15 49z M337.5 260q-0.5 -23 4.5 -37.5t14 -28t24.5 -20t37.5 -6.5q41 0 74 33q-25 46 2 97t79 52q21 66 32 124.5t11 107t-19 77t-56 27.5q-103 -3 -170 -244q-8 -29 -12.5 -47t-10.5 -46.5t-8 -47t-2.5 -41.5z" />
<glyph unicode="&#xf6;" horiz-adv-x="1095" d="M12 260q-7 76 19 176q51 214 204 328.5t351 112.5q138 -1 226.5 -62.5t115.5 -157t5.5 -213t-91.5 -231.5q75 -9 152.5 44t129.5 161q10 12 32 5.5t42 -25t14 -29.5q-35 -66 -74 -115.5t-80.5 -78.5t-80.5 -47t-83.5 -23.5t-78.5 -5.5t-76 5q-151 -124 -368 -124 q-75 0 -136 15t-111.5 48.5t-77.5 87t-34 129.5zM299 1137q10 56 54 97t114 44q70 1 105.5 -42.5t27.5 -100.5q-3 -52 -48.5 -96t-115.5 -44q-72 0 -106 43.5t-31 98.5zM337.5 260q-0.5 -23 4.5 -37.5t14 -28t24.5 -20t37.5 -6.5q41 0 74 33q-25 46 2 97t79 52 q21 66 32 124.5t11 107t-19 77t-56 27.5q-103 -3 -170 -244q-8 -29 -12.5 -47t-10.5 -46.5t-8 -47t-2.5 -41.5zM670 1137q5 55 48 96.5t113 44.5q73 1 107.5 -41t32.5 -100q-5 -55 -50.5 -98.5t-117.5 -43.5q-75 0 -108.5 44t-24.5 98z" />
<glyph unicode="&#xf8;" horiz-adv-x="1150" d="M25 436q47 212 219 333.5t393 107.5q30 59 65 120q24 31 61 32t62 -29t4 -66q-34 -61 -45 -82q132 -33 196.5 -134.5t52 -235.5t-94.5 -269q146 6 242 205q9 11 31 5t42.5 -24t14.5 -30q-46 -91 -97.5 -149.5t-104 -84.5t-111 -34t-119.5 3q-72 -70 -193.5 -100 t-236.5 -20q-47 -99 -74 -146q-17 -39 -70 -41q-49 -1 -70 28q-18 25 1 58q5 8 59 119q-136 34 -200.5 147t-26.5 287zM319 442q-49 -174 29 -239q27 63 94.5 231t104.5 252q-75 -9 -137.5 -76.5t-90.5 -167.5zM487 170q98 13 119 53q-24 45 2.5 85t79.5 42q30 50 44 107 t6.5 111t-40.5 87q-37 -86 -116.5 -268.5t-94.5 -216.5z" />
<glyph unicode="&#xf9;" horiz-adv-x="1079" d="M-22 204q3 41 14 87q24 107 88 318t74 247q17 25 90.5 30t143 -12.5t75.5 -50.5q-9 -33 -31.5 -111.5t-41.5 -149t-34 -130.5q-38 -151 -42 -178q-9 -73 29 -74h3q52 1 117.5 89.5t99.5 191.5q55 170 121 397q17 22 83.5 27.5t135.5 -11t90 -51.5q-10 -41 -27.5 -104 t-34.5 -121.5t-35.5 -124t-30.5 -119t-18.5 -97.5t-1.5 -68t23 -23q43 2 116.5 75.5t123.5 174.5q11 13 32.5 6t41.5 -25t14 -28q-28 -52 -60.5 -101t-79.5 -103.5t-96 -94.5t-110.5 -65.5t-122.5 -24.5q-80 2 -120 74.5t-15 178.5q-83 -133 -179 -193t-216 -60 q-66 0 -112 19t-69 49.5t-32 72.5t-6 83zM350 1229q-27 31 22 55q54 27 123 18q52 -7 72 -36q23 -33 66 -94.5t65 -94.5q29 -42 -21 -68q-46 -24 -100 -13q-27 5 -40 20z" />
<glyph unicode="&#xfa;" horiz-adv-x="1079" d="M-22 204q3 41 14 87q24 107 88 318t74 247q17 25 90.5 30t143 -12.5t75.5 -50.5q-9 -33 -31.5 -111.5t-41.5 -149t-34 -130.5q-38 -151 -42 -178q-9 -73 29 -74h3q52 1 117.5 89.5t99.5 191.5q55 170 121 397q17 22 83.5 27.5t135.5 -11t90 -51.5q-10 -41 -27.5 -104 t-34.5 -121.5t-35.5 -124t-30.5 -119t-18.5 -97.5t-1.5 -68t23 -23q43 2 116.5 75.5t123.5 174.5q11 13 32.5 6t41.5 -25t14 -28q-28 -52 -60.5 -101t-79.5 -103.5t-96 -94.5t-110.5 -65.5t-122.5 -24.5q-80 2 -120 74.5t-15 178.5q-83 -133 -179 -193t-216 -60 q-66 0 -112 19t-69 49.5t-32 72.5t-6 83zM472 1035q-11 20 5 44q23 33 66 94.5t65 94.5q29 42 117 37q74 -4 106 -33q22 -20 3 -41l-187 -213q-25 -29 -92 -22q-65 7 -83 39z" />
<glyph unicode="&#xfb;" horiz-adv-x="1079" d="M-22 204q3 41 14 87q24 107 88 318t74 247q17 25 90.5 30t143 -12.5t75.5 -50.5q-9 -33 -31.5 -111.5t-41.5 -149t-34 -130.5q-38 -151 -42 -178q-9 -73 29 -74h3q52 1 117.5 89.5t99.5 191.5q55 170 121 397q17 22 83.5 27.5t135.5 -11t90 -51.5q-10 -41 -27.5 -104 t-34.5 -121.5t-35.5 -124t-30.5 -119t-18.5 -97.5t-1.5 -68t23 -23q43 2 116.5 75.5t123.5 174.5q11 13 32.5 6t41.5 -25t14 -28q-28 -52 -60.5 -101t-79.5 -103.5t-96 -94.5t-110.5 -65.5t-122.5 -24.5q-80 2 -120 74.5t-15 178.5q-83 -133 -179 -193t-216 -60 q-66 0 -112 19t-69 49.5t-32 72.5t-6 83zM314 1061q-9 27 18 51q40 35 237 172q34 22 90 21t84 -23q23 -17 65.5 -61t86 -92t53.5 -58q26 -28 -28 -54q-56 -27 -116 -21q-30 3 -42 16l-123 123l-164 -125q-34 -26 -96 -3q-53 19 -65 54z" />
<glyph unicode="&#xfc;" horiz-adv-x="1079" d="M-22 204q3 41 14 87q24 107 88 318t74 247q17 25 90.5 30t143 -12.5t75.5 -50.5q-9 -33 -31.5 -111.5t-41.5 -149t-34 -130.5q-38 -151 -42 -178q-9 -73 29 -74h3q52 1 117.5 89.5t99.5 191.5q55 170 121 397q17 22 83.5 27.5t135.5 -11t90 -51.5q-10 -41 -27.5 -104 t-34.5 -121.5t-35.5 -124t-30.5 -119t-18.5 -97.5t-1.5 -68t23 -23q43 2 116.5 75.5t123.5 174.5q11 13 32.5 6t41.5 -25t14 -28q-28 -52 -60.5 -101t-79.5 -103.5t-96 -94.5t-110.5 -65.5t-122.5 -24.5q-80 2 -120 74.5t-15 178.5q-83 -133 -179 -193t-216 -60 q-66 0 -112 19t-69 49.5t-32 72.5t-6 83zM301 1137q10 56 54 97t114 44q70 1 105.5 -42.5t27.5 -100.5q-3 -52 -48.5 -96t-115.5 -44q-72 0 -106 43.5t-31 98.5zM672 1137q5 55 48.5 96.5t113.5 44.5q73 1 107 -40.5t32 -100.5q-5 -55 -50.5 -98.5t-117.5 -43.5 q-75 0 -108.5 44t-24.5 98z" />
<glyph unicode="&#xfd;" horiz-adv-x="1087" d="M-21 157q-2 38 3 76t16 80q72 271 158 545q21 24 91.5 28.5t137.5 -13t78 -48.5q-50 -171 -129 -489q-10 -39 -14.5 -65t-5 -50.5t10 -34.5t31.5 -6q53 10 113 96.5t94 184.5q67 197 119 395q26 26 97.5 29t137 -16t76.5 -48q-100 -354 -219 -788q102 43 173 126.5 t171 260.5q9 10 30.5 3.5t41.5 -24.5t14 -30q-119 -217 -220.5 -323.5t-250.5 -164.5q-23 -73 -40 -120.5t-39 -100.5t-42 -85.5t-47 -66.5t-56.5 -52.5t-68 -34.5t-84 -22.5t-102.5 -6.5q-129 0 -205 65.5t-61 175.5q5 37 18 69.5t29.5 58t42.5 48t49.5 38t59.5 30.5 t64 24.5t71 20t72 16.5t75 15q37 90 82 229q-142 -198 -350 -198q-57 0 -99.5 13t-67.5 37t-39 54.5t-16 68.5zM244 -339.5q-11 -32.5 2 -55.5t51 -19q63 8 100 97q16 48 33 116q-95 -26 -149 -80q-26 -26 -37 -58.5zM460 1037q-11 20 5 44q22 33 65.5 94.5t65.5 94.5 q29 42 117 37q75 -4 106 -34q20 -19 2 -40l-186 -213q-25 -29 -92 -22q-65 7 -83 39z" />
<glyph unicode="&#xfe;" horiz-adv-x="1081" d="M-217 -551q30 116 83 324.5t77.5 303.5t66.5 259.5t63.5 245t54 203t52.5 191t44 152t43.5 142.5t37.5 110q11 31 130 31q122 -1 185 -29q34 -15 27 -34q-62 -174 -186 -570q131 102 295 96q65 -3 110.5 -38.5t67.5 -91t27 -126t-7.5 -142.5t-40.5 -142t-67 -123 q83 6 152 60.5t112 146.5q9 12 31 5.5t42.5 -25t14.5 -29.5q-37 -71 -82.5 -124t-90 -81t-92 -45.5t-88.5 -17.5t-79 3q-103 -99 -249 -116t-265 57q-57 -212 -148 -608q-6 -28 -107 -40q-114 -13 -180 11q-41 15 -34 41zM301 225q41 -39 100 -49.5t95 14.5q-20 26 -18 55 t15 53.5t35.5 38t42.5 7.5q55 128 57 210t-48 91q-30 7 -79 -5.5t-98 -51.5q-23 -68 -56 -194.5t-46 -168.5z" />
<glyph unicode="&#xff;" horiz-adv-x="1087" d="M-21 157q-2 38 3 76t16 80q72 271 158 545q21 24 91.5 28.5t137.5 -13t78 -48.5q-50 -171 -129 -489q-10 -39 -14.5 -65t-5 -50.5t10 -34.5t31.5 -6q53 10 113 96.5t94 184.5q67 197 119 395q26 26 97.5 29t137 -16t76.5 -48q-100 -354 -219 -788q102 43 173 126.5 t171 260.5q9 10 30.5 3.5t41.5 -24.5t14 -30q-119 -217 -220.5 -323.5t-250.5 -164.5q-23 -73 -40 -120.5t-39 -100.5t-42 -85.5t-47 -66.5t-56.5 -52.5t-68 -34.5t-84 -22.5t-102.5 -6.5q-129 0 -205 65.5t-61 175.5q5 37 18 69.5t29.5 58t42.5 48t49.5 38t59.5 30.5 t64 24.5t71 20t72 16.5t75 15q37 90 82 229q-142 -198 -350 -198q-57 0 -99.5 13t-67.5 37t-39 54.5t-16 68.5zM244 -339.5q-11 -32.5 2 -55.5t51 -19q63 8 100 97q16 48 33 116q-95 -26 -149 -80q-26 -26 -37 -58.5zM289 1139q10 56 54 97t114 44q70 1 105.5 -42.5 t27.5 -100.5q-3 -52 -48.5 -96t-115.5 -44q-72 0 -106 43.5t-31 98.5zM659 1139q5 55 48.5 96.5t113.5 44.5q73 1 107.5 -41t32.5 -100q-5 -55 -50.5 -98.5t-117.5 -43.5q-75 0 -109 44t-25 98z" />
<glyph unicode="&#x152;" horiz-adv-x="1466" d="M17.5 230q-13.5 88 13.5 212q22 91 62 164.5t91 123t112 83.5t124 49t129 15q105 0 184 -51t84 -107q96 93 175 123t179 28q133 -1 202 -66.5t69 -160.5q0 -115 -66.5 -195t-183.5 -112t-262 -10q7 -78 53 -116t115 -40q41 -1 74 2t80.5 17t86.5 39t81.5 73.5t74.5 116.5 q10 12 31.5 5.5t41.5 -25t15 -29.5q-38 -76 -82 -136.5t-84 -100t-86 -68.5t-82.5 -44t-79.5 -23.5t-70.5 -10.5t-60.5 -2q-104 0 -190.5 48t-126.5 136q-66 -86 -159 -132.5t-187 -49.5q-93 -3 -166.5 21.5t-125.5 79.5t-65.5 143zM341.5 260q-0.5 -23 4.5 -37.5t14 -28 t24.5 -20t37.5 -6.5q107 0 172 235q27 130 26 181q-2 103 -75 102q-103 -3 -170 -244q-8 -29 -12.5 -47t-10.5 -46.5t-8 -47t-2.5 -41.5zM942 457q81 -3 136.5 40.5t70.5 100.5q10 31 3 53t-30 25q-60 7 -107 -50.5t-73 -168.5z" />
<glyph unicode="&#x153;" horiz-adv-x="1466" d="M17.5 230q-13.5 88 13.5 212q22 91 62 164.5t91 123t112 83.5t124 49t129 15q105 0 184 -51t84 -107q96 93 175 123t179 28q133 -1 202 -66.5t69 -160.5q0 -115 -66.5 -195t-183.5 -112t-262 -10q7 -78 53 -116t115 -40q41 -1 74 2t80.5 17t86.5 39t81.5 73.5t74.5 116.5 q10 12 31.5 5.5t41.5 -25t15 -29.5q-38 -76 -82 -136.5t-84 -100t-86 -68.5t-82.5 -44t-79.5 -23.5t-70.5 -10.5t-60.5 -2q-104 0 -190.5 48t-126.5 136q-66 -86 -159 -132.5t-187 -49.5q-93 -3 -166.5 21.5t-125.5 79.5t-65.5 143zM341.5 260q-0.5 -23 4.5 -37.5t14 -28 t24.5 -20t37.5 -6.5q107 0 172 235q27 130 26 181q-2 103 -75 102q-103 -3 -170 -244q-8 -29 -12.5 -47t-10.5 -46.5t-8 -47t-2.5 -41.5zM942 457q81 -3 136.5 40.5t70.5 100.5q10 31 3 53t-30 25q-60 7 -107 -50.5t-73 -168.5z" />
<glyph unicode="&#x178;" horiz-adv-x="1087" d="M-21 157q-2 38 3 76t16 80q72 271 158 545q21 24 91.5 28.5t137.5 -13t78 -48.5q-50 -171 -129 -489q-10 -39 -14.5 -65t-5 -50.5t10 -34.5t31.5 -6q53 10 113 96.5t94 184.5q67 197 119 395q26 26 97.5 29t137 -16t76.5 -48q-100 -354 -219 -788q102 43 173 126.5 t171 260.5q9 10 30.5 3.5t41.5 -24.5t14 -30q-119 -217 -220.5 -323.5t-250.5 -164.5q-23 -73 -40 -120.5t-39 -100.5t-42 -85.5t-47 -66.5t-56.5 -52.5t-68 -34.5t-84 -22.5t-102.5 -6.5q-129 0 -205 65.5t-61 175.5q5 37 18 69.5t29.5 58t42.5 48t49.5 38t59.5 30.5 t64 24.5t71 20t72 16.5t75 15q37 90 82 229q-142 -198 -350 -198q-57 0 -99.5 13t-67.5 37t-39 54.5t-16 68.5zM244 -339.5q-11 -32.5 2 -55.5t51 -19q63 8 100 97q16 48 33 116q-95 -26 -149 -80q-26 -26 -37 -58.5zM289 1139q10 56 54 97t114 44q70 1 105.5 -42.5 t27.5 -100.5q-3 -52 -48.5 -96t-115.5 -44q-72 0 -106 43.5t-31 98.5zM659 1139q5 55 48.5 96.5t113.5 44.5q73 1 107.5 -41t32.5 -100q-5 -55 -50.5 -98.5t-117.5 -43.5q-75 0 -109 44t-25 98z" />
<glyph unicode="&#x2c6;" horiz-adv-x="790" d="M86 1536q-9 27 18 51q36 31 238 172q34 22 90 21t84 -23q23 -17 65.5 -61t86 -92t53.5 -58q26 -28 -28 -54q-56 -27 -116 -21q-30 3 -42 16l-123 123l-164 -125q-34 -26 -95 -4q-54 20 -67 55z" />
<glyph unicode="&#x2dc;" horiz-adv-x="804" d="M49 1597q29 64 88 108.5t135 43.5q47 -1 116.5 -35.5t105.5 -34.5q35 0 57.5 11.5t48.5 40.5q12 14 39.5 -2.5t46.5 -46.5t10 -50q-29 -62 -83.5 -103t-123.5 -40q-46 1 -120 36t-101 36q-59 3 -104 -58q-11 -14 -43.5 1t-56.5 44t-15 49z" />
<glyph unicode="&#x2000;" horiz-adv-x="890" />
<glyph unicode="&#x2001;" horiz-adv-x="1781" />
<glyph unicode="&#x2002;" horiz-adv-x="890" />
<glyph unicode="&#x2003;" horiz-adv-x="1781" />
<glyph unicode="&#x2004;" horiz-adv-x="593" />
<glyph unicode="&#x2005;" horiz-adv-x="445" />
<glyph unicode="&#x2006;" horiz-adv-x="296" />
<glyph unicode="&#x2007;" horiz-adv-x="296" />
<glyph unicode="&#x2008;" horiz-adv-x="222" />
<glyph unicode="&#x2009;" horiz-adv-x="356" />
<glyph unicode="&#x200a;" horiz-adv-x="98" />
<glyph unicode="&#x2010;" horiz-adv-x="913" d="M205.5 500q-9.5 49 14.5 98t67 49h405q42 0 54.5 -49t-10 -98t-64.5 -49h-420q-37 0 -46.5 49z" />
<glyph unicode="&#x2011;" horiz-adv-x="913" d="M205.5 500q-9.5 49 14.5 98t67 49h405q42 0 54.5 -49t-10 -98t-64.5 -49h-420q-37 0 -46.5 49z" />
<glyph unicode="&#x2012;" horiz-adv-x="913" d="M205.5 500q-9.5 49 14.5 98t67 49h405q42 0 54.5 -49t-10 -98t-64.5 -49h-420q-37 0 -46.5 49z" />
<glyph unicode="&#x2013;" horiz-adv-x="1036" d="M227 500q-12 49 9.5 98t64.5 49h512q42 0 56 -49t-7 -98t-63 -49h-523q-37 0 -49 49z" />
<glyph unicode="&#x2014;" horiz-adv-x="1529" d="M247 500q-7 49 13 98t55 49h1004q35 0 44 -49t-10 -98t-53 -49h-1017q-29 0 -36 49z" />
<glyph unicode="&#x2018;" horiz-adv-x="710" d="M354 1047q3 118 72 237.5t172 188.5q42 28 89 -7q36 -27 34 -59q0 -15 -12 -25q-36 -32 -82.5 -93t-65.5 -118q42 -15 66.5 -52.5t21.5 -84.5q-5 -59 -50.5 -100.5t-106.5 -42.5q-64 -1 -102 41.5t-36 114.5z" />
<glyph unicode="&#x2019;" horiz-adv-x="649" d="M133 968q0 15 12 25q36 32 82.5 93t65.5 118q-42 15 -66.5 52.5t-21.5 84.5q5 59 50.5 101t106.5 43q64 1 102 -41.5t36 -114.5q-3 -118 -72 -237.5t-172 -188.5q-42 -28 -89 6q-35 27 -34 59z" />
<glyph unicode="&#x201a;" horiz-adv-x="649" d="M133 -236q0 15 12 25q36 32 82.5 93t65.5 118q-42 15 -66.5 52.5t-21.5 84.5q5 59 50.5 101t106.5 43q64 1 102 -41.5t36 -114.5q-3 -118 -72 -237.5t-172 -188.5q-42 -28 -89 6q-35 27 -34 59z" />
<glyph unicode="&#x201c;" horiz-adv-x="833" d="M51 1044q3 118 72 237.5t172 188.5q42 28 89 -6q35 -27 34 -59q0 -15 -12 -25q-36 -32 -82.5 -93t-65.5 -118q42 -15 66.5 -52.5t21.5 -84.5q-4 -58 -50 -99.5t-108 -43.5q-64 -1 -101.5 41t-35.5 114zM406 1044q3 118 71.5 237.5t171.5 188.5q42 28 89 -6q35 -27 34 -59 q0 -15 -12 -25q-36 -32 -82.5 -93t-65.5 -118q42 -15 66.5 -52.5t21.5 -84.5q-5 -59 -50.5 -100.5t-106.5 -42.5q-64 -1 -101.5 41t-35.5 114z" />
<glyph unicode="&#x201d;" horiz-adv-x="1087" d="M195 965q0 16 12 26q35 31 81.5 92.5t65.5 118.5q-42 15 -66.5 52.5t-21.5 84.5q5 59 51 101t107 43q64 1 101.5 -41.5t35.5 -114.5q-3 -118 -72 -237.5t-172 -188.5q-42 -28 -87 6q-36 26 -35 58zM557 966q0 15 12 25q36 32 82.5 93t65.5 118q-42 15 -66.5 52.5 t-21.5 84.5q5 59 50.5 101t106.5 43q64 1 102 -41.5t36 -114.5q-3 -118 -72 -237.5t-172 -188.5q-42 -28 -89 6q-35 27 -34 59z" />
<glyph unicode="&#x201e;" horiz-adv-x="1030" d="M92 -236q0 15 12 25q36 32 82.5 93t65.5 118q-42 15 -66.5 52.5t-21.5 84.5q5 59 51 101t107 43q64 1 101.5 -41.5t35.5 -114.5q-3 -118 -72 -237.5t-172 -188.5q-42 -28 -89 6q-35 27 -34 59zM459 -236q0 15 12 25q35 31 81.5 92.5t65.5 118.5q-42 15 -66.5 52.5 t-21.5 84.5q5 59 51 101t107 43q64 1 101.5 -41.5t35.5 -114.5q-3 -118 -71.5 -237.5t-171.5 -188.5q-42 -28 -89 6q-35 27 -34 59z" />
<glyph unicode="&#x2022;" horiz-adv-x="792" d="M174 811q6 96 79.5 163.5t172.5 67.5q102 0 161.5 -67t51.5 -164q-6 -98 -78 -165.5t-172 -67.5q-96 0 -159 68.5t-56 164.5z" />
<glyph unicode="&#x2026;" horiz-adv-x="1529" d="M123 119q5 59 51 101t107 42q64 0 101 -41.5t32 -101.5t-49.5 -103t-104.5 -43q-61 0 -100.5 42.5t-36.5 103.5zM559 119q5 59 50.5 101t107.5 42q63 0 99.5 -41.5t31.5 -101.5q-5 -61 -49 -103.5t-105 -42.5q-60 0 -100 43t-35 103zM993 119q5 59 51 101t107 42 q63 0 99.5 -41.5t33.5 -101.5q-5 -60 -49.5 -103t-104.5 -43q-61 0 -101.5 43t-35.5 103z" />
<glyph unicode="&#x202f;" horiz-adv-x="356" />
<glyph unicode="&#x2039;" horiz-adv-x="802" d="M228.5 568.5q-10.5 33.5 0 60t28.5 46t42 34.5q59 36 319 219q50 36 102.5 9t62.5 -75.5t-27 -85.5q-67 -51 -262 -182q36 -40 121 -122.5t108 -109.5q24 -27 -6 -72.5t-80 -60.5t-100 23q-37 36 -134.5 126.5t-128.5 121.5q-35 35 -45.5 68.5z" />
<glyph unicode="&#x203a;" horiz-adv-x="802" d="M165.5 309.5q-9.5 48.5 27.5 85.5q77 59 262 183q-36 40 -121.5 122t-108.5 109q-24 27 6.5 72.5t80.5 61t100 -22.5q37 -36 134 -126.5t128 -121.5q35 -35 45.5 -68.5t0 -60t-28.5 -46t-42 -34.5q-59 -36 -319 -219q-50 -36 -102.5 -9.5t-62 75z" />
<glyph unicode="&#x205f;" horiz-adv-x="445" />
<glyph unicode="&#x25fc;" horiz-adv-x="880" d="M0 0v881h881v-881h-881z" />
<glyph unicode="&#xfb01;" horiz-adv-x="1482" d="M-106 -217q14 194 149 694q160 579 315 774q40 51 88 88t96 55.5t98 24t93.5 -6t83.5 -34t68 -60.5t45.5 -86t17.5 -109.5t-16 -131.5q-39 -158 -204 -307.5t-368 -216.5q-38 -141 -51 -193q141 -30 269 -2.5t224.5 87t145.5 133.5q16 61 107 370q25 21 95 24t138.5 -15 t85.5 -50q-23 -81 -61.5 -206.5t-59.5 -199.5t-30 -124q-18 -119 24 -119q57 -2 135.5 68t128.5 178q9 12 30.5 4.5t42 -26t15.5 -27.5q-39 -72 -84 -133.5t-105 -119t-136.5 -92t-159.5 -38.5q-155 -7 -206 66.5t-19 207.5l8 33q-89 -67 -202 -105t-224 -38 q82 -102 114 -216.5t12 -218.5t-87 -184q-123 -143 -344 -137q-170 4 -228.5 100.5t-43.5 288.5zM176 -311q-3 -65 22 -88.5t59.5 2t57.5 86.5q22 59 25 133.5t-18 150t-64 123.5q-24 -79 -51 -202.5t-31 -204.5zM403 653q96 53 178.5 181.5t110.5 238.5q9 40 9 71.5t-12 46 t-27.5 15t-38 -20t-43.5 -59.5q-41 -80 -92 -215t-85 -258zM1130 1157q16 75 72 123t135 47q78 -1 118 -50t28 -120q-13 -74 -69.5 -122t-143.5 -48q-70 0 -112 51t-28 119z" />
<glyph unicode="&#xfb02;" horiz-adv-x="1658" d="M-109 -295q18 223 115 608q75 300 178.5 578t171.5 360q47 56 103.5 94t112.5 54t111.5 14t103 -21t84.5 -56t57.5 -86t20.5 -116.5t-25 -142.5q-113 -349 -566 -526q-8 -28 -23.5 -88.5t-23.5 -87.5q280 21 586 153q5 99 35 244q49 234 149 419t238 263q66 37 139 44.5 t134.5 -15.5t109 -72t64 -124t-0.5 -173q-37 -183 -187 -331t-382 -253q-27 -273 135 -278q31 -1 62.5 4t71.5 21.5t76.5 43.5t76 74.5t72.5 110.5q9 10 29.5 2t40.5 -25.5t16 -25.5q-40 -75 -77 -130.5t-89.5 -110.5t-109 -87.5t-133 -48.5t-165.5 -8q-279 25 -305 323 q-279 -115 -469 -123q130 -147 164 -309.5t-43 -290.5q-61 -97 -170.5 -148.5t-220.5 -45.5q-59 3 -109.5 23.5t-88.5 58t-57 97t-12 134.5zM172 -326q0 -72 39 -82q36 -10 72 39q17 22 28 52q23 59 27.5 136t-15 155.5t-63.5 127.5q-55 -207 -71.5 -289t-16.5 -139z M406 655q98 56 184 191t102 239q11 66 -5 98t-49 14.5t-67 -81.5q-80 -154 -165 -461zM1235 643q75 60 141 147.5t97 165.5q24 62 35 118t5.5 92t-30.5 36q-56 0 -137 -215q-75 -198 -111 -344z" />
<glyph unicode="&#xfb03;" horiz-adv-x="2283" d="M-106 -217q14 194 149 694q160 579 315 774q40 51 88 88t96 55.5t98 24t93.5 -6t83.5 -34t68 -60.5t45.5 -86t17.5 -109.5t-16 -131.5q-39 -158 -204 -307.5t-368 -216.5q-7 -28 -22.5 -83t-22.5 -83q274 13 559 133q173 621 328 817q40 51 88 88t96 55.5t98 24t93.5 -6 t83.5 -34t68 -60.5t45.5 -86t17.5 -109.5t-16 -131.5q-39 -158 -204 -307.5t-368 -216.5q-25 -88 -49 -180q23 -13 61.5 -26t92 -25t112 -9.5t114.5 17.5t107 58t84 110q32 122 129 450q25 21 95.5 24t139 -15t85.5 -50q-24 -84 -62 -207.5t-59.5 -198.5t-30.5 -124 q-18 -119 25 -119q57 -2 135.5 68t128.5 178q9 12 30.5 4.5t42 -26t15.5 -27.5q-39 -72 -84 -133.5t-105 -119t-136.5 -92t-159.5 -38.5q-136 -6 -191.5 50.5t-44.5 160.5q-127 -98 -329 -86q96 -142 97 -305t-93 -275q-123 -143 -344 -137q-88 2 -146 29t-87.5 79.5 t-38 119.5t-1.5 161q12 155 99 496q-217 -77 -398 -95q123 -140 145 -339.5t-73 -313.5q-123 -143 -344 -137q-170 4 -228.5 100.5t-43.5 288.5zM176 -311q-3 -65 22 -88.5t59.5 2t57.5 86.5q22 59 25 133.5t-18 150t-64 123.5q-24 -79 -51 -202.5t-31 -204.5zM403 653 q96 53 178.5 181.5t110.5 238.5q9 40 9 71.5t-12 46t-27.5 15t-38 -20t-43.5 -59.5q-41 -80 -92 -215t-85 -258zM1020 -311q-3 -65 22 -88.5t59.5 2t57.5 86.5q22 59 25 133.5t-18 150t-64 123.5q-24 -79 -51 -202t-31 -205zM1247 653q96 53 178.5 181.5t110.5 238.5 q14 54 7.5 85.5t-23 43.5t-43.5 -8t-54 -68q-40 -79 -91 -214t-85 -259zM1700 0zM1931 1157q16 75 72 123t135 47q78 -1 118 -50t28 -120q-13 -74 -69.5 -122t-143.5 -48q-70 0 -112 51t-28 119z" />
<glyph unicode="&#xfb04;" horiz-adv-x="2498" d="M-106 -217q14 194 149 694q160 579 315 774q40 51 88 88t96 55.5t98 24t93.5 -6t83.5 -34t68 -60.5t45.5 -86t17.5 -109.5t-16 -131.5q-39 -158 -204 -307.5t-368 -216.5q-7 -28 -22.5 -83t-22.5 -83q283 14 564 135q48 187 147 458.5t168 356.5q47 56 104 93.5t113 53.5 t111.5 14.5t102.5 -20.5t83.5 -56t57 -86.5t20.5 -116.5t-25 -142q-113 -349 -565 -526q-8 -28 -23.5 -88t-23.5 -88q87 4 150.5 11t143.5 24.5t154 54t142 90.5q9 93 33 217q49 234 149 419t238 263q66 37 139 44.5t134.5 -15.5t109 -72t64 -124t-0.5 -173 q-40 -201 -187.5 -345.5t-379.5 -205.5q-70 -305 133 -311q31 -1 62 4t71 21.5t76.5 43.5t76 74.5t72.5 110.5q9 10 29.5 2t40.5 -25.5t16 -25.5q-40 -75 -77 -130.5t-89 -110.5t-108.5 -87.5t-133 -48.5t-165.5 -8q-151 13 -224.5 101.5t-82.5 244.5q-89 -54 -175 -85.5 t-142 -40.5t-150 -18q129 -147 162.5 -310.5t-44.5 -291.5q-61 -97 -170.5 -148.5t-220.5 -45.5q-59 3 -109 23.5t-88 58t-57 97t-12 134.5q19 221 107 574q-213 -77 -398 -95q123 -140 145 -339.5t-73 -313.5q-123 -143 -344 -137q-170 4 -228.5 100.5t-43.5 288.5z M176 -311q-3 -65 22 -88.5t59.5 2t57.5 86.5q22 59 25 133.5t-18 150t-64 123.5q-24 -79 -51 -202.5t-31 -204.5zM403 653q96 53 178.5 181.5t110.5 238.5q9 40 9 71.5t-12 46t-27.5 15t-38 -20t-43.5 -59.5q-41 -80 -92 -215t-85 -258zM1010 -326q0 -72 39 -82 q36 -10 72 39q17 22 28 52q23 59 27.5 136t-15 155.5t-63.5 127.5q-55 -207 -71.5 -289t-16.5 -139zM1243 655q98 56 184.5 191t102.5 239q11 66 -5 98t-49 14.5t-67 -81.5q-82 -159 -166 -461zM2075 657q69 32 134.5 119t102.5 180q24 62 35 118t5.5 92t-30.5 36 q-56 0 -137 -215q-78 -214 -110 -330z" />
</font>
</defs>
</svg>
