<svg xmlns="http://www.w3.org/2000/svg" width="16" height="16" viewBox="0 0 16 16">
  <defs>
    <style>
      .cls-1 {
        fill: #67b47d;
        fill-rule: evenodd;
      }
    </style>
  </defs>
  <path class="cls-1" d="M8,0C3.582,0,0,1.119,0,2.5v2C0,5.881,3.582,7,8,7s8-1.119,8-2.5v-2C16,1.119,12.418,0,8,0ZM8,8.5C3.582,8.5,0,7.381,0,6V9c0,1.381,3.582,2.5,8,2.5s8-1.119,8-2.5V6C16,7.381,12.418,8.5,8,8.5ZM8,13c-4.418,0-8-1.119-8-2.5v3C0,14.881,3.582,16,8,16s8-1.119,8-2.5v-3C16,11.881,12.418,13,8,13Z"/>
</svg>
