<svg 
 xmlns="http://www.w3.org/2000/svg"
 xmlns:xlink="http://www.w3.org/1999/xlink"
 width="18px" height="8px">
<path fill-rule="evenodd"  fill="rgb(98, 173, 225)"
 d="M17.536,4.707 L14.707,7.536 C14.317,7.926 13.683,7.926 13.293,7.536 C12.902,7.145 12.902,6.512 13.293,6.121 L14.414,5.000 L3.512,5.000 L4.698,6.200 C5.101,6.608 5.101,7.270 4.698,7.678 C4.295,8.086 3.641,8.086 3.238,7.678 L0.318,4.723 C-0.085,4.314 -0.085,3.653 0.318,3.245 L3.238,0.289 C3.641,-0.119 4.295,-0.119 4.698,0.289 C5.101,0.697 5.101,1.359 4.698,1.767 L3.480,3.000 L14.414,3.000 L13.293,1.879 C12.902,1.488 12.902,0.855 13.293,0.464 C13.683,0.074 14.317,0.074 14.707,0.464 L17.536,3.293 C17.926,3.683 17.926,4.317 17.536,4.707 Z"/>
</svg>