<svg 
 xmlns="http://www.w3.org/2000/svg"
 xmlns:xlink="http://www.w3.org/1999/xlink"
 width="22px" height="15px">
<path fill-rule="evenodd"  fill="rgb(98, 173, 225)"
 d="M20.962,6.988 C20.431,6.963 20.030,6.488 20.067,5.926 L20.024,2.975 L18.416,3.000 L19.106,3.000 C19.113,3.001 19.120,2.999 19.127,3.000 L20.000,3.000 L20.000,5.000 L19.439,5.000 L12.971,13.388 C12.917,13.661 12.760,13.912 12.500,14.062 C12.022,14.338 11.410,14.174 11.134,13.696 L6.114,7.511 L1.866,13.524 C1.590,13.987 0.978,14.146 0.500,13.878 C0.022,13.611 -0.142,13.018 0.134,12.554 L5.028,5.626 C5.079,5.347 5.236,5.090 5.500,4.938 C5.978,4.662 6.590,4.826 6.866,5.304 L11.922,11.533 L18.000,3.650 L18.000,3.006 L17.069,3.021 C16.530,2.983 16.113,2.509 16.136,1.961 C16.160,1.414 16.616,1.000 17.154,1.038 L20.931,0.979 C21.056,0.988 21.171,1.025 21.278,1.075 C21.680,1.211 21.964,1.604 21.933,2.074 L21.990,6.015 C21.954,6.577 21.493,7.013 20.962,6.988 Z"/>
</svg>