<svg 
 xmlns="http://www.w3.org/2000/svg"
 xmlns:xlink="http://www.w3.org/1999/xlink"
 width="18px" height="20px">
<path fill-rule="evenodd"  fill="rgb(98, 173, 225)"
 d="M16.000,20.000 L2.000,20.000 C0.895,20.000 -0.000,19.105 -0.000,18.000 L-0.000,2.000 C-0.000,0.895 0.895,0.000 2.000,0.000 L16.000,0.000 C17.105,0.000 18.000,0.895 18.000,2.000 L18.000,18.000 C18.000,19.105 17.105,20.000 16.000,20.000 ZM16.000,4.000 C16.000,2.895 15.105,2.000 14.000,2.000 L4.000,2.000 C2.895,2.000 2.000,2.895 2.000,4.000 L2.000,16.000 C2.000,17.105 2.895,18.000 4.000,18.000 L14.000,18.000 C15.105,18.000 16.000,17.105 16.000,16.000 L16.000,4.000 ZM12.000,15.000 L6.000,15.000 C5.448,15.000 5.000,14.552 5.000,14.000 C5.000,13.448 5.448,13.000 6.000,13.000 L12.000,13.000 C12.552,13.000 13.000,13.448 13.000,14.000 C13.000,14.552 12.552,15.000 12.000,15.000 ZM12.000,11.000 L6.000,11.000 C5.448,11.000 5.000,10.552 5.000,10.000 C5.000,9.448 5.448,9.000 6.000,9.000 L12.000,9.000 C12.552,9.000 13.000,9.448 13.000,10.000 C13.000,10.552 12.552,11.000 12.000,11.000 ZM12.000,7.000 L6.000,7.000 C5.448,7.000 5.000,6.552 5.000,6.000 C5.000,5.448 5.448,5.000 6.000,5.000 L12.000,5.000 C12.552,5.000 13.000,5.448 13.000,6.000 C13.000,6.552 12.552,7.000 12.000,7.000 Z"/>
</svg>