<svg 
 xmlns="http://www.w3.org/2000/svg"
 xmlns:xlink="http://www.w3.org/1999/xlink"
 width="17px" height="16px">
<path fill-rule="evenodd"  fill="rgb(255, 255, 255)"
 d="M9.514,10.033 L4.266,15.282 C3.485,16.063 2.218,16.063 1.437,15.282 C0.656,14.501 0.656,13.234 1.437,12.453 L6.685,7.205 C5.984,5.411 6.352,3.296 7.801,1.847 C9.250,0.398 11.366,0.029 13.160,0.731 L10.630,3.261 C10.239,3.651 10.239,4.284 10.630,4.675 L12.044,6.089 C12.434,6.480 13.067,6.480 13.458,6.089 L15.988,3.559 C16.689,5.353 16.321,7.469 14.872,8.918 C13.423,10.367 11.307,10.735 9.514,10.033 Z"/>
</svg>