<svg 
 xmlns="http://www.w3.org/2000/svg"
 xmlns:xlink="http://www.w3.org/1999/xlink"
 width="18px" height="18px">
<path fill-rule="evenodd"  fill="rgb(169, 181, 200)"
 d="M16.000,18.000 L2.000,18.000 C0.895,18.000 -0.000,17.104 -0.000,16.000 L-0.000,2.000 C-0.000,0.895 0.895,-0.000 2.000,-0.000 L16.000,-0.000 C17.104,-0.000 18.000,0.895 18.000,2.000 L18.000,16.000 C18.000,17.104 17.104,18.000 16.000,18.000 ZM12.000,3.000 C12.000,2.634 11.894,2.295 11.722,2.000 L6.277,2.000 C6.105,2.295 6.000,2.634 6.000,3.000 L6.000,4.000 C6.000,5.104 6.895,6.000 8.000,6.000 L10.000,6.000 C11.104,6.000 12.000,5.104 12.000,4.000 L12.000,3.000 ZM16.000,4.000 C16.000,2.895 15.104,2.000 14.000,2.000 L14.000,6.000 C14.000,7.104 13.104,8.000 12.000,8.000 L6.000,8.000 C4.895,8.000 4.000,7.104 4.000,6.000 L4.000,2.000 C2.895,2.000 2.000,2.895 2.000,4.000 L2.000,14.000 C2.000,15.104 2.895,16.000 4.000,16.000 L14.000,16.000 C15.104,16.000 16.000,15.104 16.000,14.000 L16.000,4.000 ZM4.000,11.000 L14.000,11.000 L14.000,13.000 L4.000,13.000 L4.000,11.000 Z"/>
</svg>