<svg 
 xmlns="http://www.w3.org/2000/svg"
 xmlns:xlink="http://www.w3.org/1999/xlink"
 width="20px" height="20px">
<path fill-rule="evenodd"  fill="rgb(217, 222, 225)"
 d="M10.000,20.000 C4.477,20.000 -0.000,15.523 -0.000,10.000 C-0.000,4.477 4.477,-0.000 10.000,-0.000 C15.523,-0.000 20.000,4.477 20.000,10.000 C20.000,15.523 15.523,20.000 10.000,20.000 ZM10.000,1.667 C5.398,1.667 1.667,5.397 1.667,10.000 C1.667,14.602 5.398,18.333 10.000,18.333 C14.602,18.333 18.333,14.602 18.333,10.000 C18.333,5.397 14.602,1.667 10.000,1.667 ZM10.000,14.000 C9.448,14.000 9.000,13.552 9.000,13.000 L9.000,9.000 C9.000,8.448 9.448,8.000 10.000,8.000 C10.552,8.000 11.000,8.448 11.000,9.000 L11.000,13.000 C11.000,13.552 10.552,14.000 10.000,14.000 ZM9.000,7.000 L9.000,5.000 L11.000,5.000 L11.000,7.000 L9.000,7.000 Z"/>
</svg>