<svg 
 xmlns="http://www.w3.org/2000/svg"
 xmlns:xlink="http://www.w3.org/1999/xlink"
 width="18px" height="18px">
<path fill-rule="evenodd"  fill="rgb(71, 157, 218)"
 d="M16.000,18.000 L2.000,18.000 C0.895,18.000 -0.000,17.104 -0.000,16.000 L-0.000,7.000 L-0.000,5.000 L-0.000,-0.000 L8.000,-0.000 L10.000,-0.000 L10.000,2.000 L18.000,2.000 L18.000,4.000 L18.000,5.000 L18.000,7.000 L18.000,16.000 C18.000,17.104 17.104,18.000 16.000,18.000 ZM2.000,14.000 C2.000,15.104 2.895,16.000 4.000,16.000 L14.000,16.000 C15.104,16.000 16.000,15.104 16.000,14.000 L16.000,7.000 L2.000,7.000 L2.000,14.000 ZM8.000,4.000 L8.000,3.000 L8.000,2.000 L2.000,2.000 L2.000,5.000 L2.277,5.000 L15.722,5.000 L16.000,5.000 L16.000,4.000 L8.000,4.000 ZM4.000,12.000 L12.000,12.000 L12.000,14.000 L4.000,14.000 L4.000,12.000 ZM4.000,9.000 L10.000,9.000 L10.000,11.000 L4.000,11.000 L4.000,9.000 Z"/>
</svg>