<svg 
 xmlns="http://www.w3.org/2000/svg"
 xmlns:xlink="http://www.w3.org/1999/xlink"
 width="35px" height="35px">
<path fill-rule="evenodd"  fill="rgb(198, 209, 226)"
 d="M2.000,26.011 L2.000,8.616 C2.000,7.723 2.737,7.000 3.647,7.000 L17.979,7.000 C17.982,7.135 18.000,7.267 18.000,7.404 C18.000,15.907 10.040,24.025 2.000,26.011 Z"/>
<path fill-rule="evenodd"  fill="rgb(169, 181, 200)"
 d="M33.000,30.000 L30.000,30.000 L30.000,33.000 C30.000,34.104 29.105,35.000 28.000,35.000 L2.000,35.000 C0.895,35.000 -0.000,34.104 -0.000,33.000 L-0.000,7.000 C-0.000,5.895 0.895,5.000 2.000,5.000 L5.000,5.000 L5.000,2.000 C5.000,0.895 5.895,-0.000 7.000,-0.000 L33.000,-0.000 C34.104,-0.000 35.000,0.895 35.000,2.000 L35.000,28.000 C35.000,29.104 34.104,30.000 33.000,30.000 ZM4.000,7.000 C2.895,7.000 2.000,7.895 2.000,9.000 L2.000,31.000 C2.000,32.104 2.895,33.000 4.000,33.000 L26.000,33.000 C27.104,33.000 28.000,32.104 28.000,31.000 L28.000,9.000 C28.000,7.895 27.104,7.000 26.000,7.000 L4.000,7.000 ZM33.000,4.000 C33.000,2.895 32.104,2.000 31.000,2.000 L9.000,2.000 C7.895,2.000 7.000,2.895 7.000,4.000 L7.000,5.000 L28.000,5.000 C29.105,5.000 30.000,5.895 30.000,7.000 L30.000,28.000 L31.000,28.000 C32.104,28.000 33.000,27.104 33.000,26.000 L33.000,4.000 ZM6.000,24.000 L24.000,24.000 L24.000,26.000 L6.000,26.000 L6.000,24.000 ZM15.000,20.000 C12.791,20.000 11.000,18.209 11.000,16.000 C11.000,13.791 12.791,12.000 15.000,12.000 C17.209,12.000 19.000,13.791 19.000,16.000 C19.000,18.209 17.209,20.000 15.000,20.000 ZM22.000,30.000 L8.000,30.000 L8.000,28.000 L22.000,28.000 L22.000,30.000 Z"/>
<path fill-rule="evenodd"  fill="rgb(198, 209, 226)"
 d="M31.000,28.000 L30.000,28.000 L30.000,7.000 C30.000,5.895 29.105,5.000 28.000,5.000 L7.045,5.000 L7.000,4.000 C7.000,2.895 7.895,2.000 9.000,2.000 L31.000,2.000 C32.104,2.000 33.000,2.895 33.000,4.000 L33.000,26.000 C33.000,27.104 32.104,28.000 31.000,28.000 Z"/>
</svg>