<svg 
 xmlns="http://www.w3.org/2000/svg"
 xmlns:xlink="http://www.w3.org/1999/xlink"
 width="33px" height="33px">
<path fill-rule="evenodd"  fill="rgb(198, 209, 226)"
 d="M31.000,33.000 L2.000,33.000 C0.895,33.000 -0.000,32.104 -0.000,31.000 L-0.000,30.753 C1.149,30.899 2.311,31.000 3.500,31.000 C18.688,31.000 31.000,18.688 31.000,3.500 C31.000,2.311 30.899,1.149 30.753,-0.000 L31.000,-0.000 C32.104,-0.000 33.000,0.895 33.000,2.000 L33.000,31.000 C33.000,32.104 32.104,33.000 31.000,33.000 Z"/>
<path fill-rule="evenodd"  fill="rgb(169, 181, 200)"
 d="M31.000,33.000 L2.000,33.000 C0.895,33.000 -0.000,32.104 -0.000,31.000 L-0.000,2.000 C-0.000,0.895 0.895,-0.000 2.000,-0.000 L10.000,-0.000 L23.000,-0.000 L31.000,-0.000 C32.104,-0.000 33.000,0.895 33.000,2.000 L33.000,31.000 C33.000,32.104 32.104,33.000 31.000,33.000 ZM19.000,2.000 L12.000,2.000 L10.000,2.000 L10.000,9.000 C10.000,10.104 10.895,11.000 12.000,11.000 L19.000,11.000 L19.000,2.000 ZM31.000,4.000 C31.000,4.000 30.104,2.000 29.000,2.000 L25.000,2.000 L25.000,11.000 C25.000,12.104 24.105,13.000 23.000,13.000 L10.000,13.000 C8.895,13.000 8.000,12.104 8.000,11.000 L8.000,2.000 L4.000,2.000 C2.895,2.000 2.000,2.895 2.000,4.000 L2.000,29.000 C2.000,30.104 2.895,31.000 4.000,31.000 L29.000,31.000 C30.104,31.000 31.000,30.104 31.000,29.000 L31.000,4.000 ZM8.000,19.000 L25.000,19.000 L25.000,21.000 L8.000,21.000 L8.000,19.000 ZM23.000,26.000 L10.000,26.000 L10.000,24.000 L23.000,24.000 L23.000,26.000 Z"/>
<path fill-rule="evenodd"  fill="rgb(198, 209, 226)"
 d="M19.000,2.000 L23.000,2.000 L23.000,10.000 C23.000,10.552 22.552,11.000 22.000,11.000 L19.000,11.000 L19.000,2.000 Z"/>
</svg>