<svg 
 xmlns="http://www.w3.org/2000/svg"
 xmlns:xlink="http://www.w3.org/1999/xlink"
 width="24px" height="24px">
<path fill-rule="evenodd"  fill="rgb(71, 157, 218)"
 d="M12.000,-0.000 C18.627,-0.000 24.000,5.373 24.000,12.000 C24.000,18.627 18.627,24.000 12.000,24.000 C5.373,24.000 -0.000,18.627 -0.000,12.000 C-0.000,5.373 5.373,-0.000 12.000,-0.000 Z"/>
<path fill-rule="evenodd"  fill="rgb(255, 255, 255)"
 d="M17.257,10.333 L10.893,16.697 L10.186,15.990 C10.186,15.990 10.186,15.990 10.186,15.990 L7.357,13.162 C6.967,12.771 6.967,12.138 7.357,11.747 C7.748,11.357 8.381,11.357 8.772,11.747 L10.893,13.869 L15.843,8.919 C16.233,8.528 16.866,8.528 17.257,8.919 C17.647,9.309 17.647,9.943 17.257,10.333 Z"/>
</svg>