<svg 
 xmlns="http://www.w3.org/2000/svg"
 xmlns:xlink="http://www.w3.org/1999/xlink"
 width="32px" height="32px">
<path fill-rule="evenodd"  fill="rgb(198, 209, 226)"
 d="M26.000,12.000 C26.000,11.896 25.984,11.796 25.982,11.693 L28.059,9.669 C29.282,11.839 30.000,14.331 30.000,17.000 C30.000,25.284 23.284,32.000 15.000,32.000 C9.112,32.000 4.031,28.599 1.575,23.662 C4.151,25.747 7.428,27.000 11.000,27.000 C19.284,27.000 26.000,20.284 26.000,12.000 Z"/>
<path fill-rule="evenodd"  fill="rgb(169, 181, 200)"
 d="M20.376,5.174 C18.736,4.427 16.920,4.000 15.000,4.000 C7.820,4.000 2.000,9.820 2.000,17.000 C2.000,24.180 7.820,30.000 15.000,30.000 C22.180,30.000 28.000,24.180 28.000,17.000 C28.000,14.814 27.454,12.757 26.501,10.949 L27.967,9.483 C29.252,11.695 30.000,14.258 30.000,17.000 C30.000,25.284 23.284,32.000 15.000,32.000 C6.716,32.000 -0.000,25.284 -0.000,17.000 C-0.000,8.716 6.716,2.000 15.000,2.000 C17.480,2.000 19.813,2.612 21.873,3.677 L20.376,5.174 Z"/>
<path fill-rule="evenodd"  fill="rgb(169, 181, 200)"
 d="M29.256,6.377 L25.014,2.134 L26.428,0.720 C27.209,-0.061 28.475,-0.061 29.256,0.720 L30.671,2.134 C31.452,2.915 31.452,4.182 30.671,4.963 L29.256,6.377 ZM17.236,18.398 L12.993,14.155 L24.307,2.841 L28.549,7.084 L17.236,18.398 ZM11.578,19.812 L12.286,14.862 L16.529,19.105 L11.578,19.812 Z"/>
</svg>