<svg 
 xmlns="http://www.w3.org/2000/svg"
 xmlns:xlink="http://www.w3.org/1999/xlink"
 width="15px" height="15px">
<path fill-rule="evenodd"  fill="rgb(151, 160, 175)"
 d="M7.500,15.000 C3.358,15.000 -0.000,11.642 -0.000,7.500 C-0.000,3.358 3.358,-0.000 7.500,-0.000 C11.642,-0.000 15.000,3.358 15.000,7.500 C15.000,11.642 11.642,15.000 7.500,15.000 ZM7.500,2.000 C4.462,2.000 2.000,4.462 2.000,7.500 C2.000,10.537 4.462,13.000 7.500,13.000 C10.537,13.000 13.000,10.537 13.000,7.500 C13.000,4.462 10.537,2.000 7.500,2.000 ZM7.000,9.000 L6.000,9.000 L6.000,4.000 L8.000,4.000 L8.000,7.000 L11.000,7.000 L11.000,9.000 L8.000,9.000 L7.000,9.000 Z"/>
</svg>