<svg xmlns="http://www.w3.org/2000/svg" viewBox="0 0 40 40"><defs><style>.cls-1{fill:#7f8ca3;}</style></defs><title>Asset 1</title><g id="Layer_2" data-name="Layer 2"><g id="Layer_1-2" data-name="Layer 1"><path class="cls-1" d="M20,0A20,20,0,1,0,40,20,20,20,0,0,0,20,0Zm7.93,20.67A16.65,16.65,0,0,1,25.34,26a10.39,10.39,0,0,1-5.15,3.72l-.19,0-.19,0A10.39,10.39,0,0,1,14.66,26a16.65,16.65,0,0,1-2.59-5.28A25.75,25.75,0,0,1,11,13.91a.61.61,0,0,1,.55-.61,19.07,19.07,0,0,0,8.09-2.89.61.61,0,0,1,.72,0,19.07,19.07,0,0,0,8.09,2.89.61.61,0,0,1,.55.61A25.75,25.75,0,0,1,27.93,20.67Z"/></g></g></svg>